<!DOCTYPE svg PUBLIC "-//W3C//DTD SVG 1.1//EN" "http://www.w3.org/Graphics/SVG/1.1/DTD/svg11.dtd">
<!-- Uploaded to: SVG Repo, www.svgrepo.com, Transformed by: SVG Repo Mixer Tools -->
<svg fill="#ffffff" width="800px" height="800px" viewBox="0 0 24 24" xmlns="http://www.w3.org/2000/svg">
<g id="SVGRepo_bgCarrier" stroke-width="0"/>
<g id="SVGRepo_tracerCarrier" stroke-linecap="round" stroke-linejoin="round"/>
<g id="SVGRepo_iconCarrier">
<path d="M4,23H20a1,1,0,0,0,1-1V6a1,1,0,0,0-.293-.707l-4-4A1,1,0,0,0,16,1H4A1,1,0,0,0,3,2V22A1,1,0,0,0,4,23ZM5,3H15.586L19,6.414V21H5Zm11,9a1,1,0,0,1-1,1H13v2a1,1,0,0,1-2,0V13H9a1,1,0,0,1,0-2h2V9a1,1,0,0,1,2,0v2h2A1,1,0,0,1,16,12Z"/>
</g>
</svg>