<!DOCTYPE svg PUBLIC "-//W3C//DTD SVG 1.1//EN" "http://www.w3.org/Graphics/SVG/1.1/DTD/svg11.dtd">
<!-- Uploaded to: SVG Repo, www.svgrepo.com, Transformed by: SVG Repo Mixer Tools -->
<svg width="800px" height="800px" viewBox="0 0 24 24" fill="none" xmlns="http://www.w3.org/2000/svg">
<g id="SVGRepo_bgCarrier" stroke-width="0"/>
<g id="SVGRepo_tracerCarrier" stroke-linecap="round" stroke-linejoin="round"/>
<g id="SVGRepo_iconCarrier"> <path d="M8.15179 15.85L21 4M12.3249 12L8.15 8.15M21 20L15 14.4669M9 6C9 7.65685 7.65685 9 6 9C4.34315 9 3 7.65685 3 6C3 4.34315 4.34315 3 6 3C7.65685 3 9 4.34315 9 6ZM9 18C9 19.6569 7.65685 21 6 21C4.34315 21 3 19.6569 3 18C3 16.3431 4.34315 15 6 15C7.65685 15 9 16.3431 9 18Z" stroke="#fff" stroke-width="2" stroke-linecap="round" stroke-linejoin="round"/> </g>
</svg>