<!DOCTYPE svg PUBLIC "-//W3C//DTD SVG 1.1//EN" "http://www.w3.org/Graphics/SVG/1.1/DTD/svg11.dtd">
<!-- Uploaded to: SVG Repo, www.svgrepo.com, Transformed by: SVG Repo Mixer Tools -->
<svg fill="#ffffff" width="800px" height="800px" viewBox="0 0 24.00 24.00" xmlns="http://www.w3.org/2000/svg" stroke="#ffffff" stroke-width="1.152">
<g id="SVGRepo_bgCarrier" stroke-width="0"/>
<g id="SVGRepo_tracerCarrier" stroke-linecap="round" stroke-linejoin="round"/>
<g id="SVGRepo_iconCarrier">
<path d="M19,4H17V3a1,1,0,0,0-2,0V4H9V3A1,1,0,0,0,7,3V4H5A3,3,0,0,0,2,7V19a3,3,0,0,0,3,3H19a3,3,0,0,0,3-3V7A3,3,0,0,0,19,4Zm1,15a1,1,0,0,1-1,1H5a1,1,0,0,1-1-1V12H20Zm0-9H4V7A1,1,0,0,1,5,6H7V7A1,1,0,0,0,9,7V6h6V7a1,1,0,0,0,2,0V6h2a1,1,0,0,1,1,1Z"/>
</g>
</svg>