<svg xmlns="http://www.w3.org/2000/svg" xmlns:xlink="http://www.w3.org/1999/xlink" version="1.1" id="Layer_1" x="0px" y="0px" viewBox="0 0 288 288" style="enable-background:new 0 0 288 288;" xml:space="preserve" width="100"  height="100" >
  <style type="text/css">
	.st0{display:none;}
	.st1{display:inline;fill:#FFFFFF;}
	.st2{display:inline;}
	.st3{fill:#C7202F;}
	.st4{display:inline;fill:#6A747C;}
	.st5{display:inline;fill:#C7202F;}
	.st6{fill:#FFFFFF;}
	.st7{fill:#FFFFFF;stroke:#6A747C;stroke-width:2.5444;stroke-miterlimit:10;}
	.st8{fill:#FFFFFF;stroke:#6A747C;stroke-width:2.664;stroke-miterlimit:10;}
	.st9{fill:#FFFFFF;stroke:#6A747C;stroke-width:2.7711;stroke-miterlimit:10;}
	.st10{fill:#CE0E2D;}
	.st11{fill:#6A747C;}
	.st12{display:inline;fill:#CE0E2D;}
	.st13{fill:#C8102E;}
	.st14{fill:#6F767E;}
	.st15{fill:#FFFFFF;stroke:#6F767E;stroke-width:2.7711;stroke-miterlimit:10;}
	.st16{fill:none;stroke:#6F767E;stroke-width:2.7711;stroke-miterlimit:10;}
	.st17{display:inline;fill:none;stroke:#6F767E;stroke-width:2.7711;stroke-miterlimit:10;}
	.st18{fill-rule:evenodd;clip-rule:evenodd;fill:#FFFFFF;}
</style>
  <g id="data_x2B_" class="st0">
    <path class="st1" d="M144.9,49.8c-52.6,0-95.4,42.8-95.4,95.4c0,26.5,10.6,51.1,29.8,69.3l1,1l1.1-1c2.8-2.6,5.7-4.9,8.7-7.1   c14.6,12.9,33.8,20.8,54.8,20.8s40.2-7.9,54.8-20.8c3,2.2,5.9,4.5,8.7,7.1l1.1,1l1-1c19.3-18.2,29.9-42.9,29.9-69.3   C240.3,92.6,197.5,49.8,144.9,49.8z"/>
    <g class="st2">
      <path class="st3" d="M121,91.8c-2.2,0-4,1.5-4,3.4s1.8,3.4,4,3.4s4-1.5,4-3.4S123.3,91.8,121,91.8 M121,100.9    c-3.5,0-6.3-2.5-6.3-5.7s2.8-5.7,6.3-5.7s6.3,2.5,6.3,5.7S124.6,100.9,121,100.9"/>
      <path class="st3" d="M143.5,100.9c-1.3,0-2.3-1-2.3-2.3v-4.7c0-1.1-1-2-2.2-2s-2.2,0.9-2.2,2v7c-1.3,0-2.3-1-2.3-2.3v-4.8    c0-1.1-1-2-2.2-2s-2.2,0.9-2.2,2v4.7c0,1.3-1,2.3-2.3,2.3v-7c0-2.4,2-4.3,4.5-4.3c1.3,0,2.5,0.5,3.3,1.4c0.8-0.9,2-1.4,3.3-1.4    c2.5,0,4.5,1.9,4.5,4.3L143.5,100.9z"/>
      <path class="st3" d="M150.9,100.9c-0.6,0-1.2,0-1.7-0.2c-1.2-0.3-1.9-1.6-1.6-2.8c0-0.1,0.1-0.3,0.1-0.4l0,0    c0.6,0.7,1.7,1.1,3.1,1.1c2.1,0,3.7-1.5,3.7-3.3c0-1.9-1.6-3.5-3.7-3.5c-2,0-4,1.1-4,3.5v7.4c0,1.2-1,2.2-2.3,2.2v-9.6    c0-3.3,2.6-5.8,6.2-5.8c1.6,0,3.1,0.6,4.2,1.6c1.1,1.1,1.8,2.5,1.8,4.1C156.9,98.4,154.3,100.9,150.9,100.9"/>
      <path class="st3" d="M167.2,87.4h-4.9v13.5h-0.1c-1.2,0-2.2-1-2.2-2.3V87.4h-4.9c-1.2,0-2.2-1-2.2-2.3h16.6    C169.5,86.4,168.5,87.4,167.2,87.4"/>
      <path class="st3" d="M181.7,87.5l-3.2,7.1h6.1l-3.3-7.2L181.7,87.5z M186.8,99.5l-1.2-2.6h-8.1l-1.2,2.7c-0.6,1.1-2.1,1.4-3.2,1.4    l6.6-14.5c0.4-0.8,1-1.3,1.8-1.3s1.5,0.5,1.8,1.3l6.5,14.3C188.6,100.9,187.3,100.5,186.8,99.5"/>
      <path class="st3" d="M112.2,89.4c-1.2-1.3-3-2.2-5-2.2c-3.5,0-6.4,2.6-6.4,5.7c0,3.2,2.9,5.8,6.4,5.8c1.7,0,3.3-0.6,4.5-1.7    c0.8-0.7,2.1-0.6,2.9,0c-0.6,1-1.5,1.8-2.5,2.4c-1.5,0.9-3.1,1.4-4.9,1.4c-4.8,0-8.7-3.6-8.7-8s3.9-8,8.7-8c3.4,0,6.5,1.9,7.9,4.7    C114.1,90.3,112.9,90.2,112.2,89.4"/>
      <path class="st3" d="M191.1,99.1H191c0,0,0.1,0.1,0.3,0.4l0,0c-0.1,0.1-0.2,0.1-0.3,0c-0.3-0.3-0.3-0.3-0.3-0.3h-0.3v-0.1    c0-0.1,0.1-0.2,0.2-0.2h0.1c0.1,0,0.2,0,0.2,0s0.1,0,0.1-0.1c0,0,0-0.1-0.3-0.1h-0.4v0.8c0,0.1-0.1,0.2-0.2,0.2H190v-1    c0-0.1,0.1-0.2,0.2-0.2h0.5c0.5,0,0.6,0.3,0.6,0.4C191.3,98.9,191.3,99,191.1,99.1 M190.7,98.1c-0.5,0-0.9,0.4-0.9,0.8    c0,0.5,0.4,0.8,0.9,0.8s1-0.4,1-0.8S191.2,98.1,190.7,98.1 M190.7,100c-0.7,0-1.2-0.5-1.2-1.1s0.5-1.1,1.2-1.1s1.2,0.5,1.2,1.1    C191.9,99.6,191.4,100,190.7,100"/>
      <path class="st3" d="M170.2,85.1v13.6c0,1.2,1,2.2,2.3,2.2V87.3C172.5,86.1,171.4,85.1,170.2,85.1"/>
    </g>
    <path class="st4" d="M144.9,49.8c-52.6,0-95.4,42.8-95.4,95.4c0,26.5,10.6,51.1,29.8,69.3l1,1l1.1-1c2.8-2.6,5.7-4.9,8.7-7.1   c14.6,12.9,33.8,20.8,54.8,20.8s40.2-7.9,54.8-20.8c3,2.2,5.9,4.5,8.7,7.1l1.1,1l1-1c19.3-18.2,29.9-42.9,29.9-69.3   C240.3,92.6,197.5,49.8,144.9,49.8z M135.3,187.1c-16.2,1.6-31.6,7.2-45,16.3C74.7,188.8,65,168.1,65,145.1   c0-44.1,35.8-79.9,79.9-79.9s79.9,35.8,79.9,79.9c0,23-9.8,43.7-25.3,58.3c-13.7-9.3-29.5-15-46.1-16.4 M153.4,190.2   c15.7,1.4,30.7,6.7,43.7,15.5c-14,12.1-32.3,19.5-52.2,19.5c-20,0-38.2-7.4-52.2-19.5c12.7-8.5,27.3-13.8,42.6-15.4 M209.4,211.3   c-2.4-2.1-4.8-4.1-7.4-6c15.9-15.1,25.9-36.5,25.9-60.1c0-45.8-37.2-83-83-83s-83,37.2-83,83c0,23.6,9.9,45,25.8,60.1   c-2.5,1.9-5,3.8-7.4,6c-17.9-17.5-27.8-40.9-27.8-66.1c0-50.9,41.4-92.4,92.4-92.4s92.4,41.4,92.4,92.4   C237.3,170.3,227.4,193.7,209.4,211.3z"/>
    <path class="st5" d="M243.7,111.1H37.8V161c0,4.6,3.8,8.4,8.4,8.4h205.9v-49.9C252,114.9,248.3,111.1,243.7,111.1z"/>
    <path class="st4" d="M209.7,208.9h-0.1c0,0,0.1,0.1,0.3,0.4l0,0c-0.1,0.1-0.2,0.1-0.3,0c-0.3-0.3-0.3-0.3-0.3-0.3H209v-0.1   c0-0.1,0.1-0.2,0.2-0.2h0.1c0.1,0,0.2,0,0.2,0s0.1,0,0.1-0.1c0,0,0-0.1-0.3-0.1h-0.4v0.8c0,0.1-0.1,0.2-0.2,0.2h-0.1v-1   c0-0.1,0.1-0.2,0.2-0.2h0.5c0.5,0,0.6,0.3,0.6,0.4C209.9,208.7,209.8,208.8,209.7,208.9 M209.3,208c-0.5,0-0.9,0.4-0.9,0.8   c0,0.5,0.4,0.8,0.9,0.8s1-0.4,1-0.8C210.2,208.3,209.8,208,209.3,208 M209.3,209.9c-0.7,0-1.2-0.5-1.2-1.1s0.5-1.1,1.2-1.1   s1.2,0.5,1.2,1.1S209.9,209.9,209.3,209.9"/>
    <g class="st2">
      <path class="st6" d="M94.6,125.7h10.1c8.5,0,14.3,5.8,14.3,13.4v0.1c0,7.6-5.9,13.5-14.3,13.5H94.6V125.7z M99.3,130v18.3h5.3    c5.7,0,9.4-3.8,9.4-9.1v-0.1c0-5.3-3.7-9.2-9.4-9.2h-5.3V130z"/>
      <path class="st6" d="M120.3,146.8L120.3,146.8c0-4.5,3.4-6.6,8.4-6.6c2.3,0,3.9,0.3,5.5,0.8v-0.5c0-2.9-1.8-4.4-5-4.4    c-2.3,0-4,0.5-5.8,1.3l-1.2-3.7c2.2-1,4.4-1.7,7.7-1.7c3,0,5.3,0.8,6.7,2.3c1.5,1.5,2.2,3.6,2.2,6.3v12.1h-4.5v-2.5    c-1.4,1.7-3.5,3-6.6,3C123.7,153.1,120.3,150.9,120.3,146.8z M134.3,145.3v-1.4c-1.2-0.5-2.8-0.8-4.6-0.8c-3,0-4.8,1.3-4.8,3.4    v0.1c0,2,1.7,3.1,4,3.1C131.9,149.7,134.3,147.9,134.3,145.3z"/>
      <path class="st6" d="M143.3,147v-10.7h-2.5v-4h2.6v-5.6h4.7v5.6h5.5v4h-5.5v10c0,1.8,0.9,2.5,2.5,2.5c1,0,2-0.2,2.9-0.7v3.8    c-1.2,0.7-2.4,1-4.2,1C145.8,153,143.3,151.5,143.3,147z"/>
      <path class="st6" d="M155.9,146.8L155.9,146.8c0-4.5,3.4-6.6,8.4-6.6c2.3,0,3.9,0.3,5.5,0.8v-0.5c0-2.9-1.8-4.4-5-4.4    c-2.3,0-4,0.5-5.8,1.3l-1.2-3.7c2.2-1,4.4-1.7,7.7-1.7c3,0,5.3,0.8,6.7,2.3c1.5,1.5,2.2,3.6,2.2,6.3v12.1h-4.5v-2.5    c-1.4,1.7-3.5,3-6.6,3C159.3,153.1,155.9,150.9,155.9,146.8z M169.9,145.3v-1.4c-1.2-0.5-2.8-0.8-4.6-0.8c-3,0-4.8,1.3-4.8,3.4    v0.1c0,2,1.7,3.1,4,3.1C167.5,149.7,169.9,147.9,169.9,145.3z"/>
      <path class="st6" d="M184.5,141.2h-7.4v-4.3h7.4v-7.3h4.4v7.3h7.4v4.3h-7.4v7.4h-4.4V141.2z"/>
    </g>
    <rect x="125.2" y="184.8" class="st1" width="39.3" height="12.2"/>
    <g class="st2">
      <rect x="129.4" y="189.6" class="st7" width="10.3" height="15.4"/>
      <rect x="139.6" y="182.7" class="st8" width="10.3" height="22.2"/>
      <rect x="150.2" y="176.1" class="st9" width="10.3" height="28.9"/>
    </g>
  </g>
  <g id="ctt_x2B_" class="st0">
    <path class="st1" d="M145.5,49.8C92.8,49.8,50,92.6,50,145.2c0,26.5,10.6,51.1,29.8,69.3l1,1l1.1-1c2.8-2.6,5.7-4.9,8.7-7.1   c14.6,12.9,33.8,20.8,54.8,20.8c21,0,40.2-7.9,54.8-20.8c3,2.2,5.9,4.5,8.6,7.1l1.1,1l1-1c19.3-18.3,29.9-42.9,29.9-69.3   C240.9,92.6,198.1,49.8,145.5,49.8z"/>
    <path class="st4" d="M145.5,49.8C92.8,49.8,50,92.6,50,145.2c0,26.5,10.6,51.1,29.8,69.3l1,1l1.1-1c2.8-2.6,5.7-4.9,8.7-7.1   c14.6,12.9,33.8,20.8,54.8,20.8c21,0,40.2-7.9,54.8-20.8c3,2.2,5.9,4.5,8.6,7.1l1.1,1l1-1c19.3-18.3,29.9-42.9,29.9-69.3   C240.9,92.6,198.1,49.8,145.5,49.8z M145.5,225.1c-20,0-38.2-7.4-52.2-19.5c11.2-7.5,24-12.5,37.4-14.7l-3.1,18.8h7.6l-0.9,6.1   c-0.1,0.8,0.4,1.6,1.3,1.8c0.1,0,0.2,0,0.2,0c0.7,0,1.4-0.5,1.5-1.3l1-6.5h14.6l0.9,6.5c0.1,0.8,0.9,1.4,1.7,1.3   c0.8-0.1,1.4-0.9,1.3-1.7l-0.9-6.1h7.5l-3.1-18.9c13.4,2.1,26.1,7.1,37.4,14.7C183.7,217.8,165.4,225.1,145.5,225.1z M65.6,145.2   c0-44.1,35.8-79.9,79.9-79.9s79.9,35.8,79.9,79.9c0,23-9.8,43.7-25.3,58.3c-12-8.3-25.8-13.6-40.2-15.8l-1.2-7.6h-6.9l-0.8-5.2   h-10.3l-0.8,5.2h-7.4l-1.2,7.6c-14.5,2.1-28.2,7.5-40.3,15.7C75.3,188.9,65.6,168.2,65.6,145.2z M135,183.2h4.3l-3.7,23.5h-4.5   L135,183.2z M142.4,183.2h6.5l3.4,23.5h-13.6L142.4,183.2z M142.9,180.1l0.3-2.1h5l0.3,2.1H142.9z M152.1,183.2h3.9l3.9,23.5h-4.3   L152.1,183.2z M209.9,211.3c-2.4-2.1-4.8-4.1-7.4-6c15.9-15.1,25.9-36.5,25.9-60.1c0-45.8-37.2-83-83-83s-83,37.2-83,83   c0,23.6,9.9,44.9,25.8,60.1c-2.5,1.9-5,3.9-7.4,6c-17.9-17.5-27.8-40.9-27.8-66.1c0-50.9,41.4-92.4,92.4-92.4s92.4,41.4,92.4,92.4   C237.8,170.3,227.9,193.7,209.9,211.3z"/>
    <g class="st2">
      <g>
        <path class="st10" d="M121.6,91.8c-2.2,0-4,1.5-4,3.4c0,1.9,1.8,3.4,4,3.4c2.2,0,4-1.5,4-3.4C125.6,93.3,123.8,91.8,121.6,91.8      M121.6,100.9c-3.5,0-6.3-2.5-6.3-5.7c0-3.2,2.8-5.7,6.3-5.7c3.5,0,6.3,2.5,6.3,5.7C127.9,98.4,125.1,100.9,121.6,100.9"/>
        <path class="st10" d="M144.1,100.9c-1.3,0-2.3-1-2.3-2.3v-4.7c0-1.1-1-2-2.2-2c-1.2,0-2.2,0.9-2.2,2l0,7c-1.3,0-2.3-1-2.3-2.3     l0-4.8c0-1.1-1-2-2.2-2c-1.2,0-2.2,0.9-2.2,2l0,4.7c0,1.3-1,2.3-2.3,2.3l0-7c0-2.4,2-4.3,4.5-4.3c1.3,0,2.5,0.5,3.3,1.4     c0.8-0.9,2-1.4,3.3-1.4c2.5,0,4.5,1.9,4.5,4.3L144.1,100.9z"/>
        <path class="st10" d="M151.5,100.9c-0.6,0-1.2,0-1.7-0.2c-1.2-0.3-1.9-1.6-1.6-2.8c0-0.1,0.1-0.3,0.1-0.4l0,0     c0.6,0.7,1.7,1.1,3.1,1.1c2.1,0,3.7-1.5,3.7-3.3c0-1.9-1.6-3.5-3.7-3.5c-2,0-4,1.1-4,3.5l0,7.4c0,1.2-1,2.2-2.3,2.2l0-9.6     c0-3.3,2.6-5.8,6.2-5.8c1.6,0,3.1,0.6,4.2,1.6c1.1,1.1,1.8,2.5,1.8,4.1C157.5,98.4,154.9,100.9,151.5,100.9"/>
        <path class="st10" d="M167.8,87.4l-4.9,0l0,13.5h-0.1c-1.2,0-2.2-1-2.2-2.3l0-11.2l-4.9,0c-1.2,0-2.2-1-2.2-2.3l16.6,0     C170,86.4,169,87.4,167.8,87.4"/>
        <path class="st10" d="M182.3,87.5l-3.2,7.1l6.1,0l-3.3-7.2L182.3,87.5z M187.3,99.5l-1.2-2.6l-8.1,0l-1.2,2.7     c-0.6,1.1-2.1,1.4-3.2,1.4l6.6-14.5c0.4-0.8,1-1.3,1.8-1.3c0.8,0,1.5,0.5,1.8,1.3l6.5,14.3C189.2,100.9,187.8,100.5,187.3,99.5"/>
        <path class="st10" d="M112.7,89.4c-1.2-1.3-3-2.2-5-2.2c-3.5,0-6.4,2.6-6.4,5.7c0,3.2,2.9,5.8,6.4,5.8c1.7,0,3.3-0.6,4.5-1.7     c0.8-0.7,2.1-0.6,2.9,0c-0.6,1-1.5,1.8-2.5,2.4c-1.5,0.9-3.1,1.4-4.9,1.4c-4.8,0-8.7-3.6-8.7-8c0-4.4,3.9-8,8.7-8     c3.4,0,6.5,1.9,7.9,4.7C114.7,90.3,113.5,90.2,112.7,89.4"/>
        <path class="st10" d="M191.7,99.1c0,0-0.1,0-0.1,0c0,0,0.1,0.1,0.3,0.4l0,0c-0.1,0.1-0.2,0.1-0.3,0c-0.3-0.3-0.3-0.3-0.3-0.3H191     v-0.1c0-0.1,0.1-0.2,0.2-0.2h0.1c0.1,0,0.2,0,0.2,0c0,0,0.1,0,0.1-0.1c0,0,0-0.1-0.3-0.1h-0.4v0.8c0,0.1-0.1,0.2-0.2,0.2h-0.1v-1     c0-0.1,0.1-0.2,0.2-0.2l0.5,0c0.5,0,0.6,0.3,0.6,0.4C191.9,98.9,191.8,99,191.7,99.1 M191.3,98.1c-0.5,0-0.9,0.4-0.9,0.8     c0,0.5,0.4,0.8,0.9,0.8c0.5,0,1-0.4,1-0.8C192.2,98.5,191.8,98.1,191.3,98.1 M191.3,100c-0.7,0-1.2-0.5-1.2-1.1     c0-0.6,0.5-1.1,1.2-1.1c0.7,0,1.2,0.5,1.2,1.1C192.5,99.6,191.9,100,191.3,100"/>
        <path class="st10" d="M170.8,85.1l0,13.6c0,1.2,1,2.2,2.3,2.2l0-13.6C173,86.1,172,85.1,170.8,85.1"/>
      </g>
      <path class="st10" d="M243.8,111.1H37.9V161c0,4.6,3.8,8.4,8.4,8.4h205.9v-49.9C252.1,114.9,248.4,111.1,243.8,111.1z"/>
      <g>
        <path class="st6" d="M119.6,153.6c-7.5,0-13.1-5.9-13.1-13.3c0-7.4,5.5-13.4,13.3-13.4c4.8,0,7.6,1.7,10.1,4l-2.9,3.4     c-2.1-1.9-4.3-3.2-7.2-3.2c-4.9,0-8.5,4.1-8.5,9.2c0,5.1,3.6,9.2,8.5,9.2c3.2,0,5.2-1.3,7.4-3.4l2.9,3     C127.4,151.8,124.4,153.6,119.6,153.6z"/>
        <path class="st6" d="M145.2,153.1h-4.6v-21.6h-8.2v-4.2h21v4.2h-8.2V153.1z"/>
        <path class="st6" d="M168.8,153.1h-4.6v-21.6H156v-4.2h21v4.2h-8.2V153.1z"/>
        <path class="st6" d="M184.1,131h4.2v7.1h7.1v4.1h-7.1v7.1h-4.2v-7.1H177v-4.1h7.1V131z"/>
      </g>
    </g>
  </g>
  <g id="a_x2B_">
    <g>
      <g>
        <g>
          <g>
            <g>
              <path class="st6" d="M145.5,49.8C92.8,49.8,50,92.6,50,145.2c0,26.5,10.6,51.1,29.8,69.3l1,1l1.1-1c2.8-2.6,5.7-4.9,8.7-7.1        c14.6,12.9,33.8,20.8,54.8,20.8c21,0,40.2-7.9,54.8-20.8c3,2.2,5.9,4.5,8.7,7.1l1.1,1l1-1c19.3-18.2,29.9-42.9,29.9-69.3        C240.9,92.6,198.1,49.8,145.5,49.8z"/>
              <g>
                <path class="st10" d="M121.6,91.8c-2.2,0-4,1.5-4,3.4c0,1.9,1.8,3.4,4,3.4c2.2,0,4-1.5,4-3.4         C125.6,93.3,123.8,91.8,121.6,91.8 M121.6,100.9c-3.5,0-6.3-2.5-6.3-5.7c0-3.2,2.8-5.7,6.3-5.7c3.5,0,6.3,2.5,6.3,5.7         C127.9,98.4,125.1,100.9,121.6,100.9"/>
                <path class="st10" d="M144.1,100.9c-1.3,0-2.3-1-2.3-2.3l0-4.7c0-1.1-1-2-2.2-2c-1.2,0-2.2,0.9-2.2,2l0,7         c-1.3,0-2.3-1-2.3-2.3l0-4.8c0-1.1-1-2-2.2-2c-1.2,0-2.2,0.9-2.2,2l0,4.7c0,1.3-1,2.3-2.3,2.3l0-7c0-2.4,2-4.3,4.5-4.3         c1.3,0,2.5,0.5,3.3,1.4c0.8-0.9,2-1.4,3.3-1.4c2.5,0,4.5,1.9,4.5,4.3L144.1,100.9z"/>
                <path class="st10" d="M151.5,100.9c-0.6,0-1.2,0-1.7-0.2c-1.2-0.3-1.9-1.6-1.6-2.8c0-0.1,0.1-0.3,0.1-0.4l0,0         c0.6,0.7,1.7,1.1,3.1,1.1c2.1,0,3.7-1.5,3.7-3.3c0-1.9-1.6-3.5-3.7-3.5c-2,0-4,1.1-4,3.5l0,7.4c0,1.2-1,2.2-2.3,2.2l0-9.6         c0-3.3,2.6-5.8,6.2-5.8c1.6,0,3.1,0.6,4.2,1.6c1.1,1.1,1.8,2.5,1.8,4.1C157.5,98.4,154.9,100.9,151.5,100.9"/>
                <path class="st10" d="M167.8,87.4l-4.9,0l0,13.5h-0.1c-1.2,0-2.2-1-2.2-2.3l0-11.2l-4.9,0c-1.2,0-2.2-1-2.2-2.3l16.6,0         C170,86.4,169,87.4,167.8,87.4"/>
                <path class="st10" d="M182.3,87.5l-3.2,7.1l6.1,0l-3.3-7.2L182.3,87.5z M187.3,99.5l-1.2-2.6l-8.1,0l-1.2,2.7         c-0.6,1.1-2.1,1.4-3.2,1.4l6.6-14.5c0.4-0.8,1-1.3,1.8-1.3c0.8,0,1.5,0.5,1.8,1.3l6.5,14.3         C189.2,100.9,187.8,100.5,187.3,99.5"/>
                <path class="st10" d="M112.7,89.4c-1.2-1.3-3-2.2-5-2.2c-3.5,0-6.4,2.6-6.4,5.7c0,3.2,2.9,5.8,6.4,5.8c1.7,0,3.3-0.6,4.5-1.7         c0.8-0.7,2.1-0.6,2.9,0c-0.6,1-1.5,1.8-2.5,2.4c-1.5,0.9-3.1,1.4-4.9,1.4c-4.8,0-8.7-3.6-8.7-8c0-4.4,3.9-8,8.7-8         c3.4,0,6.5,1.9,7.9,4.7C114.7,90.3,113.5,90.2,112.7,89.4"/>
                <path class="st10" d="M191.7,99.1c0,0-0.1,0-0.1,0c0,0,0.1,0.1,0.3,0.4l0,0c-0.1,0.1-0.2,0.1-0.3,0c-0.3-0.3-0.3-0.3-0.3-0.3         l-0.3,0v-0.1c0-0.1,0.1-0.2,0.2-0.2h0.1c0.1,0,0.2,0,0.2,0c0,0,0.1,0,0.1-0.1c0,0,0-0.1-0.3-0.1l-0.4,0v0.8         c0,0.1-0.1,0.2-0.2,0.2h-0.1v-1c0-0.1,0.1-0.2,0.2-0.2h0.5c0.5,0,0.6,0.3,0.6,0.4C191.9,98.9,191.8,99,191.7,99.1          M191.2,98.1c-0.5,0-0.9,0.4-0.9,0.8c0,0.5,0.4,0.8,0.9,0.8c0.5,0,1-0.4,1-0.8C192.2,98.5,191.8,98.1,191.2,98.1 M191.2,100         c-0.7,0-1.2-0.5-1.2-1.1c0-0.6,0.5-1.1,1.2-1.1c0.7,0,1.2,0.5,1.2,1.1C192.5,99.6,191.9,100,191.2,100"/>
                <path class="st10" d="M170.8,85.1l0,13.6c0,1.2,1,2.2,2.3,2.2l0-13.6C173,86.1,172,85.1,170.8,85.1"/>
              </g>
            </g>
          </g>
        </g>
        <g>
          <path class="st11" d="M145.5,49.8C92.8,49.8,50,92.6,50,145.2c0,26.5,10.6,51.1,29.8,69.3l1,1l1.1-1c2.8-2.6,5.7-4.9,8.7-7.1      c14.6,12.9,33.8,20.8,54.8,20.8c21,0,40.2-7.9,54.8-20.8c3,2.2,5.9,4.5,8.7,7.1l1.1,1l1-1c19.3-18.2,29.9-42.9,29.9-69.3      C240.9,92.6,198.1,49.8,145.5,49.8z M200,203.5c-13.7-9.3-29.5-15-46.1-16.4v-10.8h-3.1v17.2c0,1.2,0.4,2.4,1.1,3.3l4.4,5.7      c-0.6,0.8-0.9,1.7-0.9,2.8c0,2.6,2.1,4.7,4.7,4.7s4.7-2.1,4.7-4.7c0-2.6-2.1-4.7-4.7-4.7c-0.4,0-0.8,0.1-1.2,0.2l-4.5-5.9      c-0.3-0.4-0.5-0.9-0.5-1.4v-3.2c15.7,1.4,30.7,6.7,43.7,15.5c-14,12.1-32.3,19.5-52.2,19.5c-20,0-38.2-7.4-52.2-19.5      c12.7-8.5,27.3-13.8,42.6-15.4v3.1c0,0.5-0.2,1-0.5,1.4l-4.5,5.9c-0.4-0.1-0.8-0.2-1.2-0.2c-2.6,0-4.7,2.1-4.7,4.7      c0,2.6,2.1,4.7,4.7,4.7c2.6,0,4.7-2.1,4.7-4.7c0-1-0.4-2-0.9-2.8l4.4-5.7c0.7-0.9,1.1-2.1,1.1-3.3v-17.2h-3.1v10.9      c-16.2,1.6-31.6,7.2-45,16.3c-15.6-14.6-25.3-35.3-25.3-58.3c0-44.1,35.8-79.9,79.9-79.9s79.9,35.8,79.9,79.9      C225.4,168.2,215.6,188.9,200,203.5z M209.9,211.3c-2.4-2.1-4.8-4.1-7.4-6c15.9-15.1,25.9-36.5,25.9-60.1c0-45.8-37.2-83-83-83      s-83,37.2-83,83c0,23.6,9.9,45,25.8,60.1c-2.5,1.9-5,3.8-7.4,6c-17.9-17.5-27.8-40.9-27.8-66.1c0-50.9,41.4-92.4,92.4-92.4      s92.4,41.4,92.4,92.4C237.8,170.3,227.9,193.7,209.9,211.3z"/>
          <path class="st10" d="M243.8,111.1H37.9V161c0,4.6,3.8,8.4,8.4,8.4h205.9v-49.9C252.1,114.9,248.4,111.1,243.8,111.1z"/>
          <g>
            <path class="st6" d="M157.8,157.9h-6.6l-3.6-8.6h-16.8l-3.6,8.6h-6.4l15.6-35.7h5.8L157.8,157.9z M139.2,129.7l-6.1,14.2h12.2       L139.2,129.7z"/>
            <path class="st6" d="M168.1,127.7h5.8v9.7h9.7v5.6h-9.7v9.7h-5.8v-9.7h-9.7v-5.6h9.7V127.7z"/>
          </g>
          <path class="st11" d="M146.4,211.2v-35h-3.1v35c-1.8,0.6-3.1,2.4-3.1,4.4c0,2.6,2.1,4.7,4.7,4.7s4.7-2.1,4.7-4.7      C149.6,213.6,148.2,211.9,146.4,211.2z"/>
        </g>
      </g>
    </g>
    <path class="st11" d="M210.3,208.9c0,0-0.1,0-0.1,0c0,0,0.1,0.1,0.3,0.4l0,0c-0.1,0.1-0.2,0.1-0.3,0c-0.3-0.3-0.3-0.3-0.3-0.3h-0.3   v-0.1c0-0.1,0.1-0.2,0.2-0.2h0.1c0.1,0,0.2,0,0.2,0c0,0,0.1,0,0.1-0.1c0,0,0-0.1-0.3-0.1h-0.4v0.8c0,0.1-0.1,0.2-0.2,0.2h-0.1v-1   c0-0.1,0.1-0.2,0.2-0.2h0.5c0.5,0,0.6,0.3,0.6,0.4C210.5,208.7,210.4,208.8,210.3,208.9 M209.9,208c-0.5,0-0.9,0.4-0.9,0.8   c0,0.5,0.4,0.8,0.9,0.8c0.5,0,1-0.4,1-0.8C210.8,208.3,210.4,208,209.9,208 M209.9,209.9c-0.7,0-1.2-0.5-1.2-1.1   c0-0.6,0.5-1.1,1.2-1.1c0.7,0,1.2,0.5,1.2,1.1C211.1,209.4,210.5,209.9,209.9,209.9"/>
  </g>
  <g id="casp_x2B_" class="st0">
    <path class="st1" d="M145,49.8c-52.6,0-95.4,42.8-95.4,95.4c0,26.5,10.6,51.1,29.8,69.3l1,1l1.1-1c2.8-2.6,5.7-4.9,8.7-7.1   c14.6,12.9,33.8,20.8,54.8,20.8c21,0,40.2-7.9,54.8-20.8c3,2.2,5.9,4.5,8.7,7.1l1.1,1l1-1c19.3-18.2,29.9-42.9,29.9-69.3   C240.5,92.6,197.7,49.8,145,49.8z"/>
    <path class="st4" d="M145,49.8c-52.6,0-95.4,42.8-95.4,95.4c0,26.5,10.6,51.1,29.8,69.3l1,1l1.1-1c2.8-2.6,5.7-4.9,8.7-7.1   c14.6,12.9,33.8,20.8,54.8,20.8c21,0,40.2-7.9,54.8-20.8c3,2.2,5.9,4.5,8.7,7.1l1.1,1l1-1c19.3-18.2,29.9-42.9,29.9-69.3   C240.5,92.6,197.7,49.8,145,49.8z M145,225.1c-20,0-38.2-7.4-52.2-19.5c10.1-6.8,21.5-11.5,33.4-13.9v6.5c0,4.6,2.5,9,6.4,11.4   l12,7.2l12-7.2c4-2.4,6.4-6.7,6.4-11.4l0-6.6c12.2,2.4,23.8,7.2,34.2,14.1C183.2,217.8,165,225.1,145,225.1z M65.1,145.2   c0-44.1,35.8-79.9,79.9-79.9s79.9,35.8,79.9,79.9c0,23-9.8,43.7-25.3,58.3c-11-7.5-23.4-12.7-36.6-15.1l0-6.1l0-3.6l-1.1-0.3   c-0.2,0-3.9-1.1-11.4-1.6c-1.2-0.1-3.6-1.6-4.9-2.9l-1.1-1.1l-1.1,1.1c-1.1,1.1-3.6,2.8-4.9,2.9c-6.7,0.5-11.1,1.6-11.3,1.6   l-1.2,0.3v9.9c-12.8,2.5-25,7.6-35.8,15C74.9,188.9,65.1,168.2,65.1,145.2z M143.1,212.2l-8.9-5.3c-3-1.8-4.9-5.2-4.9-8.7v-17   c1.7-0.3,5.1-1,9.6-1.3c1.3-0.1,2.9-0.9,4.2-1.7V212.2z M146.2,178.1c1.3,0.8,2.8,1.6,4.2,1.7c4.8,0.3,8,0.8,9.6,1.2l0,1.3l0,15.9   c0,3.5-1.9,6.9-4.9,8.7l-8.9,5.3V178.1z M209.5,211.3c-2.4-2.1-4.8-4.1-7.4-6c15.9-15.1,25.9-36.5,25.9-60.1c0-45.8-37.2-83-83-83   c-45.8,0-83,37.2-83,83c0,23.6,9.9,44.9,25.8,60.1c-2.5,1.9-5,3.9-7.4,6c-17.9-17.5-27.8-40.9-27.8-66.1   c0-50.9,41.4-92.4,92.4-92.4s92.4,41.4,92.4,92.4C237.4,170.3,227.5,193.7,209.5,211.3z"/>
    <g class="st2">
      <path class="st10" d="M121.2,91.8c-2.2,0-4,1.5-4,3.4c0,1.9,1.8,3.4,4,3.4c2.2,0,4-1.5,4-3.4C125.2,93.3,123.4,91.8,121.2,91.8     M121.2,100.9c-3.5,0-6.3-2.5-6.3-5.7c0-3.2,2.8-5.7,6.3-5.7c3.5,0,6.3,2.5,6.3,5.7C127.5,98.4,124.7,100.9,121.2,100.9"/>
      <path class="st10" d="M143.6,100.9c-1.3,0-2.3-1-2.3-2.3l0-4.7c0-1.1-1-2-2.2-2c-1.2,0-2.2,0.9-2.2,2l0,7c-1.3,0-2.3-1-2.3-2.3    v-4.8c0-1.1-1-2-2.2-2c-1.2,0-2.2,0.9-2.2,2l0,4.7c0,1.3-1,2.3-2.3,2.3l0-7c0-2.4,2-4.3,4.5-4.3c1.3,0,2.5,0.5,3.3,1.4    c0.8-0.9,2-1.4,3.3-1.4c2.5,0,4.5,1.9,4.5,4.3L143.6,100.9z"/>
      <path class="st10" d="M151.1,100.9c-0.6,0-1.2,0-1.7-0.2c-1.2-0.3-1.9-1.6-1.6-2.8c0-0.1,0.1-0.3,0.1-0.4l0,0    c0.6,0.7,1.7,1.1,3.1,1.1c2.1,0,3.7-1.5,3.7-3.3c0-1.9-1.6-3.5-3.7-3.5c-2,0-4,1.1-4,3.5l0,7.4c0,1.2-1,2.2-2.3,2.2l0-9.6    c0-3.3,2.6-5.8,6.2-5.8c1.6,0,3.1,0.6,4.2,1.6c1.1,1.1,1.8,2.5,1.8,4.1C157.1,98.4,154.4,100.9,151.1,100.9"/>
      <path class="st10" d="M167.4,87.4l-4.9,0l0,13.5h-0.1c-1.2,0-2.2-1-2.2-2.3l0-11.2l-4.9,0c-1.2,0-2.2-1-2.2-2.3l16.6,0    C169.6,86.4,168.6,87.4,167.4,87.4"/>
      <path class="st10" d="M181.8,87.5l-3.2,7.1l6.1,0l-3.3-7.2L181.8,87.5z M186.9,99.5l-1.2-2.6l-8.1,0l-1.2,2.7    c-0.6,1.1-2.1,1.4-3.2,1.4l6.6-14.5c0.4-0.8,1-1.3,1.8-1.3c0.8,0,1.5,0.5,1.8,1.3l6.5,14.3C188.7,100.9,187.4,100.5,186.9,99.5"/>
      <path class="st10" d="M112.3,89.4c-1.2-1.3-3-2.2-5-2.2c-3.5,0-6.4,2.6-6.4,5.7c0,3.2,2.9,5.8,6.4,5.8c1.7,0,3.3-0.6,4.5-1.7    c0.8-0.7,2.1-0.6,2.9,0c-0.6,1-1.5,1.8-2.5,2.4c-1.5,0.9-3.1,1.4-4.9,1.4c-4.8,0-8.7-3.6-8.7-8c0-4.4,3.9-8,8.7-8    c3.4,0,6.5,1.9,7.9,4.7C114.3,90.3,113.1,90.2,112.3,89.4"/>
      <path class="st10" d="M191.3,99.1c0,0-0.1,0-0.1,0c0,0,0.1,0.1,0.3,0.4l0,0c-0.1,0.1-0.2,0.1-0.3,0c-0.3-0.3-0.3-0.3-0.3-0.3    l-0.3,0v-0.1c0-0.1,0.1-0.2,0.2-0.2h0.1c0.1,0,0.2,0,0.2,0c0,0,0.1,0,0.1-0.1c0,0,0-0.1-0.3-0.1l-0.4,0v0.8c0,0.1-0.1,0.2-0.2,0.2    h-0.1v-1c0-0.1,0.1-0.2,0.2-0.2l0.5,0c0.5,0,0.6,0.3,0.6,0.4C191.5,98.9,191.4,99,191.3,99.1 M190.8,98.1c-0.5,0-0.9,0.4-0.9,0.8    c0,0.5,0.4,0.8,0.9,0.8c0.5,0,1-0.4,1-0.8C191.8,98.5,191.4,98.1,190.8,98.1 M190.8,100c-0.7,0-1.2-0.5-1.2-1.1    c0-0.6,0.5-1.1,1.2-1.1c0.7,0,1.2,0.5,1.2,1.1C192,99.6,191.5,100,190.8,100"/>
      <path class="st10" d="M170.3,85.1l0,13.6c0,1.2,1,2.2,2.3,2.2l0-13.6C172.6,86.1,171.6,85.1,170.3,85.1"/>
    </g>
    <path class="st12" d="M243.8,111.1H37.9V161c0,4.6,3.8,8.4,8.4,8.4h205.9v-49.9C252.1,114.9,248.4,111.1,243.8,111.1z"/>
    <path class="st4" d="M209.9,208.9c0,0-0.1,0-0.1,0c0,0,0.1,0.1,0.3,0.4l0,0c-0.1,0.1-0.2,0.1-0.3,0c-0.3-0.3-0.3-0.3-0.3-0.3h-0.3   v-0.1c0-0.1,0.1-0.2,0.2-0.2h0.1c0.1,0,0.2,0,0.2,0c0,0,0.1,0,0.1-0.1c0,0,0-0.1-0.3-0.1h-0.4v0.8c0,0.1-0.1,0.2-0.2,0.2h-0.1l0-1   c0-0.1,0.1-0.2,0.2-0.2h0.5c0.5,0,0.6,0.3,0.6,0.4C210.1,208.7,210,208.8,209.9,208.9 M209.4,207.9c-0.5,0-0.9,0.4-0.9,0.8   c0,0.5,0.4,0.8,0.9,0.8c0.5,0,1-0.4,1-0.8C210.4,208.3,209.9,207.9,209.4,207.9 M209.4,209.8c-0.7,0-1.2-0.5-1.2-1.1   c0-0.6,0.5-1.1,1.2-1.1c0.7,0,1.2,0.5,1.2,1.1C210.6,209.4,210.1,209.8,209.4,209.8"/>
    <g class="st2">
      <path class="st6" d="M97.9,154.3c-7.9,0-13.8-6.2-13.8-14c0-7.8,5.8-14.1,14-14.1c5,0,8,1.8,10.7,4.2l-3.1,3.5    c-2.2-2-4.5-3.4-7.6-3.4c-5.2,0-9,4.3-9,9.6c0,5.4,3.8,9.7,9,9.7c3.3,0,5.5-1.4,7.8-3.5l3.1,3.1C106.1,152.5,103,154.3,97.9,154.3    z"/>
      <path class="st6" d="M137.7,153.9h-5.1l-2.8-6.6H117l-2.8,6.6h-4.9l12-27.4h4.4L137.7,153.9z M123.4,132.2l-4.7,10.9h9.4    L123.4,132.2z"/>
      <path class="st6" d="M150.8,138.1c5.8,1.4,8.8,3.5,8.8,8c0,5.1-4,8.2-9.7,8.2c-4.2,0-8.1-1.4-11.4-4.4l2.9-3.4    c2.6,2.3,5.2,3.5,8.6,3.5c3,0,4.8-1.4,4.8-3.5c0-2-1.1-3-6.1-4.2c-5.8-1.4-9.1-3.1-9.1-8.2c0-4.7,3.9-7.9,9.3-7.9    c4,0,7.1,1.2,9.9,3.4l-2.6,3.6c-2.5-1.8-4.9-2.8-7.4-2.8c-2.8,0-4.4,1.4-4.4,3.3C144.4,135.9,145.6,136.8,150.8,138.1z"/>
      <path class="st6" d="M172.8,145.1h-5.4v8.7h-4.8v-27.2h10.7c6.3,0,10.3,3.6,10.3,9.1C183.7,141.9,178.8,145.1,172.8,145.1z     M172.9,131h-5.6v9.8h5.6c3.6,0,5.9-2,5.9-4.9C178.8,132.7,176.5,131,172.9,131z"/>
      <g>
        <path class="st6" d="M193.9,142.4h-7.5v-4.4h7.5v-7.5h4.5v7.5h7.5v4.4h-7.5v7.5h-4.5V142.4z"/>
      </g>
    </g>
  </g>
  <g id="cloudess_x2B_" class="st0">
    <path class="st1" d="M145,49.5c-52.6,0-95.4,42.8-95.4,95.4c0,26.5,10.6,51.1,29.8,69.3l1,1l1.1-1c2.8-2.6,5.7-4.9,8.7-7.1   c14.6,12.9,33.8,20.8,54.8,20.8c21,0,40.2-7.9,54.8-20.8c3,2.2,5.9,4.5,8.6,7.1l1.1,1l1-1c19.3-18.2,29.9-42.9,29.9-69.3   C240.5,92.3,197.7,49.5,145,49.5z"/>
    <path class="st4" d="M145,49.5c-52.6,0-95.4,42.8-95.4,95.4c0,26.5,10.6,51.1,29.8,69.3l1,1l1.1-1c2.8-2.6,5.7-4.9,8.7-7.1   c14.6,12.9,33.8,20.8,54.8,20.8c21,0,40.2-7.9,54.8-20.8c3,2.2,5.9,4.5,8.6,7.1l1.1,1l1-1c19.3-18.2,29.9-42.9,29.9-69.3   C240.5,92.3,197.7,49.5,145,49.5z M145,224.8c-20,0-38.2-7.4-52.2-19.5c8.2-5.5,17.1-9.6,26.5-12.3c-0.1,0.6-0.2,1.1-0.2,1.7   c0,4.3,3.5,7.8,7.8,7.8H164c4.9,0,8.9-4,8.9-8.8c8.6,2.7,16.8,6.6,24.3,11.7C183.2,217.5,165,224.8,145,224.8z M65.1,144.9   C65.1,100.9,101,65,145,65s79.9,35.8,79.9,79.9c0,23-9.8,43.7-25.3,58.3c-8.4-5.8-17.6-10.1-27.3-13c-1.3-3.3-4.5-5.6-8.3-5.6h-2.5   v-0.4c0-6.4-5.2-11.6-11.6-11.6c-4.8,0-9.1,3-10.8,7.4h-3.2c-4.2,0-7.8,3-8.7,7h-0.3c-2.1,0-4.1,0.9-5.5,2.3   c-11,2.8-21.5,7.5-30.9,13.9C74.9,188.6,65.1,167.9,65.1,144.9z M126.8,190.1h3.1l0.1-1.5c0.2-3.1,2.7-5.5,5.8-5.5h5.5l0.3-1.1   c1-3.7,4.4-6.2,8.2-6.2c4.7,0,8.5,3.8,8.5,8.5v3.5h5.6c3.2,0,5.8,2.6,5.8,5.8c0,3.2-2.6,5.8-5.8,5.8h-37.1c-2.6,0-4.7-2.1-4.7-4.7   C122.2,192.2,124.3,190.1,126.8,190.1z M209.5,211c-2.4-2.1-4.8-4.1-7.4-5.9c15.9-15.1,25.9-36.5,25.9-60.1c0-45.8-37.2-83-83-83   s-83,37.2-83,83c0,23.6,9.9,44.9,25.8,60.1c-2.5,1.9-5,3.9-7.4,6c-17.9-17.5-27.8-40.9-27.8-66.1c0-50.9,41.4-92.4,92.4-92.4   s92.4,41.4,92.4,92.4C237.4,170,227.5,193.4,209.5,211z"/>
    <g class="st2">
      <path class="st10" d="M121.2,91.6c-2.2,0-4,1.5-4,3.4c0,1.9,1.8,3.4,4,3.4c2.2,0,4-1.5,4-3.4C125.2,93.1,123.4,91.6,121.2,91.6     M121.2,100.6c-3.5,0-6.3-2.5-6.3-5.7c0-3.2,2.8-5.7,6.3-5.7c3.5,0,6.3,2.5,6.3,5.7C127.5,98.1,124.7,100.6,121.2,100.6"/>
      <path class="st10" d="M143.6,100.6c-1.3,0-2.3-1-2.3-2.3v-4.7c0-1.1-1-2-2.2-2c-1.2,0-2.2,0.9-2.2,2l0,7c-1.3,0-2.3-1-2.3-2.3    l0-4.8c0-1.1-1-2-2.2-2c-1.2,0-2.2,0.9-2.2,2l0,4.7c0,1.3-1,2.3-2.3,2.3l0-7c0-2.4,2-4.3,4.5-4.3c1.3,0,2.5,0.5,3.3,1.4    c0.8-0.9,2-1.4,3.3-1.4c2.5,0,4.5,1.9,4.5,4.3L143.6,100.6z"/>
      <path class="st10" d="M151.1,100.6c-0.6,0-1.2,0-1.7-0.2c-1.2-0.3-1.9-1.6-1.6-2.8c0-0.1,0.1-0.3,0.1-0.4l0,0    c0.6,0.7,1.7,1.1,3.1,1.1c2.1,0,3.7-1.5,3.7-3.3c0-1.9-1.6-3.5-3.7-3.5c-2,0-4,1.1-4,3.5l0,7.4c0,1.2-1,2.2-2.3,2.2l0-9.6    c0-3.3,2.6-5.8,6.2-5.8c1.6,0,3.1,0.6,4.2,1.6c1.1,1.1,1.8,2.5,1.8,4.1C157.1,98.1,154.4,100.6,151.1,100.6"/>
      <path class="st10" d="M167.4,87.1l-4.9,0l0,13.5h-0.1c-1.2,0-2.2-1-2.2-2.3l0-11.2l-4.9,0c-1.2,0-2.2-1-2.2-2.3l16.6,0    C169.6,86.1,168.6,87.1,167.4,87.1"/>
      <path class="st10" d="M181.8,87.2l-3.2,7.1l6.1,0l-3.3-7.2L181.8,87.2z M186.9,99.2l-1.2-2.6l-8.1,0l-1.2,2.7    c-0.6,1.1-2.1,1.4-3.2,1.4l6.6-14.5c0.4-0.8,1-1.3,1.8-1.3c0.8,0,1.5,0.5,1.8,1.3l6.5,14.3C188.7,100.6,187.4,100.2,186.9,99.2"/>
      <path class="st10" d="M112.3,89.1c-1.2-1.3-3-2.2-5-2.2c-3.5,0-6.4,2.6-6.4,5.7c0,3.2,2.9,5.8,6.4,5.8c1.7,0,3.3-0.6,4.5-1.7    c0.8-0.7,2.1-0.6,2.9,0c-0.6,1-1.5,1.8-2.5,2.4c-1.5,0.9-3.1,1.4-4.9,1.4c-4.8,0-8.7-3.6-8.7-8c0-4.4,3.9-8,8.7-8    c3.4,0,6.5,1.9,7.9,4.7C114.3,90,113.1,89.9,112.3,89.1"/>
      <path class="st10" d="M191.3,98.8c0,0-0.1,0-0.1,0c0,0,0.1,0.1,0.3,0.4l0,0c-0.1,0.1-0.2,0.1-0.3,0c-0.3-0.3-0.3-0.3-0.3-0.3h-0.3    v-0.1c0-0.1,0.1-0.2,0.2-0.2h0.1c0.1,0,0.2,0,0.2,0c0,0,0.1,0,0.1-0.1c0,0,0-0.1-0.3-0.1h-0.4V99c0,0.1-0.1,0.2-0.2,0.2h-0.1v-1    c0-0.1,0.1-0.2,0.2-0.2h0.5c0.5,0,0.6,0.3,0.6,0.4C191.5,98.6,191.4,98.7,191.3,98.8 M190.8,97.8c-0.5,0-0.9,0.4-0.9,0.8    c0,0.5,0.4,0.8,0.9,0.8c0.5,0,1-0.4,1-0.8C191.8,98.2,191.4,97.8,190.8,97.8 M190.8,99.7c-0.7,0-1.2-0.5-1.2-1.1    c0-0.6,0.5-1.1,1.2-1.1c0.7,0,1.2,0.5,1.2,1.1C192,99.3,191.5,99.7,190.8,99.7"/>
      <path class="st10" d="M170.3,84.8l0,13.6c0,1.2,1,2.2,2.3,2.2l0-13.6C172.6,85.8,171.6,84.8,170.3,84.8"/>
    </g>
    <path class="st12" d="M243.8,110.8H37.9v49.9c0,4.6,3.8,8.4,8.4,8.4h205.9v-49.9C252.1,114.6,248.4,110.8,243.8,110.8z"/>
    <path class="st4" d="M209.9,208.6c0,0-0.1,0-0.1,0c0,0,0.1,0.1,0.3,0.4l0,0c-0.1,0.1-0.2,0.1-0.3,0c-0.3-0.3-0.3-0.3-0.3-0.3h-0.3   v-0.1c0-0.1,0.1-0.2,0.2-0.2h0.1c0.1,0,0.2,0,0.2,0c0,0,0.1,0,0.1-0.1c0,0,0-0.1-0.3-0.1h-0.4v0.8c0,0.1-0.1,0.2-0.2,0.2h-0.1v-1   c0-0.1,0.1-0.2,0.2-0.2h0.5c0.5,0,0.6,0.3,0.6,0.4C210.1,208.4,210,208.5,209.9,208.6 M209.4,207.6c-0.5,0-0.9,0.4-0.9,0.8   c0,0.5,0.4,0.8,0.9,0.8c0.5,0,1-0.4,1-0.8C210.4,208,209.9,207.6,209.4,207.6 M209.4,209.5c-0.7,0-1.2-0.5-1.2-1.1   c0-0.6,0.5-1.1,1.2-1.1c0.7,0,1.2,0.5,1.2,1.1C210.6,209.1,210.1,209.5,209.4,209.5"/>
    <g class="st2">
      <g>
        <path class="st6" d="M118.9,137.4c-5.3,0-9.3-4.1-9.3-9.4c0-5.2,3.9-9.4,9.4-9.4c3.4,0,5.4,1.2,7.1,2.8l-2.1,2.4     c-1.5-1.4-3-2.3-5.1-2.3c-3.5,0-6,2.9-6,6.4c0,3.6,2.5,6.5,6,6.5c2.2,0,3.7-0.9,5.2-2.4l2.1,2.1     C124.4,136.2,122.3,137.4,118.9,137.4z"/>
        <path class="st6" d="M128.5,137.1v-19h3.1v19H128.5z"/>
        <path class="st6" d="M141.5,137.4c-4.2,0-7.3-3.2-7.3-7.1c0-4,3.1-7.2,7.3-7.2c4.2,0,7.3,3.2,7.3,7.1     C148.9,134.2,145.7,137.4,141.5,137.4z M141.5,125.9c-2.5,0-4.1,2-4.1,4.4c0,2.4,1.7,4.4,4.2,4.4c2.5,0,4.2-2,4.2-4.4     C145.7,127.9,144,125.9,141.5,125.9z"/>
        <path class="st6" d="M160.4,123.4h3.1v13.7h-3.1V135c-0.9,1.3-2.2,2.4-4.3,2.4c-3.1,0-4.9-2.1-4.9-5.3v-8.7h3.1v7.8     c0,2.1,1.1,3.4,2.9,3.4c1.8,0,3.1-1.3,3.1-3.4V123.4z"/>
        <path class="st6" d="M177.2,137.1v-2.3c-1,1.4-2.4,2.6-4.7,2.6c-3.2,0-6.4-2.6-6.4-7.1c0-4.6,3.1-7.1,6.4-7.1     c2.3,0,3.7,1.1,4.7,2.4v-7.4h3.1v19H177.2z M173.3,125.8c-2.2,0-4,1.7-4,4.4c0,2.7,1.8,4.4,4,4.4c2.1,0,4-1.7,4-4.4     C177.3,127.6,175.4,125.8,173.3,125.8z"/>
      </g>
      <g>
        <path class="st6" d="M91.2,145H80.9v4.7H90v2.9h-9.1v4.9h10.4v2.9H77.7v-18.2h13.5V145z"/>
        <path class="st6" d="M99,160.6c-1.9,0-4.1-0.7-5.8-2.1l1.4-2.1c1.5,1.1,3.1,1.7,4.5,1.7c1.4,0,2.1-0.6,2.1-1.5v-0.1     c0-1.1-1.5-1.4-3.1-1.9c-2-0.6-4.3-1.4-4.3-4v-0.1c0-2.6,2.2-4.2,4.9-4.2c1.7,0,3.6,0.6,5,1.6l-1.2,2.2c-1.3-0.8-2.7-1.3-3.9-1.3     c-1.2,0-1.9,0.6-1.9,1.4v0.1c0,1,1.5,1.4,3.1,1.9c2,0.6,4.3,1.5,4.3,4v0.1C104.1,159.2,101.8,160.6,99,160.6z"/>
        <path class="st6" d="M111.3,160.6c-1.9,0-4.1-0.7-5.8-2.1l1.4-2.1c1.5,1.1,3.1,1.7,4.5,1.7c1.4,0,2.1-0.6,2.1-1.5v-0.1     c0-1.1-1.5-1.4-3.1-1.9c-2-0.6-4.3-1.4-4.3-4v-0.1c0-2.6,2.2-4.2,4.9-4.2c1.7,0,3.6,0.6,5,1.6l-1.2,2.2c-1.3-0.8-2.7-1.3-3.9-1.3     c-1.2,0-1.9,0.6-1.9,1.4v0.1c0,1,1.5,1.4,3.1,1.9c2,0.6,4.3,1.5,4.3,4v0.1C116.4,159.2,114.1,160.6,111.3,160.6z"/>
        <path class="st6" d="M125.1,158.1c1.5,0,2.6-0.6,3.7-1.6l1.8,1.6c-1.3,1.6-3.1,2.6-5.6,2.6c-4,0-7-2.9-7-7.1c0-4,2.8-7.2,6.7-7.2     c4.4,0,6.6,3.4,6.6,7.4c0,0.3,0,0.5-0.1,0.9h-10.1C121.5,156.9,123.1,158.1,125.1,158.1z M128.2,152.5c-0.2-2-1.4-3.6-3.5-3.6     c-1.9,0-3.3,1.5-3.6,3.6H128.2z"/>
        <path class="st6" d="M137,160.4h-3.1v-13.7h3.1v2.1c0.9-1.3,2.2-2.4,4.3-2.4c3.1,0,4.9,2.1,4.9,5.3v8.7H143v-7.8     c0-2.1-1.1-3.4-2.9-3.4c-1.8,0-3.1,1.3-3.1,3.4V160.4z"/>
        <path class="st6" d="M152.9,156.1c0,1.2,0.6,1.7,1.7,1.7c0.7,0,1.3-0.2,1.9-0.5v2.6c-0.8,0.4-1.7,0.7-2.8,0.7c-2.3,0-3.9-1-3.9-4     v-7.2H148v-2.7h1.7v-3.8h3.1v3.8h3.7v2.7h-3.7V156.1z"/>
        <path class="st6" d="M158.9,144.5v-3h3.4v3H158.9z M159,160.4v-13.7h3.1v13.7H159z"/>
        <path class="st6" d="M173.9,160.4v-1.7c-0.9,1.1-2.4,2-4.4,2c-2.6,0-4.9-1.5-4.9-4.2v-0.1c0-3,2.4-4.4,5.6-4.4     c1.7,0,2.7,0.2,3.8,0.6v-0.3c0-1.9-1.2-2.9-3.4-2.9c-1.5,0-2.7,0.3-3.9,0.9l-0.9-2.5c1.5-0.7,3-1.1,5.2-1.1c4.1,0,6,2.1,6,5.8     v8.1H173.9z M174,154.5c-0.8-0.3-1.9-0.5-3.1-0.5c-2,0-3.1,0.8-3.1,2.2v0.1c0,1.3,1.2,2,2.7,2c2.1,0,3.6-1.2,3.6-2.9V154.5z"/>
        <path class="st6" d="M180.3,160.4v-19h3.1v19H180.3z"/>
        <path class="st6" d="M191.5,160.6c-1.9,0-4.1-0.7-5.8-2.1l1.4-2.1c1.5,1.1,3.1,1.7,4.5,1.7c1.4,0,2.1-0.6,2.1-1.5v-0.1     c0-1.1-1.5-1.4-3.1-1.9c-2-0.6-4.3-1.4-4.3-4v-0.1c0-2.6,2.2-4.2,4.9-4.2c1.7,0,3.6,0.6,5,1.6l-1.2,2.2c-1.3-0.8-2.7-1.3-3.9-1.3     c-1.2,0-1.9,0.6-1.9,1.4v0.1c0,1,1.5,1.4,3.1,1.9c2,0.6,4.3,1.5,4.3,4v0.1C196.6,159.2,194.4,160.6,191.5,160.6z"/>
        <path class="st6" d="M204.1,146.9h3v5.1h5.1v2.9h-5.1v5.1h-3v-5.1H199V152h5.1V146.9z"/>
      </g>
    </g>
  </g>
  <g id="cloud_x2B_" class="st0">
    <g class="st2">
      <g>
        <path class="st6" d="M145,49.8c-52.6,0-95.4,42.8-95.4,95.4c0,26.5,10.6,51.1,29.8,69.3l1,1l1.1-1c2.8-2.6,5.7-4.9,8.7-7.1     c14.6,12.9,33.8,20.8,54.8,20.8c21,0,40.2-7.9,54.8-20.8c3,2.2,5.9,4.5,8.7,7.1l1.1,1l1-1c19.3-18.2,29.9-42.9,29.9-69.3     C240.5,92.6,197.7,49.8,145,49.8z"/>
        <path class="st11" d="M145,49.8c-52.6,0-95.4,42.8-95.4,95.4c0,26.5,10.6,51.1,29.8,69.3l1,1l1.1-1c2.8-2.6,5.7-4.9,8.7-7.1     c14.6,12.9,33.8,20.8,54.8,20.8c21,0,40.2-7.9,54.8-20.8c3,2.2,5.9,4.5,8.7,7.1l1.1,1l1-1c19.3-18.2,29.9-42.9,29.9-69.3     C240.5,92.6,197.7,49.8,145,49.8z M145,225.1c-20,0-38.2-7.4-52.2-19.5c6.7-4.5,13.9-8,21.4-10.7c0.3,3.7,3.4,6.7,7.2,6.7h5.5     c-0.7,1.1-1.2,2.4-1.2,3.9c0,3.8,3.1,6.9,6.9,6.9h31c4.5,0,11.8-3,11.8-11.1c0-3.3-1.1-5.7-2.6-7.4c8.6,2.7,16.8,6.6,24.4,11.7     C183.2,217.8,165,225.1,145,225.1z M65.1,145.2c0-44.1,35.8-79.9,79.9-79.9s79.9,35.8,79.9,79.9c0,23-9.8,43.7-25.3,58.3     c-11.1-7.6-23.7-12.8-37-15.2c-1.7-2.4-4.7-3.7-8.6-3.7c-0.1,0-0.2,0-0.4,0c0-6-4.9-10.8-10.9-10.8c-4.5,0-8.5,2.8-10.1,6.8h-2.9     c-3.9,0-7.3,2.7-8.1,6.5h-0.2c-3,0-5.6,1.8-6.7,4.5c-8.6,2.8-16.8,6.9-24.3,12C74.9,188.9,65.1,168.2,65.1,145.2z M150.6,185.1     c-2.8,0.9-5,2.9-5.8,5.4c-0.3,0.8,0.2,1.7,1,1.9s1.7-0.2,1.9-1c0.7-2.3,3.3-3.8,6.3-3.8c4.4,0,7.1,2.2,7.1,5.8     c-0.1,2.8-2.4,5.1-5.3,5.1h-34.4c-2.3,0-4.2-1.9-4.2-4.2s1.9-4.2,4.2-4.2h3l0.1-1.5c0.1-2.8,2.5-5,5.3-5h5.2l0.3-1.1     c0.9-3.4,4-5.7,7.5-5.7c4.3,0,7.8,3.5,7.8,7.8V185.1z M132.7,201.6C132.7,201.6,132.7,201.6,132.7,201.6l23.2,0     c4.5,0,8.1-3.5,8.3-8c0,0,0-0.1,0-0.1c0-0.1,0-0.1,0-0.2c0,0,0-0.1,0-0.1h0c0,0,0,0,0,0h0.9c1.4,0,7.3,1.4,7.3,8.1     c0,6.6-6.3,8-8.7,8h-31c-2.1,0-3.9-1.7-3.9-3.9S130.6,201.6,132.7,201.6z M209.5,211.3c-2.4-2.1-4.8-4.1-7.4-6     c15.9-15.1,25.9-36.5,25.9-60.1c0-45.8-37.2-83-83-83c-45.8,0-83,37.2-83,83c0,23.6,9.9,45,25.8,60.1c-2.5,1.9-5,3.8-7.4,6     c-17.9-17.5-27.8-40.9-27.8-66.1c0-50.9,41.4-92.4,92.4-92.4s92.4,41.4,92.4,92.4C237.4,170.3,227.5,193.7,209.5,211.3z"/>
        <g>
          <g>
            <path class="st10" d="M121.2,91.8c-2.2,0-4,1.5-4,3.4c0,1.9,1.8,3.4,4,3.4c2.2,0,4-1.5,4-3.4C125.2,93.3,123.4,91.8,121.2,91.8        M121.2,100.9c-3.5,0-6.3-2.5-6.3-5.7c0-3.2,2.8-5.7,6.3-5.7c3.5,0,6.3,2.5,6.3,5.7C127.5,98.4,124.7,100.9,121.2,100.9"/>
            <path class="st10" d="M143.6,100.9c-1.3,0-2.3-1-2.3-2.3l0-4.7c0-1.1-1-2-2.2-2c-1.2,0-2.2,0.9-2.2,2l0,7c-1.3,0-2.3-1-2.3-2.3       l0-4.8c0-1.1-1-2-2.2-2c-1.2,0-2.2,0.9-2.2,2l0,4.7c0,1.3-1,2.3-2.3,2.3l0-7c0-2.4,2-4.3,4.5-4.3c1.3,0,2.5,0.5,3.3,1.4       c0.8-0.9,2-1.4,3.3-1.4c2.5,0,4.5,1.9,4.5,4.3L143.6,100.9z"/>
            <path class="st10" d="M151.1,100.9c-0.6,0-1.2,0-1.7-0.2c-1.2-0.3-1.9-1.6-1.6-2.8c0-0.1,0.1-0.3,0.1-0.4l0,0       c0.6,0.7,1.7,1.1,3.1,1.1c2.1,0,3.7-1.5,3.7-3.3c0-1.9-1.6-3.5-3.7-3.5c-2,0-4,1.1-4,3.5l0,7.4c0,1.2-1,2.2-2.3,2.2l0-9.6       c0-3.3,2.6-5.8,6.2-5.8c1.6,0,3.1,0.6,4.2,1.6c1.1,1.1,1.8,2.5,1.8,4.1C157.1,98.4,154.4,100.9,151.1,100.9"/>
            <path class="st10" d="M167.4,87.4l-4.9,0l0,13.5l-0.1,0c-1.2,0-2.2-1-2.2-2.3l0-11.2l-4.9,0c-1.2,0-2.2-1-2.2-2.3l16.6,0       C169.6,86.4,168.6,87.4,167.4,87.4"/>
            <path class="st10" d="M181.8,87.5l-3.2,7.1l6.1,0l-3.3-7.2L181.8,87.5z M186.9,99.5l-1.2-2.6l-8.1,0l-1.2,2.7       c-0.6,1.1-2.1,1.4-3.2,1.4l6.6-14.5c0.4-0.8,1-1.3,1.8-1.3c0.8,0,1.5,0.5,1.8,1.3l6.5,14.3C188.7,100.9,187.4,100.5,186.9,99.5       "/>
            <path class="st10" d="M112.3,89.4c-1.2-1.3-3-2.2-5-2.2c-3.5,0-6.4,2.6-6.4,5.7c0,3.2,2.9,5.8,6.4,5.8c1.7,0,3.3-0.6,4.5-1.7       c0.8-0.7,2.1-0.6,2.9,0c-0.6,1-1.5,1.8-2.5,2.4c-1.5,0.9-3.1,1.4-4.9,1.4c-4.8,0-8.7-3.6-8.7-8c0-4.4,3.9-8,8.7-8       c3.4,0,6.5,1.9,7.9,4.7C114.3,90.3,113.1,90.2,112.3,89.4"/>
            <path class="st10" d="M191.3,99.1c0,0-0.1,0-0.1,0c0,0,0.1,0.1,0.3,0.4l0,0c-0.1,0.1-0.2,0.1-0.3,0c-0.3-0.3-0.3-0.3-0.3-0.3       h-0.3v-0.1c0-0.1,0.1-0.2,0.2-0.2h0.1c0.1,0,0.2,0,0.2,0c0,0,0.1,0,0.1-0.1c0,0,0-0.1-0.3-0.1h-0.4v0.8c0,0.1-0.1,0.2-0.2,0.2       h-0.1v-1c0-0.1,0.1-0.2,0.2-0.2h0.5c0.5,0,0.6,0.3,0.6,0.4C191.5,98.9,191.4,99,191.3,99.1 M190.8,98.1c-0.5,0-0.9,0.4-0.9,0.8       c0,0.5,0.4,0.8,0.9,0.8c0.5,0,1-0.4,1-0.8C191.8,98.5,191.4,98.1,190.8,98.1 M190.8,100c-0.7,0-1.2-0.5-1.2-1.1       c0-0.6,0.5-1.1,1.2-1.1c0.7,0,1.2,0.5,1.2,1.1C192,99.6,191.5,100,190.8,100"/>
            <path class="st10" d="M170.3,85.1l0,13.6c0,1.2,1,2.2,2.3,2.2l0-13.6C172.6,86.1,171.6,85.1,170.3,85.1"/>
          </g>
          <path class="st10" d="M243.8,111.1H37.9V161c0,4.6,3.8,8.4,8.4,8.4h205.9v-49.9C252.1,114.9,248.4,111.1,243.8,111.1z"/>
        </g>
        <g>
          <g>
            <path class="st6" d="M99.1,153c-7.5,0-13.1-5.9-13.1-13.3c0-7.4,5.5-13.4,13.3-13.4c4.8,0,7.6,1.7,10.1,4l-2.9,3.4       c-2.1-1.9-4.3-3.2-7.2-3.2c-4.9,0-8.5,4.1-8.5,9.2c0,5.1,3.6,9.2,8.5,9.2c3.2,0,5.2-1.3,7.4-3.4l2.9,3       C106.8,151.2,103.9,153,99.1,153z"/>
            <path class="st6" d="M112.6,152.6v-27h4.5v27H112.6z"/>
            <path class="st6" d="M131,153c-5.9,0-10.3-4.5-10.3-10.1c0-5.6,4.4-10.2,10.4-10.2c6,0,10.4,4.5,10.4,10.2       C141.4,148.4,137,153,131,153z M131,136.6c-3.6,0-5.9,2.8-5.9,6.2c0,3.5,2.5,6.3,5.9,6.3c3.6,0,5.9-2.8,5.9-6.2       C137,139.4,134.5,136.6,131,136.6z"/>
            <path class="st6" d="M157.7,133.1h4.5v19.5h-4.5v-3c-1.3,1.8-3.1,3.4-6.1,3.4c-4.4,0-6.9-3-6.9-7.5v-12.4h4.5v11.1       c0,3,1.5,4.8,4.2,4.8c2.6,0,4.4-1.8,4.4-4.8V133.1z"/>
            <path class="st6" d="M181.5,152.6v-3.2c-1.4,2-3.5,3.7-6.6,3.7c-4.6,0-9-3.7-9-10.2s4.4-10.2,9-10.2c3.2,0,5.2,1.6,6.6,3.4       v-10.5h4.5v27H181.5z M175.9,136.5c-3.1,0-5.6,2.4-5.6,6.3c0,3.8,2.6,6.3,5.6,6.3c3,0,5.6-2.5,5.6-6.3       C181.6,139,178.9,136.5,175.9,136.5z"/>
            <path class="st6" d="M197.1,130.5h4.2v7.1h7.1v4.1h-7.1v7.1h-4.2v-7.1H190v-4.1h7.1V130.5z"/>
          </g>
        </g>
      </g>
    </g>
    <path class="st4" d="M209.9,209c0,0-0.1,0-0.1,0c0,0,0.1,0.1,0.3,0.4l0,0c-0.1,0.1-0.2,0.1-0.3,0c-0.3-0.3-0.3-0.3-0.3-0.3h-0.3   V209c0-0.1,0.1-0.2,0.2-0.2h0.1c0.1,0,0.2,0,0.2,0c0,0,0.1,0,0.1-0.1c0,0,0-0.1-0.3-0.1h-0.4v0.8c0,0.1-0.1,0.2-0.2,0.2h-0.1v-1   c0-0.1,0.1-0.2,0.2-0.2h0.5c0.5,0,0.6,0.3,0.6,0.4C210.1,208.8,210,208.9,209.9,209 M209.4,208.1c-0.5,0-0.9,0.4-0.9,0.8   c0,0.5,0.4,0.8,0.9,0.8c0.5,0,1-0.4,1-0.8C210.4,208.5,209.9,208.1,209.4,208.1 M209.4,210c-0.7,0-1.2-0.5-1.2-1.1   c0-0.6,0.5-1.1,1.2-1.1c0.7,0,1.2,0.5,1.2,1.1C210.6,209.5,210.1,210,209.4,210"/>
  </g>
  <g id="cysa_x2B_" class="st0">
    <g class="st2">
      <g>
        <g>
          <g>
            <path class="st6" d="M145.5,49.8C92.8,49.8,50,92.6,50,145.2c0,26.5,10.6,51.1,29.8,69.3l1,1l1.1-1c2.8-2.6,5.7-4.9,8.7-7.1       c14.6,12.9,33.8,20.8,54.8,20.8c21,0,40.2-7.9,54.8-20.8c3,2.2,5.9,4.5,8.7,7.1l1.1,1l1-1c19.3-18.2,29.9-42.9,29.9-69.3       C240.9,92.6,198.1,49.8,145.5,49.8z"/>
            <g>
              <path class="st10" d="M121.6,91.8c-2.2,0-4,1.5-4,3.4c0,1.9,1.8,3.4,4,3.4c2.2,0,4-1.5,4-3.4        C125.6,93.3,123.8,91.8,121.6,91.8 M121.6,100.9c-3.5,0-6.3-2.5-6.3-5.7c0-3.2,2.8-5.7,6.3-5.7c3.5,0,6.3,2.5,6.3,5.7        C127.9,98.4,125.1,100.9,121.6,100.9"/>
              <path class="st10" d="M144.1,100.9c-1.3,0-2.3-1-2.3-2.3l0-4.7c0-1.1-1-2-2.2-2c-1.2,0-2.2,0.9-2.2,2l0,7        c-1.3,0-2.3-1-2.3-2.3l0-4.8c0-1.1-1-2-2.2-2c-1.2,0-2.2,0.9-2.2,2l0,4.7c0,1.3-1,2.3-2.3,2.3l0-7c0-2.4,2-4.3,4.5-4.3        c1.3,0,2.5,0.5,3.3,1.4c0.8-0.9,2-1.4,3.3-1.4c2.5,0,4.5,1.9,4.5,4.3L144.1,100.9z"/>
              <path class="st10" d="M151.5,100.9c-0.6,0-1.2,0-1.7-0.2c-1.2-0.3-1.9-1.6-1.6-2.8c0-0.1,0.1-0.3,0.1-0.4l0,0        c0.6,0.7,1.7,1.1,3.1,1.1c2.1,0,3.7-1.5,3.7-3.3c0-1.9-1.6-3.5-3.7-3.5c-2,0-4,1.1-4,3.5l0,7.4c0,1.2-1,2.2-2.3,2.2l0-9.6        c0-3.3,2.6-5.8,6.2-5.8c1.6,0,3.1,0.6,4.2,1.6c1.1,1.1,1.8,2.5,1.8,4.1C157.5,98.4,154.9,100.9,151.5,100.9"/>
              <path class="st10" d="M167.8,87.4l-4.9,0l0,13.5h-0.1c-1.2,0-2.2-1-2.2-2.3l0-11.2l-4.9,0c-1.2,0-2.2-1-2.2-2.3l16.6,0        C170,86.4,169,87.4,167.8,87.4"/>
              <path class="st10" d="M182.3,87.5l-3.2,7.1l6.1,0l-3.3-7.2L182.3,87.5z M187.3,99.5l-1.2-2.6l-8.1,0l-1.2,2.7        c-0.6,1.1-2.1,1.4-3.2,1.4l6.6-14.5c0.4-0.8,1-1.3,1.8-1.3c0.8,0,1.5,0.5,1.8,1.3l6.5,14.3        C189.2,100.9,187.8,100.5,187.3,99.5"/>
              <path class="st10" d="M112.7,89.4c-1.2-1.3-3-2.2-5-2.2c-3.5,0-6.4,2.6-6.4,5.7c0,3.2,2.9,5.8,6.4,5.8c1.7,0,3.3-0.6,4.5-1.7        c0.8-0.7,2.1-0.6,2.9,0c-0.6,1-1.5,1.8-2.5,2.4c-1.5,0.9-3.1,1.4-4.9,1.4c-4.8,0-8.7-3.6-8.7-8c0-4.4,3.9-8,8.7-8        c3.4,0,6.5,1.9,7.9,4.7C114.7,90.3,113.5,90.2,112.7,89.4"/>
              <path class="st10" d="M191.7,99.1c0,0-0.1,0-0.1,0c0,0,0.1,0.1,0.3,0.4l0,0c-0.1,0.1-0.2,0.1-0.3,0c-0.3-0.3-0.3-0.3-0.3-0.3        H191v-0.1c0-0.1,0.1-0.2,0.2-0.2h0.1c0.1,0,0.2,0,0.2,0c0,0,0.1,0,0.1-0.1c0,0,0-0.1-0.3-0.1h-0.4v0.8c0,0.1-0.1,0.2-0.2,0.2        h-0.1v-1c0-0.1,0.1-0.2,0.2-0.2h0.5c0.5,0,0.6,0.3,0.6,0.4C191.9,98.9,191.8,99,191.7,99.1 M191.2,98.1        c-0.5,0-0.9,0.4-0.9,0.8c0,0.5,0.4,0.8,0.9,0.8c0.5,0,1-0.4,1-0.8C192.2,98.5,191.8,98.1,191.2,98.1 M191.2,100        c-0.7,0-1.2-0.5-1.2-1.1c0-0.6,0.5-1.1,1.2-1.1c0.7,0,1.2,0.5,1.2,1.1C192.5,99.6,191.9,100,191.2,100"/>
              <path class="st10" d="M170.8,85.1l0,13.6c0,1.2,1,2.2,2.3,2.2l0-13.6C173,86.1,172,85.1,170.8,85.1"/>
            </g>
          </g>
        </g>
      </g>
      <path class="st11" d="M210.3,209.1c0,0-0.1,0-0.1,0c0,0,0.1,0.1,0.3,0.4l0,0c-0.1,0.1-0.2,0.1-0.3,0c-0.3-0.3-0.3-0.3-0.3-0.3    h-0.3v-0.1c0-0.1,0.1-0.2,0.2-0.2h0.1c0.1,0,0.2,0,0.2,0c0,0,0.1,0,0.1-0.1c0,0,0-0.1-0.3-0.1h-0.4v0.8c0,0.1-0.1,0.2-0.2,0.2    h-0.1v-1c0-0.1,0.1-0.2,0.2-0.2h0.5c0.5,0,0.6,0.3,0.6,0.4C210.5,208.9,210.4,209,210.3,209.1 M209.9,208.2    c-0.5,0-0.9,0.4-0.9,0.8c0,0.5,0.4,0.8,0.9,0.8c0.5,0,1-0.4,1-0.8C210.8,208.6,210.4,208.2,209.9,208.2 M209.9,210.1    c-0.7,0-1.2-0.5-1.2-1.1c0-0.6,0.5-1.1,1.2-1.1c0.7,0,1.2,0.5,1.2,1.1C211.1,209.6,210.5,210.1,209.9,210.1"/>
      <path class="st11" d="M145.5,49.8C92.8,49.8,50,92.6,50,145.2c0,26.5,10.6,51.1,29.8,69.3l1,1l1.1-1c2.8-2.6,5.7-4.9,8.7-7.1    c14.6,12.9,33.8,20.8,54.8,20.8c21,0,40.2-7.9,54.8-20.8c3,2.2,5.9,4.5,8.7,7.1l1.1,1l1-1c19.3-18.2,29.9-42.9,29.9-69.3    C240.9,92.6,198.1,49.8,145.5,49.8z M145.5,225.1c-20,0-38.2-7.4-52.2-19.5c9-6.1,19-10.5,29.5-13.1l3.8-0.9v10.1    c0,3.7,1.8,7.2,4.8,9.3l13.9,9.7l13.8-9.7c3-2.1,4.8-5.6,4.8-9.2v-10.2l3.3,0.8c10.8,2.6,21.1,7.1,30.4,13.3    C183.6,217.8,165.4,225.1,145.5,225.1z M141.9,204.9c1.4,0.8,3,1.2,4.8,1.2c5.7,0,10.4-4.7,10.4-10.4c0-5.7-4.7-10.4-10.4-10.4    c-5.7,0-10.4,4.7-10.4,10.4c0,2.9,1.2,5.6,3.2,7.5l-4.7,6.6l-1.3-0.9c-2.2-1.6-3.6-4.1-3.6-6.8v-19.7h4.3c4,0,7.9-1.1,11.3-3.1    l0.1,0l0.8,0.4c3.2,1.7,6.9,2.7,10.6,2.7h4.2V202c0,2.7-1.3,5.2-3.5,6.8l-12.1,8.5l-8.4-5.8L141.9,204.9z M139.2,195.7    c0-4.1,3.3-7.4,7.4-7.4c4.1,0,7.4,3.3,7.4,7.4c0,4.1-3.3,7.4-7.4,7.4C142.6,203.1,139.2,199.7,139.2,195.7z M200,203.5    c-10-6.8-21.1-11.7-32.8-14.4l-3.3-0.7v-9.4h-7.2c-3.2,0-6.4-0.8-9.2-2.3l-2.3-1.2l-1.5,0.9c-3,1.7-6.4,2.7-9.8,2.7h-7.3v9.5    l-3.8,0.8c-11.4,2.7-22.2,7.5-31.9,14.1c-15.6-14.6-25.3-35.3-25.3-58.3c0-44.1,35.8-79.9,79.9-79.9c44.1,0,79.9,35.8,79.9,79.9    C225.4,168.2,215.6,188.9,200,203.5z M209.9,211.3c-2.4-2.1-4.8-4.1-7.4-6c15.9-15.1,25.9-36.5,25.9-60.1c0-45.8-37.2-83-83-83    c-45.8,0-83,37.2-83,83c0,23.6,9.9,45,25.8,60.1c-2.5,1.9-5,3.8-7.4,6c-17.9-17.5-27.8-40.9-27.8-66.1c0-50.9,41.4-92.4,92.4-92.4    s92.4,41.4,92.4,92.4C237.8,170.3,227.9,193.7,209.9,211.3z"/>
      <path class="st10" d="M243.8,111.1H37.9V161c0,4.6,3.8,8.4,8.4,8.4h205.9v-49.9C252.1,114.9,248.4,111.1,243.8,111.1z"/>
    </g>
    <g class="st2">
      <path class="st6" d="M83.8,139.1L83.8,139.1c0-8.2,6.1-14.9,14.8-14.9c5.3,0,8.5,1.8,11.2,4.5l-3.2,3.7c-2.3-2.1-4.7-3.6-8-3.6    c-5.4,0-9.5,4.5-9.5,10.1v0.1c0,5.6,4,10.1,9.5,10.1c3.5,0,5.8-1.4,8.2-3.7l3.2,3.3c-3,3.1-6.3,5.1-11.6,5.1    C90,153.9,83.8,147.4,83.8,139.1z"/>
      <path class="st6" d="M128.7,131.8h5.2l-8.6,22.2c-1.7,4.4-3.6,6.1-7.1,6.1c-2,0-3.6-0.5-5.1-1.3l1.7-3.7c0.9,0.5,1.9,0.8,2.9,0.8    c1.4,0,2.3-0.6,3.1-2.5l-9-21.6h5.3l6.1,16L128.7,131.8z"/>
      <path class="st6" d="M135.7,149.2l3-3.6c2.7,2.4,5.5,3.7,9,3.7c3.1,0,5.1-1.5,5.1-3.6v-0.1c0-2-1.1-3.2-6.5-4.4    c-6.1-1.5-9.5-3.3-9.5-8.6v-0.1c0-4.9,4.1-8.3,9.8-8.3c4.2,0,7.5,1.3,10.4,3.6l-2.7,3.8c-2.6-1.9-5.2-2.9-7.8-2.9    c-2.9,0-4.7,1.5-4.7,3.4v0.1c0,2.2,1.3,3.2,6.8,4.5c6.1,1.5,9.2,3.6,9.2,8.4v0.1c0,5.4-4.2,8.6-10.2,8.6    C143.3,153.8,139.1,152.3,135.7,149.2z"/>
      <path class="st6" d="M171.3,124.5h4.7l12.6,28.9h-5.3l-2.9-6.9h-13.5l-2.9,6.9h-5.2L171.3,124.5z M178.5,142l-5-11.5l-4.9,11.5    H178.5z"/>
      <path class="st6" d="M195.9,141.2h-7.9v-4.5h7.9v-7.8h4.7v7.8h7.9v4.5h-7.9v7.8h-4.7V141.2z"/>
    </g>
  </g>
  <g id="datasys_x2B_" class="st0">
    <g class="st2">
      <path class="st6" d="M144.9,49.4c-51.9,0-94.1,42.4-94.1,94.6c0,26.2,10.4,50.6,29.4,68.7l1,1l1-1c2.7-2.5,5.6-4.9,8.6-7    c14.4,12.8,33.4,20.6,54.1,20.6c20.7,0,39.6-7.8,54-20.6c3,2.2,5.8,4.5,8.5,7l1,1l1-1c19-18.1,29.4-42.5,29.4-68.7    C239,91.9,196.8,49.4,144.9,49.4z"/>
      <g>
        <path class="st13" d="M121.1,91.5c-2.2,0-4,1.5-4,3.4c0,1.9,1.8,3.4,4,3.4c2.2,0,4-1.5,4-3.4C125.1,93,123.4,91.5,121.1,91.5      M121.1,100.6c-3.5,0-6.3-2.5-6.3-5.7c0-3.2,2.8-5.7,6.3-5.7c3.5,0,6.3,2.5,6.3,5.7C127.4,98.1,124.7,100.6,121.1,100.6"/>
        <path class="st13" d="M143.6,100.6c-1.3,0-2.3-1-2.3-2.3l0-4.7c0-1.1-1-2-2.2-2c-1.2,0-2.2,0.9-2.2,2l0,7c-1.3,0-2.3-1-2.3-2.3     l0-4.8c0-1.1-1-2-2.2-2c-1.2,0-2.2,0.9-2.2,2l0,4.7c0,1.3-1,2.3-2.3,2.3l0-7c0-2.4,2-4.3,4.5-4.3c1.3,0,2.5,0.5,3.3,1.4     c0.8-0.9,2-1.4,3.3-1.4c2.5,0,4.5,1.9,4.5,4.3L143.6,100.6z"/>
        <path class="st13" d="M151,100.5c-0.6,0-1.2,0-1.7-0.2c-1.2-0.3-1.9-1.6-1.6-2.8c0-0.1,0.1-0.3,0.1-0.4l0,0     c0.6,0.7,1.7,1.1,3.1,1.1c2.1,0,3.7-1.5,3.7-3.3c0-1.9-1.6-3.5-3.7-3.5c-2,0-4,1.1-4,3.5l0,7.4c0,1.2-1,2.2-2.3,2.2l0-9.6     c0-3.3,2.6-5.8,6.2-5.8c1.6,0,3.1,0.6,4.2,1.6c1.1,1.1,1.8,2.5,1.8,4.1C157,98.1,154.4,100.5,151,100.5"/>
        <path class="st13" d="M167.3,87l-4.9,0l0,13.5h-0.1c-1.2,0-2.2-1-2.2-2.3l0-11.2l-4.9,0c-1.2,0-2.2-1-2.2-2.3l16.6,0     C169.6,86,168.6,87,167.3,87"/>
        <path class="st13" d="M181.8,87.1l-3.2,7.1l6.1,0l-3.3-7.2L181.8,87.1z M186.9,99.1l-1.2-2.6l-8.1,0l-1.2,2.7     c-0.6,1.1-2.1,1.4-3.2,1.4l6.6-14.5c0.4-0.8,1-1.3,1.8-1.3c0.8,0,1.5,0.5,1.8,1.3l6.5,14.3C188.7,100.5,187.4,100.2,186.9,99.1"/>
        <path class="st13" d="M112.3,89c-1.2-1.3-3-2.2-5-2.2c-3.5,0-6.4,2.6-6.4,5.7c0,3.2,2.9,5.8,6.4,5.8c1.7,0,3.3-0.6,4.5-1.7     c0.8-0.7,2.1-0.6,2.9,0c-0.6,1-1.5,1.8-2.5,2.4c-1.5,0.9-3.1,1.4-4.9,1.4c-4.8,0-8.7-3.6-8.7-8c0-4.4,3.9-8,8.7-8     c3.4,0,6.5,1.9,7.9,4.7C114.2,89.9,113,89.8,112.3,89"/>
        <path class="st13" d="M191.2,98.7c0,0-0.1,0-0.1,0c0,0,0.1,0.1,0.3,0.4l0,0c-0.1,0.1-0.2,0.1-0.3,0c-0.3-0.3-0.3-0.3-0.3-0.3     h-0.3v-0.1c0-0.1,0.1-0.2,0.2-0.2h0.1c0.1,0,0.2,0,0.2,0c0,0,0.1,0,0.1-0.1c0,0,0-0.1-0.3-0.1h-0.4V99c0,0.1-0.1,0.2-0.2,0.2     h-0.1v-1c0-0.1,0.1-0.2,0.2-0.2l0.5,0c0.5,0,0.6,0.3,0.6,0.4C191.4,98.5,191.4,98.6,191.2,98.7 M190.8,97.8     c-0.5,0-0.9,0.4-0.9,0.8c0,0.5,0.4,0.8,0.9,0.8c0.5,0,1-0.4,1-0.8C191.8,98.1,191.3,97.8,190.8,97.8 M190.8,99.7     c-0.7,0-1.2-0.5-1.2-1.1c0-0.6,0.5-1.1,1.2-1.1c0.7,0,1.2,0.5,1.2,1.1C192,99.2,191.5,99.7,190.8,99.7"/>
        <path class="st13" d="M170.3,84.8l0,13.6c0,1.2,1,2.2,2.3,2.2l0-13.6C172.6,85.8,171.5,84.8,170.3,84.8"/>
      </g>
      <path class="st14" d="M145,49.4c-52.6,0-95.4,42.8-95.4,95.4c0,26.5,10.6,51.1,29.8,69.3l1,1l1.1-1c2.8-2.6,5.7-4.9,8.7-7.1    c14.6,12.9,33.8,20.8,54.8,20.8c21,0,40.2-7.9,54.8-20.8c3,2.2,5.9,4.5,8.7,7.1l1.1,1l1-1c19.3-18.2,29.9-42.9,29.9-69.3    C240.4,92.3,197.6,49.4,145,49.4z M135.4,186.8c-16.2,1.6-31.6,7.2-45,16.3c-15.6-14.6-25.3-35.3-25.3-58.3    c0-44.1,35.8-79.9,79.9-79.9s79.9,35.8,79.9,79.9c0,23-9.8,43.7-25.3,58.3c-13.7-9.3-29.5-15-46.1-16.4 M153.5,189.8    c15.7,1.4,30.7,6.7,43.7,15.5c-14,12.1-32.3,19.5-52.2,19.5c-20,0-38.2-7.4-52.2-19.5c12.7-8.5,27.3-13.8,42.6-15.4 M209.5,210.9    c-2.4-2.1-4.8-4.1-7.4-6c15.9-15.1,25.9-36.5,25.9-60.1c0-45.8-37.2-83-83-83s-83,37.2-83,83c0,23.6,9.9,45,25.8,60.1    c-2.5,1.9-5,3.8-7.4,6c-17.9-17.5-27.8-40.9-27.8-66.1c0-50.9,41.4-92.4,92.4-92.4s92.4,41.4,92.4,92.4    C237.4,170,227.5,193.4,209.5,210.9z"/>
      <path class="st13" d="M243.8,110.8H37.9v49.9c0,4.6,3.8,8.4,8.4,8.4h205.9v-49.9C252.1,114.5,248.4,110.8,243.8,110.8z"/>
      <path class="st14" d="M209.8,208.6c0,0-0.1,0-0.1,0c0,0,0.1,0.1,0.3,0.4l0,0c-0.1,0.1-0.2,0.1-0.3,0c-0.3-0.3-0.3-0.3-0.3-0.3    h-0.3v-0.1c0-0.1,0.1-0.2,0.2-0.2h0.1c0.1,0,0.2,0,0.2,0c0,0,0.1,0,0.1-0.1c0,0,0-0.1-0.3-0.1H209v0.8c0,0.1-0.1,0.2-0.2,0.2h-0.1    v-1c0-0.1,0.1-0.2,0.2-0.2l0.5,0c0.5,0,0.6,0.3,0.6,0.4C210,208.4,209.9,208.5,209.8,208.6 M209.4,207.6c-0.5,0-0.9,0.4-0.9,0.8    c0,0.5,0.4,0.8,0.9,0.8c0.5,0,1-0.4,1-0.8C210.3,208,209.9,207.6,209.4,207.6 M209.4,209.5c-0.7,0-1.2-0.5-1.2-1.1    c0-0.6,0.5-1.1,1.2-1.1c0.7,0,1.2,0.5,1.2,1.1C210.6,209,210,209.5,209.4,209.5"/>
      <g>
        <path class="st6" d="M64.2,125.4h10c8.5,0,14.3,5.8,14.3,13.4v0.1c0,7.6-5.9,13.5-14.3,13.5h-10V125.4z M69,129.7V148h5.3     c5.7,0,9.4-3.8,9.4-9.1v-0.1c0-5.3-3.7-9.2-9.4-9.2H69z"/>
        <path class="st6" d="M90,146.5L90,146.5c0-4.5,3.5-6.6,8.4-6.6c2.3,0,3.9,0.3,5.5,0.8v-0.5c0-2.9-1.8-4.4-5-4.4     c-2.3,0-4,0.5-5.8,1.3l-1.3-3.7c2.3-1,4.5-1.7,7.7-1.7c3,0,5.3,0.8,6.7,2.3c1.5,1.5,2.2,3.6,2.2,6.3v12.1h-4.5v-2.5     c-1.4,1.7-3.5,3-6.6,3C93.4,152.7,90,150.6,90,146.5z M104,145v-1.4c-1.2-0.5-2.8-0.8-4.6-0.8c-3,0-4.8,1.2-4.8,3.4v0.1     c0,2,1.7,3.1,4,3.1C101.6,149.3,104,147.6,104,145z"/>
        <path class="st6" d="M112.9,146.7V136h-2.6v-4h2.6v-5.6h4.7v5.6h5.5v4h-5.5v10c0,1.8,0.9,2.5,2.5,2.5c1,0,2-0.2,2.9-0.7v3.8     c-1.2,0.7-2.4,1-4.2,1C115.4,152.7,112.9,151.2,112.9,146.7z"/>
        <path class="st6" d="M125.6,146.5L125.6,146.5c0-4.5,3.5-6.6,8.4-6.6c2.3,0,3.9,0.3,5.5,0.8v-0.5c0-2.9-1.8-4.4-5-4.4     c-2.3,0-4,0.5-5.8,1.3l-1.3-3.7c2.3-1,4.5-1.7,7.7-1.7c3,0,5.3,0.8,6.7,2.3c1.5,1.5,2.2,3.6,2.2,6.3v12.1h-4.5v-2.5     c-1.4,1.7-3.5,3-6.6,3C129,152.7,125.6,150.6,125.6,146.5z M139.5,145v-1.4c-1.2-0.5-2.8-0.8-4.6-0.8c-3,0-4.8,1.2-4.8,3.4v0.1     c0,2,1.7,3.1,4,3.1C137.2,149.3,139.5,147.6,139.5,145z"/>
        <path class="st6" d="M145.9,148.4l2.8-3.4c2.6,2.3,5.2,3.5,8.5,3.5c2.9,0,4.8-1.4,4.8-3.4V145c0-1.9-1.1-3-6.1-4.1     c-5.7-1.3-9-3.1-9-8v-0.1c0-4.6,3.8-7.8,9.2-7.8c4,0,7,1.2,9.8,3.4l-2.5,3.6c-2.5-1.8-4.9-2.8-7.3-2.8c-2.8,0-4.4,1.4-4.4,3.2     v0.1c0,2.1,1.2,3,6.4,4.2c5.7,1.5,8.6,3.4,8.6,7.9v0.1c0,5.1-4,8-9.6,8C153,152.7,149.1,151.3,145.9,148.4z"/>
        <path class="st6" d="M182.9,132h4.9l-8.1,20.9c-1.7,4.2-3.4,5.7-6.7,5.7c-2,0-3.4-0.5-4.8-1.3l1.6-3.4c0.9,0.5,1.8,0.8,2.7,0.8     c1.3,0,2.1-0.6,2.9-2.3l-8.5-20.4h5l5.7,15.1L182.9,132z"/>
        <path class="st6" d="M187,149.7l2.1-3.2c2.3,1.7,4.5,2.5,6.7,2.5c2,0,3.2-0.8,3.2-2.2v-0.1c0-1.5-2.2-2.1-4.5-2.8     c-3-0.8-6.4-2.1-6.4-5.9v-0.1c0-3.9,3.2-6.2,7.2-6.2c2.6,0,5.3,0.9,7.5,2.3l-1.8,3.3c-2-1.2-4-1.9-5.7-1.9c-1.8,0-2.8,0.9-2.8,2     v0.1c0,1.5,2.2,2.2,4.6,2.9c2.9,0.9,6.3,2.3,6.3,5.9v0.1c0,4.3-3.3,6.4-7.5,6.4C192.7,152.7,189.5,151.7,187,149.7z"/>
        <path class="st6" d="M212.6,140.9h-7.4v-4.3h7.4v-7.3h4.4v7.3h7.4v4.3H217v7.3h-4.4V140.9z"/>
      </g>
    </g>
    <rect x="134.8" y="185.2" class="st1" width="20.3" height="7.8"/>
    <g class="st2">
      <ellipse class="st15" cx="145" cy="177.4" rx="9.3" ry="3.8"/>
      <path class="st15" d="M154.3,196.1c0,2.1-4.2,3.8-9.3,3.8s-9.3-1.7-9.3-3.8"/>
      <path class="st15" d="M145,192.3"/>
      <line class="st15" x1="135.7" y1="177.4" x2="135.7" y2="196.1"/>
      <line class="st15" x1="154.3" y1="177.4" x2="154.3" y2="196.1"/>
      <path class="st16" d="M154.3,189.9c0,2.1-4.2,3.8-9.3,3.8s-9.3-1.7-9.3-3.8"/>
      <path class="st16" d="M154.3,183.6c0,2.1-4.2,3.8-9.3,3.8s-9.3-1.7-9.3-3.8"/>
    </g>
    <g class="st2">
      <rect x="129.8" y="211.2" class="st15" width="6.4" height="6.4"/>
      <rect x="141.8" y="211.2" class="st15" width="6.4" height="6.4"/>
      <rect x="153.8" y="211.2" class="st15" width="6.4" height="6.4"/>
    </g>
    <line class="st17" x1="145" y1="202.5" x2="145" y2="208.6"/>
    <line class="st17" x1="136.4" y1="201.6" x2="133.2" y2="207.8"/>
    <line class="st17" x1="153.6" y1="201.6" x2="156.8" y2="207.8"/>
  </g>
  <g id="itf_x2B_" class="st0">
    <g class="st2">
      <g>
        <path class="st6" d="M145.5,49.4C92.8,49.4,50,92.3,50,144.9c0,26.5,10.6,51.1,29.8,69.3l1,1l1.1-1c2.8-2.6,5.7-4.9,8.7-7.1     c14.6,12.9,33.8,20.8,54.8,20.8c21,0,40.2-7.9,54.8-20.8c3,2.2,5.9,4.5,8.7,7.1l1.1,1l1-1c19.3-18.2,29.9-42.9,29.9-69.3     C240.9,92.3,198.1,49.4,145.5,49.4z"/>
        <path class="st11" d="M145.5,49.4C92.8,49.4,50,92.3,50,144.9c0,26.5,10.6,51.1,29.8,69.3l1,1l1.1-1c2.8-2.6,5.7-4.9,8.7-7.1     c14.6,12.9,33.8,20.8,54.8,20.8c21,0,40.2-7.9,54.8-20.8c3,2.2,5.9,4.5,8.7,7.1l1.1,1l1-1c19.3-18.2,29.9-42.9,29.9-69.3     C240.9,92.3,198.1,49.4,145.5,49.4z M145.5,224.8c-20,0-38.2-7.4-52.2-19.5c9.6-6.4,20.3-11,31.5-13.5l-6.1,7.9     c-0.7,0.9-0.9,2.2-0.3,3.3c0.5,1.1,1.6,1.7,2.8,1.7h48.4c1.2,0,2.3-0.7,2.8-1.7c0.5-1.1,0.4-2.3-0.3-3.3l-6.2-8     c11.4,2.5,22.2,7.1,31.9,13.6C183.7,217.4,165.4,224.8,145.5,224.8z M65.6,144.9c0-44.1,35.8-79.9,79.9-79.9s79.9,35.8,79.9,79.9     c0,23-9.8,43.7-25.3,58.3c-11.2-7.6-23.8-12.8-37.1-15.3h-4v-6.8c0-3.2-2.6-5.7-5.7-5.7h-21.6v12.5h-4     c-13.2,2.5-25.7,7.7-36.8,15.2C75.3,188.5,65.6,167.8,65.6,144.9z M155.9,187.9h-21.1v-9.5h18.5c1.5,0,2.6,1.2,2.6,2.6V187.9z      M155.9,191v3.1l-21.1,0V191H155.9z M158.9,197.2V191h2.5l8.1,10.6c0,0,0,0,0,0l-48.4-0.1l8.1-10.5h2.5v6.2L158.9,197.2z      M209.9,210.9c-2.4-2.1-4.8-4.1-7.4-6c15.9-15.1,25.9-36.5,25.9-60.1c0-45.8-37.2-83-83-83s-83,37.2-83,83     c0,23.6,9.9,44.9,25.8,60.1c-2.6,1.9-5,3.9-7.4,6C63,193.4,53.1,170,53.1,144.9c0-50.9,41.4-92.4,92.4-92.4s92.4,41.4,92.4,92.4     C237.8,170,227.9,193.4,209.9,210.9z"/>
        <g>
          <path class="st10" d="M121.6,91.5c-2.2,0-4,1.5-4,3.4c0,1.9,1.8,3.4,4,3.4c2.2,0,4-1.5,4-3.4C125.6,93,123.8,91.5,121.6,91.5       M121.6,100.6c-3.5,0-6.3-2.5-6.3-5.7c0-3.2,2.8-5.7,6.3-5.7c3.5,0,6.3,2.5,6.3,5.7C127.9,98.1,125.1,100.6,121.6,100.6"/>
          <path class="st10" d="M144.1,100.6c-1.3,0-2.3-1-2.3-2.3l0-4.7c0-1.1-1-2-2.2-2c-1.2,0-2.2,0.9-2.2,2l0,7c-1.3,0-2.3-1-2.3-2.3      l0-4.8c0-1.1-1-2-2.2-2c-1.2,0-2.2,0.9-2.2,2l0,4.7c0,1.3-1,2.3-2.3,2.3l0-7c0-2.4,2-4.3,4.5-4.3c1.3,0,2.5,0.5,3.3,1.4      c0.8-0.9,2-1.4,3.3-1.4c2.5,0,4.5,1.9,4.5,4.3L144.1,100.6z"/>
          <path class="st10" d="M151.5,100.5c-0.6,0-1.2,0-1.7-0.2c-1.2-0.3-1.9-1.6-1.6-2.8c0-0.1,0.1-0.3,0.1-0.4l0,0      c0.6,0.7,1.7,1.1,3.1,1.1c2.1,0,3.7-1.5,3.7-3.3c0-1.9-1.6-3.5-3.7-3.5c-2,0-4,1.1-4,3.5l0,7.4c0,1.2-1,2.2-2.3,2.2l0-9.6      c0-3.3,2.6-5.8,6.2-5.8c1.6,0,3.1,0.6,4.2,1.6c1.1,1.1,1.8,2.5,1.8,4.1C157.5,98.1,154.9,100.5,151.5,100.5"/>
          <path class="st10" d="M167.8,87l-4.9,0l0,13.5h-0.1c-1.2,0-2.2-1-2.2-2.3l0-11.2l-4.9,0c-1.2,0-2.2-1-2.2-2.3l16.6,0      C170,86,169,87,167.8,87"/>
          <path class="st10" d="M182.3,87.1l-3.2,7.1l6.1,0l-3.3-7.2L182.3,87.1z M187.3,99.1l-1.2-2.6l-8.1,0l-1.2,2.7      c-0.6,1.1-2.1,1.4-3.2,1.4l6.6-14.5c0.4-0.8,1-1.3,1.8-1.3c0.8,0,1.5,0.5,1.8,1.3l6.5,14.3C189.2,100.5,187.8,100.2,187.3,99.1"/>
          <path class="st10" d="M112.7,89c-1.2-1.3-3-2.2-5-2.2c-3.5,0-6.4,2.6-6.4,5.7c0,3.2,2.9,5.8,6.4,5.8c1.7,0,3.3-0.6,4.5-1.7      c0.8-0.7,2.1-0.6,2.9,0c-0.6,1-1.5,1.8-2.5,2.4c-1.5,0.9-3.1,1.4-4.9,1.4c-4.8,0-8.7-3.6-8.7-8c0-4.4,3.9-8,8.7-8      c3.4,0,6.5,1.9,7.9,4.7C114.7,89.9,113.5,89.8,112.7,89"/>
          <path class="st10" d="M191.7,98.7c0,0-0.1,0-0.1,0c0,0,0.1,0.1,0.3,0.4l0,0c-0.1,0.1-0.2,0.1-0.3,0c-0.3-0.3-0.3-0.3-0.3-0.3      H191v-0.1c0-0.1,0.1-0.2,0.2-0.2h0.1c0.1,0,0.2,0,0.2,0c0,0,0.1,0,0.1-0.1c0,0,0-0.1-0.3-0.1h-0.4V99c0,0.1-0.1,0.2-0.2,0.2      h-0.1l0-1c0-0.1,0.1-0.2,0.2-0.2h0.5c0.5,0,0.6,0.3,0.6,0.4C191.9,98.5,191.8,98.6,191.7,98.7 M191.3,97.8      c-0.5,0-0.9,0.4-0.9,0.8c0,0.5,0.4,0.8,0.9,0.8c0.5,0,1-0.4,1-0.8C192.2,98.1,191.8,97.8,191.3,97.8 M191.3,99.7      c-0.7,0-1.2-0.5-1.2-1.1c0-0.6,0.5-1.1,1.2-1.1c0.7,0,1.2,0.5,1.2,1.1C192.5,99.2,191.9,99.7,191.3,99.7"/>
          <path class="st10" d="M170.8,84.8l0,13.6c0,1.2,1,2.2,2.3,2.2l0-13.6C173,85.8,172,84.8,170.8,84.8"/>
        </g>
        <path class="st10" d="M243.8,110.8H37.9v49.9c0,4.6,3.8,8.4,8.4,8.4h205.9v-49.9C252.1,114.5,248.4,110.8,243.8,110.8z"/>
        <path class="st11" d="M210.3,208.7c0,0-0.1,0-0.1,0c0,0,0.1,0.1,0.3,0.4l0,0c-0.1,0.1-0.2,0.1-0.3,0c-0.3-0.3-0.3-0.3-0.3-0.3     h-0.3v-0.1c0-0.1,0.1-0.2,0.2-0.2h0.1c0.1,0,0.2,0,0.2,0c0,0,0.1,0,0.1-0.1c0,0,0-0.1-0.3-0.1h-0.4v0.8c0,0.1-0.1,0.2-0.2,0.2     h-0.1v-1c0-0.1,0.1-0.2,0.2-0.2h0.5c0.5,0,0.6,0.3,0.6,0.4C210.5,208.5,210.4,208.6,210.3,208.7 M209.8,207.8     c-0.5,0-0.9,0.4-0.9,0.8c0,0.5,0.4,0.8,0.9,0.8c0.5,0,1-0.4,1-0.8C210.8,208.1,210.4,207.8,209.8,207.8 M209.8,209.7     c-0.7,0-1.2-0.5-1.2-1.1c0-0.6,0.5-1.1,1.2-1.1c0.7,0,1.2,0.5,1.2,1.1C211,209.2,210.5,209.7,209.8,209.7"/>
      </g>
      <g>
        <path class="st6" d="M108.3,126.2h4.8v27.2h-4.8V126.2z"/>
        <path class="st6" d="M124.6,130.6H116v-4.4h22v4.4h-8.6v22.7h-4.8V130.6z"/>
        <path class="st6" d="M141.2,126.2h20.2v4.3h-15.4v7.4h13.7v4.3h-13.7v11.1h-4.8V126.2z"/>
        <path class="st6" d="M170.6,142.2h-7.5v-4.3h7.5v-7.4h4.4v7.4h7.5v4.3H175v7.4h-4.4V142.2z"/>
      </g>
    </g>
  </g>
  <g id="linux_x2B_" class="st0">
    <g class="st2">
      <g>
        <path class="st6" d="M145.5,49.4C92.8,49.4,50,92.3,50,144.9c0,26.5,10.6,51.1,29.8,69.3l1,1l1.1-1c2.8-2.6,5.7-4.9,8.7-7.1     c14.6,12.9,33.8,20.8,54.8,20.8c21,0,40.2-7.8,54.8-20.7c3,2.2,5.9,4.5,8.7,7.1l1.1,1l1-1c19.3-18.2,29.9-42.9,29.9-69.3     C240.9,92.3,198.1,49.4,145.5,49.4z"/>
        <path class="st11" d="M145.5,49.4C92.8,49.4,50,92.3,50,144.9c0,26.5,10.6,51.1,29.8,69.3l1,1l1.1-1c2.8-2.6,5.7-4.9,8.7-7.1     c14.6,12.9,33.8,20.8,54.8,20.8c21,0,40.2-7.8,54.8-20.7c3,2.2,5.9,4.5,8.7,7.1l1.1,1l1-1c19.3-18.2,29.9-42.9,29.9-69.3     C240.9,92.3,198.1,49.4,145.5,49.4z M145.5,224.8c-20,0-38.2-7.4-52.2-19.5c11.6-7.8,24.9-12.9,38.8-14.9     c-1.6,2.4-2.6,5.1-2.7,8.1h-2.4c-1.2,0-2.4,0.6-3.1,1.6c-0.8,1-1,2.2-0.7,3.4l4,14.6h13.1v-3.6c1.6,0.5,3.3,0.9,5.1,0.9     c1.8,0,3.5-0.3,5.1-0.9v3.6h13.1l4-14.6c0.3-1.2,0.1-2.5-0.7-3.4c-0.8-1-1.9-1.6-3.1-1.6h-2.4c-0.1-3-1.1-5.8-2.7-8.2     c14,2,27.3,7.1,39,14.9C183.6,217.4,165.4,224.8,145.5,224.8z M145.3,183.3c-2.7,0-5.2,0.7-7.4,1.8c-0.3-0.8-0.4-1.7-0.4-2.6     c0-4.3,3.5-7.9,7.9-7.9s7.9,3.5,7.9,7.9c0,0.9-0.2,1.8-0.4,2.6C150.5,183.9,148,183.3,145.3,183.3z M151.2,187.7     c-1.4,1.6-3.5,2.6-5.8,2.6c-2.3,0-4.4-1-5.8-2.6c1.8-0.9,3.7-1.4,5.8-1.4C147.4,186.3,149.4,186.8,151.2,187.7z M145.3,193.4     c3.4,0,6.4-1.6,8.4-4c2.6,2.2,4.3,5.4,4.5,9h-7.8v12.7c-1.6,0.7-3.3,1.1-5.1,1.1c-1.8,0-3.6-0.4-5.1-1.1v-12.7h-7.8     c0.2-3.6,1.9-6.8,4.5-9C138.9,191.9,141.9,193.4,145.3,193.4z M161.2,201.6h2.6c0.4,0,0.6,0.2,0.7,0.3c0.1,0.1,0.2,0.4,0.1,0.8     l-3.4,12.3h-7.6v-2C157.6,210.6,160.5,206.5,161.2,201.6z M153.6,209.3v-7.7h4.5C157.5,204.7,155.9,207.4,153.6,209.3z      M132.6,201.6h4.5v7.7C134.8,207.4,133.1,204.7,132.6,201.6z M137.1,213.1v2h-7.6l-3.4-12.3c-0.1-0.4,0-0.6,0.1-0.8     c0.1-0.1,0.3-0.3,0.7-0.3h2.6C130.2,206.5,133.1,210.6,137.1,213.1z M200,203.2c-13.2-9.1-28.5-14.7-44.6-16.3c0,0,0,0,0,0     c0.6-1.3,0.9-2.8,0.9-4.3c0-6-4.9-10.9-10.9-10.9c-6,0-10.9,4.9-10.9,10.9c0,1.5,0.3,3,0.9,4.3c0,0,0,0-0.1,0.1     c-16,1.7-31.2,7.3-44.4,16.3c-15.6-14.6-25.3-35.3-25.3-58.3c0-44.1,35.8-79.9,79.9-79.9s79.9,35.8,79.9,79.9     C225.4,167.8,215.6,188.6,200,203.2z M209.9,210.9c-2.4-2.1-4.8-4.1-7.4-6c15.9-15.1,25.9-36.5,25.9-60.1c0-45.8-37.2-83-83-83     c-45.8,0-83,37.2-83,83c0,23.6,9.9,44.9,25.8,60.1c-2.5,1.9-5,3.9-7.4,6C63,193.4,53.1,170,53.1,144.9     c0-50.9,41.4-92.4,92.4-92.4s92.4,41.4,92.4,92.4C237.8,170,227.9,193.4,209.9,210.9z"/>
        <g>
          <path class="st10" d="M121.6,91.5c-2.2,0-4,1.5-4,3.4c0,1.9,1.8,3.4,4,3.4c2.2,0,4-1.5,4-3.4C125.6,93,123.8,91.5,121.6,91.5       M121.6,100.6c-3.5,0-6.3-2.5-6.3-5.7c0-3.2,2.8-5.7,6.3-5.7c3.5,0,6.3,2.5,6.3,5.7C127.9,98.1,125.1,100.6,121.6,100.6"/>
          <path class="st10" d="M144.1,100.6c-1.3,0-2.3-1-2.3-2.3v-4.7c0-1.1-1-2-2.2-2c-1.2,0-2.2,0.9-2.2,2l0,7c-1.3,0-2.3-1-2.3-2.3      l0-4.8c0-1.1-1-2-2.2-2c-1.2,0-2.2,0.9-2.2,2v4.7c0,1.3-1,2.3-2.3,2.3l0-7c0-2.4,2-4.3,4.5-4.3c1.3,0,2.5,0.5,3.3,1.4      c0.8-0.9,2-1.4,3.3-1.4c2.5,0,4.5,1.9,4.5,4.3L144.1,100.6z"/>
          <path class="st10" d="M151.5,100.5c-0.6,0-1.2,0-1.7-0.2c-1.2-0.3-1.9-1.6-1.6-2.8c0-0.1,0.1-0.3,0.1-0.4l0,0      c0.6,0.7,1.7,1.1,3.1,1.1c2.1,0,3.7-1.5,3.7-3.3c0-1.9-1.6-3.5-3.7-3.5c-2,0-4,1.1-4,3.5l0,7.4c0,1.2-1,2.2-2.3,2.2l0-9.6      c0-3.3,2.6-5.8,6.2-5.8c1.6,0,3.1,0.6,4.2,1.6c1.1,1.1,1.8,2.5,1.8,4.1C157.5,98.1,154.9,100.5,151.5,100.5"/>
          <path class="st10" d="M167.8,87l-4.9,0l0,13.5h-0.1c-1.2,0-2.2-1-2.2-2.3l0-11.2l-4.9,0c-1.2,0-2.2-1-2.2-2.3l16.6,0      C170,86,169,87,167.8,87"/>
          <path class="st10" d="M182.3,87.1l-3.2,7.1l6.1,0l-3.3-7.2L182.3,87.1z M187.3,99.1l-1.2-2.6l-8.1,0l-1.2,2.7      c-0.6,1.1-2.1,1.4-3.2,1.4l6.6-14.5c0.4-0.8,1-1.3,1.8-1.3c0.8,0,1.5,0.5,1.8,1.3l6.5,14.3C189.2,100.5,187.8,100.2,187.3,99.1"/>
          <path class="st10" d="M112.7,89c-1.2-1.3-3-2.2-5-2.2c-3.5,0-6.4,2.6-6.4,5.7c0,3.2,2.9,5.8,6.4,5.8c1.7,0,3.3-0.6,4.5-1.7      c0.8-0.7,2.1-0.6,2.9,0c-0.6,1-1.5,1.8-2.5,2.4c-1.5,0.9-3.1,1.4-4.9,1.4c-4.8,0-8.7-3.6-8.7-8c0-4.4,3.9-8,8.7-8      c3.4,0,6.5,1.9,7.9,4.7C114.7,89.9,113.5,89.8,112.7,89"/>
          <path class="st10" d="M191.7,98.7c0,0-0.1,0-0.1,0c0,0,0.1,0.1,0.3,0.4l0,0c-0.1,0.1-0.2,0.1-0.3,0c-0.3-0.3-0.3-0.3-0.3-0.3      H191v-0.1c0-0.1,0.1-0.2,0.2-0.2h0.1c0.1,0,0.2,0,0.2,0c0,0,0.1,0,0.1-0.1c0,0,0-0.1-0.3-0.1h-0.4l0,0.8c0,0.1-0.1,0.2-0.2,0.2      h-0.1v-1c0-0.1,0.1-0.2,0.2-0.2h0.5c0.5,0,0.6,0.3,0.6,0.4C191.9,98.5,191.8,98.6,191.7,98.7 M191.3,97.8      c-0.5,0-0.9,0.4-0.9,0.8c0,0.5,0.4,0.8,0.9,0.8c0.5,0,1-0.4,1-0.8C192.2,98.1,191.8,97.8,191.3,97.8 M191.3,99.7      c-0.7,0-1.2-0.5-1.2-1.1c0-0.6,0.5-1.1,1.2-1.1c0.7,0,1.2,0.5,1.2,1.1C192.5,99.2,191.9,99.7,191.3,99.7"/>
          <path class="st10" d="M170.8,84.8l0,13.6c0,1.2,1,2.2,2.3,2.2l0-13.6C173,85.8,172,84.8,170.8,84.8"/>
        </g>
        <path class="st10" d="M243.8,110.8H37.9v49.9c0,4.6,3.8,8.4,8.4,8.4h205.9v-49.9C252.1,114.5,248.4,110.8,243.8,110.8z"/>
        <g>
          <path class="st6" d="M81.2,125.3h5.2v25h15.7v4.8H81.2V125.3z"/>
          <path class="st6" d="M105.4,129.2v-4.9h5.5v4.9H105.4z M105.6,155.1v-22.5h5.1v22.5H105.6z"/>
          <path class="st6" d="M121.3,155.1h-5.1v-22.5h5.1v3.5c1.4-2.1,3.5-4,7-4c5.1,0,8,3.4,8,8.6v14.3h-5.1v-12.8      c0-3.5-1.7-5.5-4.8-5.5c-3,0-5.1,2.1-5.1,5.6V155.1z"/>
          <path class="st6" d="M156.2,132.6h5.1v22.5h-5.1v-3.5c-1.4,2.1-3.5,4-7,4c-5.1,0-8-3.4-8-8.6v-14.3h5.1v12.8      c0,3.5,1.7,5.5,4.8,5.5c3,0,5.1-2.1,5.1-5.6V132.6z"/>
          <path class="st6" d="M186.4,155.1h-5.6l-5.5-7.9l-5.5,7.9h-5.5l8.3-11.4l-8-11.1h5.6l5.2,7.4l5.2-7.4h5.5l-8,10.9L186.4,155.1z"/>
          <path class="st6" d="M195.8,129.6h4.9v8.1h8.2v4.7h-8.2v8.1h-4.9v-8.1h-8.2v-4.7h8.2V129.6z"/>
        </g>
      </g>
    </g>
    <path class="st4" d="M210.3,208.6c0,0-0.1,0-0.1,0c0,0,0.1,0.1,0.3,0.4l0,0c-0.1,0.1-0.2,0.1-0.3,0c-0.3-0.3-0.3-0.3-0.3-0.3h-0.3   v-0.1c0-0.1,0.1-0.2,0.2-0.2h0.1c0.1,0,0.2,0,0.2,0c0,0,0.1,0,0.1-0.1c0,0,0-0.1-0.3-0.1h-0.4v0.8c0,0.1-0.1,0.2-0.2,0.2h-0.1v-1   c0-0.1,0.1-0.2,0.2-0.2h0.5c0.5,0,0.6,0.3,0.6,0.4C210.5,208.4,210.4,208.5,210.3,208.6 M209.8,207.7c-0.5,0-0.9,0.4-0.9,0.8   c0,0.5,0.4,0.8,0.9,0.8c0.5,0,1-0.4,1-0.8C210.8,208.1,210.4,207.7,209.8,207.7 M209.8,209.6c-0.7,0-1.2-0.5-1.2-1.1   c0-0.6,0.5-1.1,1.2-1.1c0.7,0,1.2,0.5,1.2,1.1C211,209.1,210.5,209.6,209.8,209.6"/>
  </g>
  <g id="network" class="st0">
    <g class="st2">
      <g>
        <path class="st6" d="M145.5,49.4C92.8,49.4,50,92.3,50,144.9c0,26.5,10.6,51.1,29.8,69.3l1,1l1.1-1c2.8-2.6,5.7-4.9,8.7-7.1     c14.6,12.9,33.8,20.8,54.8,20.8c21,0,40.2-7.9,54.8-20.7c3,2.2,5.9,4.5,8.7,7.1l1.1,1l1-1c19.3-18.2,29.9-42.9,29.9-69.3     C240.9,92.3,198.1,49.4,145.5,49.4z"/>
        <path class="st11" d="M145.5,49.4C92.8,49.4,50,92.3,50,144.9c0,26.5,10.6,51.1,29.8,69.3l1,1l1.1-1c2.8-2.6,5.7-4.9,8.7-7.1     c14.6,12.9,33.8,20.8,54.8,20.8c21,0,40.2-7.9,54.8-20.7c3,2.2,5.9,4.5,8.7,7.1l1.1,1l1-1c19.3-18.2,29.9-42.9,29.9-69.3     C240.9,92.3,198.1,49.4,145.5,49.4z M145.5,224.8c-20,0-38.2-7.4-52.2-19.5c10.3-6.9,21.9-11.7,34.1-14.1v13h9.9v9.9H158     c3,0,5.4-2.4,5.4-5.4v-17.6c12.3,2.4,23.9,7.2,34.3,14.1C183.6,217.4,165.4,224.8,145.5,224.8z M153.4,204.2v-13.1h6.8v17.6     c0,1.3-1,2.3-2.3,2.3h-17.6v-6.8H153.4z M140.3,201.1v-10.1h10.1v10.1H140.3z M150.4,188h-13.1v13.1h-6.8v-17.3     c0-1.5,1.2-2.7,2.7-2.7h17.3V188z M200,203.2c-11-7.6-23.5-12.7-36.7-15.2h-9.9v-9.9h-20.3c-3.2,0-5.8,2.6-5.8,5.8v4.2     c-13.1,2.5-25.5,7.6-36.5,15.1c-15.6-14.6-25.3-35.3-25.3-58.3c0-44.1,35.8-79.9,79.9-79.9s79.9,35.8,79.9,79.9     C225.4,167.8,215.6,188.6,200,203.2z M209.9,210.9c-2.4-2.1-4.8-4.1-7.4-6c15.9-15.1,25.9-36.5,25.9-60.1c0-45.8-37.2-83-83-83     s-83,37.2-83,83c0,23.6,9.9,44.9,25.8,60.1c-2.5,1.9-5,3.9-7.4,6C63,193.4,53.1,170,53.1,144.9c0-50.9,41.4-92.4,92.4-92.4     s92.4,41.4,92.4,92.4C237.8,170,227.9,193.4,209.9,210.9z"/>
        <path class="st10" d="M243.8,110.8H37.9v49.9c0,4.6,3.8,8.4,8.4,8.4h205.9v-49.9C252.1,114.5,248.4,110.8,243.8,110.8z"/>
        <g>
          <path class="st6" d="M83.7,125.5h4.5v25.8h-3.8l-14.3-18.4v18.4h-4.5v-25.8h4.2l13.8,17.9V125.5z"/>
          <path class="st6" d="M102.5,148.1c2.2,0,3.7-0.8,5.3-2.3l2.6,2.3c-1.8,2.2-4.4,3.7-8,3.7c-5.6,0-10-4.1-10-10.2      c0-5.6,4-10.2,9.5-10.2c6.2,0,9.3,4.9,9.3,10.5c0,0.4,0,0.8-0.1,1.2H96.9C97.4,146.3,99.6,148.1,102.5,148.1z M106.8,140.2      c-0.3-2.9-2-5.1-4.9-5.1c-2.7,0-4.7,2.1-5.1,5.1H106.8z"/>
          <path class="st6" d="M119.7,145.2c0,1.7,0.9,2.4,2.4,2.4c1,0,1.9-0.2,2.8-0.7v3.7c-1.1,0.6-2.4,1-4,1c-3.3,0-5.6-1.4-5.6-5.7      v-10.3h-2.5v-3.8h2.5v-5.4h4.5v5.4h5.2v3.8h-5.2V145.2z"/>
          <path class="st6" d="M147.9,145.2l4-13.4h4.5l-6.4,19.6h-4l-4.4-13.3l-4.4,13.3h-4l-6.3-19.6h4.6l3.9,13.4l4.3-13.4h3.8      L147.9,145.2z"/>
          <path class="st6" d="M167.7,151.8c-5.9,0-10.3-4.5-10.3-10.1c0-5.6,4.4-10.2,10.4-10.2c6,0,10.4,4.5,10.4,10.2      C178.2,147.2,173.7,151.8,167.7,151.8z M167.7,135.3c-3.6,0-5.9,2.8-5.9,6.2c0,3.5,2.5,6.3,5.9,6.3c3.6,0,5.9-2.8,5.9-6.2      C173.7,138.2,171.2,135.3,167.7,135.3z"/>
          <path class="st6" d="M186.1,151.3h-4.5v-19.5h4.5v4.4c1.2-2.9,3.5-4.9,6.9-4.8v4.7h-0.3c-3.9,0-6.6,2.5-6.6,7.7V151.3z"/>
          <path class="st6" d="M213.8,151.3h-5.2l-5.9-8.4l-2.7,2.8v5.6h-4.5v-27h4.5v16.1l8.1-8.6h5.4l-7.8,7.9L213.8,151.3z"/>
          <path class="st6" d="M221.2,129.3h4.2v7.1h7.1v4.1h-7.1v7.1h-4.2v-7.1h-7.1v-4.1h7.1V129.3z"/>
        </g>
        <g>
          <g>
            <path class="st10" d="M121.6,91.5c-2.2,0-4,1.5-4,3.4c0,1.9,1.8,3.4,4,3.4c2.2,0,4-1.5,4-3.4C125.6,93,123.8,91.5,121.6,91.5        M121.6,100.6c-3.5,0-6.3-2.5-6.3-5.7c0-3.2,2.8-5.7,6.3-5.7c3.5,0,6.3,2.5,6.3,5.7C127.9,98.1,125.1,100.6,121.6,100.6"/>
            <path class="st10" d="M144.1,100.6c-1.3,0-2.3-1-2.3-2.3l0-4.7c0-1.1-1-2-2.2-2c-1.2,0-2.2,0.9-2.2,2l0,7c-1.3,0-2.3-1-2.3-2.3       v-4.8c0-1.1-1-2-2.2-2c-1.2,0-2.2,0.9-2.2,2l0,4.7c0,1.3-1,2.3-2.3,2.3l0-7c0-2.4,2-4.3,4.5-4.3c1.3,0,2.5,0.5,3.3,1.4       c0.8-0.9,2-1.4,3.3-1.4c2.5,0,4.5,1.9,4.5,4.3L144.1,100.6z"/>
            <path class="st10" d="M151.5,100.5c-0.6,0-1.2,0-1.7-0.2c-1.2-0.3-1.9-1.6-1.6-2.8c0-0.1,0.1-0.3,0.1-0.4l0,0       c0.6,0.7,1.7,1.1,3.1,1.1c2.1,0,3.7-1.5,3.7-3.3c0-1.9-1.6-3.5-3.7-3.5c-2,0-4,1.1-4,3.5l0,7.4c0,1.2-1,2.2-2.3,2.2l0-9.6       c0-3.3,2.6-5.8,6.2-5.8c1.6,0,3.1,0.6,4.2,1.6c1.1,1.1,1.8,2.5,1.8,4.1C157.5,98.1,154.9,100.5,151.5,100.5"/>
            <path class="st10" d="M167.8,87l-4.9,0l0,13.5h-0.1c-1.2,0-2.2-1-2.2-2.3l0-11.2l-4.9,0c-1.2,0-2.2-1-2.2-2.3l16.6,0       C170,86,169,87,167.8,87"/>
            <path class="st10" d="M182.3,87.1l-3.2,7.1l6.1,0l-3.3-7.2L182.3,87.1z M187.3,99.1l-1.2-2.6l-8.1,0l-1.2,2.7       c-0.6,1.1-2.1,1.4-3.2,1.4l6.6-14.5c0.4-0.8,1-1.3,1.8-1.3c0.8,0,1.5,0.5,1.8,1.3l6.5,14.3C189.2,100.5,187.8,100.2,187.3,99.1       "/>
            <path class="st10" d="M112.7,89c-1.2-1.3-3-2.2-5-2.2c-3.5,0-6.4,2.6-6.4,5.7c0,3.2,2.9,5.8,6.4,5.8c1.7,0,3.3-0.6,4.5-1.7       c0.8-0.7,2.1-0.6,2.9,0c-0.6,1-1.5,1.8-2.5,2.4c-1.5,0.9-3.1,1.4-4.9,1.4c-4.8,0-8.7-3.6-8.7-8c0-4.4,3.9-8,8.7-8       c3.4,0,6.5,1.9,7.9,4.7C114.7,89.9,113.5,89.8,112.7,89"/>
            <path class="st10" d="M191.7,98.7c0,0-0.1,0-0.1,0c0,0,0.1,0.1,0.3,0.4l0,0c-0.1,0.1-0.2,0.1-0.3,0c-0.3-0.3-0.3-0.3-0.3-0.3       H191v-0.1c0-0.1,0.1-0.2,0.2-0.2h0.1c0.1,0,0.2,0,0.2,0c0,0,0.1,0,0.1-0.1c0,0,0-0.1-0.3-0.1h-0.4V99c0,0.1-0.1,0.2-0.2,0.2       h-0.1v-1c0-0.1,0.1-0.2,0.2-0.2h0.5c0.5,0,0.6,0.3,0.6,0.4C191.9,98.5,191.8,98.6,191.7,98.7 M191.2,97.8       c-0.5,0-0.9,0.4-0.9,0.8c0,0.5,0.4,0.8,0.9,0.8c0.5,0,1-0.4,1-0.8C192.2,98.1,191.8,97.8,191.2,97.8 M191.2,99.7       c-0.7,0-1.2-0.5-1.2-1.1c0-0.6,0.5-1.1,1.2-1.1c0.7,0,1.2,0.5,1.2,1.1C192.5,99.2,191.9,99.7,191.2,99.7"/>
            <path class="st10" d="M170.8,84.8l0,13.6c0,1.2,1,2.2,2.3,2.2l0-13.6C173,85.8,172,84.8,170.8,84.8"/>
          </g>
        </g>
      </g>
    </g>
    <path class="st4" d="M210.3,208.7c0,0-0.1,0-0.1,0c0,0,0.1,0.1,0.3,0.4l0,0c-0.1,0.1-0.2,0.1-0.3,0c-0.3-0.3-0.3-0.3-0.3-0.3h-0.3   v-0.1c0-0.1,0.1-0.2,0.2-0.2h0.1c0.1,0,0.2,0,0.2,0c0,0,0.1,0,0.1-0.1c0,0,0-0.1-0.3-0.1h-0.4v0.8c0,0.1-0.1,0.2-0.2,0.2h-0.1v-1   c0-0.1,0.1-0.2,0.2-0.2h0.5c0.5,0,0.6,0.3,0.6,0.4C210.5,208.5,210.4,208.6,210.3,208.7 M209.8,207.7c-0.5,0-0.9,0.4-0.9,0.8   c0,0.5,0.4,0.8,0.9,0.8c0.5,0,1-0.4,1-0.8C210.8,208.1,210.4,207.7,209.8,207.7 M209.8,209.6c-0.7,0-1.2-0.5-1.2-1.1   c0-0.6,0.5-1.1,1.2-1.1c0.7,0,1.2,0.5,1.2,1.1C211,209.2,210.5,209.6,209.8,209.6"/>
  </g>
  <g id="pentest" class="st0">
    <path class="st1" d="M145,49.4c-52.6,0-95.4,42.8-95.4,95.4c0,26.5,10.6,51.1,29.8,69.3l1,1l1.1-1c2.8-2.6,5.7-4.9,8.7-7.1   c14.6,12.9,33.8,20.8,54.8,20.8c21,0,40.2-7.9,54.8-20.8c3,2.2,5.9,4.5,8.7,7.1l1.1,1l1-1c19.3-18.2,29.9-42.9,29.9-69.3   C240.4,92.3,197.6,49.4,145,49.4z"/>
    <g class="st2">
      <path class="st10" d="M121.1,91.5c-2.2,0-4,1.5-4,3.4c0,1.9,1.8,3.4,4,3.4c2.2,0,4-1.5,4-3.4C125.1,93,123.4,91.5,121.1,91.5     M121.1,100.6c-3.5,0-6.3-2.5-6.3-5.7c0-3.2,2.8-5.7,6.3-5.7c3.5,0,6.3,2.5,6.3,5.7C127.4,98.1,124.7,100.6,121.1,100.6"/>
      <path class="st10" d="M143.6,100.6c-1.3,0-2.3-1-2.3-2.3l0-4.7c0-1.1-1-2-2.2-2c-1.2,0-2.2,0.9-2.2,2l0,7c-1.3,0-2.3-1-2.3-2.3    l0-4.8c0-1.1-1-2-2.2-2c-1.2,0-2.2,0.9-2.2,2l0,4.7c0,1.3-1,2.3-2.3,2.3l0-7c0-2.4,2-4.3,4.5-4.3c1.3,0,2.5,0.5,3.3,1.4    c0.8-0.9,2-1.4,3.3-1.4c2.5,0,4.5,1.9,4.5,4.3L143.6,100.6z"/>
      <path class="st10" d="M151,100.5c-0.6,0-1.2,0-1.7-0.2c-1.2-0.3-1.9-1.6-1.6-2.8c0-0.1,0.1-0.3,0.1-0.4l0,0    c0.6,0.7,1.7,1.1,3.1,1.1c2.1,0,3.7-1.5,3.7-3.3c0-1.9-1.6-3.5-3.7-3.5c-2,0-4,1.1-4,3.5l0,7.4c0,1.2-1,2.2-2.3,2.2l0-9.6    c0-3.3,2.6-5.8,6.2-5.8c1.6,0,3.1,0.6,4.2,1.6c1.1,1.1,1.8,2.5,1.8,4.1C157,98.1,154.4,100.5,151,100.5"/>
      <path class="st10" d="M167.3,87l-4.9,0l0,13.5h-0.1c-1.2,0-2.2-1-2.2-2.3l0-11.2l-4.9,0c-1.2,0-2.2-1-2.2-2.3l16.6,0    C169.6,86,168.6,87,167.3,87"/>
      <path class="st10" d="M181.8,87.1l-3.2,7.1l6.1,0l-3.3-7.2L181.8,87.1z M186.9,99.1l-1.2-2.6l-8.1,0l-1.2,2.7    c-0.6,1.1-2.1,1.4-3.2,1.4l6.6-14.5c0.4-0.8,1-1.3,1.8-1.3c0.8,0,1.5,0.5,1.8,1.3l6.5,14.3C188.7,100.5,187.4,100.2,186.9,99.1"/>
      <path class="st10" d="M112.3,89c-1.2-1.3-3-2.2-5-2.2c-3.5,0-6.4,2.6-6.4,5.7c0,3.2,2.9,5.8,6.4,5.8c1.7,0,3.3-0.6,4.5-1.7    c0.8-0.7,2.1-0.6,2.9,0c-0.6,1-1.5,1.8-2.5,2.4c-1.5,0.9-3.1,1.4-4.9,1.4c-4.8,0-8.7-3.6-8.7-8c0-4.4,3.9-8,8.7-8    c3.4,0,6.5,1.9,7.9,4.7C114.2,89.9,113,89.8,112.3,89"/>
      <path class="st10" d="M191.2,98.7c0,0-0.1,0-0.1,0c0,0,0.1,0.1,0.3,0.4l0,0c-0.1,0.1-0.2,0.1-0.3,0c-0.3-0.3-0.3-0.3-0.3-0.3h-0.3    v-0.1c0-0.1,0.1-0.2,0.2-0.2h0.1c0.1,0,0.2,0,0.2,0c0,0,0.1,0,0.1-0.1c0,0,0-0.1-0.3-0.1h-0.4V99c0,0.1-0.1,0.2-0.2,0.2h-0.1v-1    c0-0.1,0.1-0.2,0.2-0.2l0.5,0c0.5,0,0.6,0.3,0.6,0.4C191.4,98.5,191.4,98.6,191.2,98.7 M190.8,97.8c-0.5,0-0.9,0.4-0.9,0.8    c0,0.5,0.4,0.8,0.9,0.8c0.5,0,1-0.4,1-0.8C191.8,98.1,191.3,97.8,190.8,97.8 M190.8,99.7c-0.7,0-1.2-0.5-1.2-1.1    c0-0.6,0.5-1.1,1.2-1.1c0.7,0,1.2,0.5,1.2,1.1C192,99.2,191.5,99.7,190.8,99.7"/>
      <path class="st10" d="M170.3,84.8l0,13.6c0,1.2,1,2.2,2.3,2.2l0-13.6C172.6,85.8,171.5,84.8,170.3,84.8"/>
    </g>
    <path class="st4" d="M145,49.4c-52.6,0-95.4,42.8-95.4,95.4c0,26.5,10.6,51.1,29.8,69.3l1,1l1.1-1c2.8-2.6,5.7-4.9,8.7-7.1   c14.6,12.9,33.8,20.8,54.8,20.8c21,0,40.2-7.9,54.8-20.8c3,2.2,5.9,4.5,8.7,7.1l1.1,1l1-1c19.3-18.2,29.9-42.9,29.9-69.3   C240.4,92.3,197.6,49.4,145,49.4z M135.4,186.8c-16.2,1.6-31.6,7.2-45,16.3c-15.6-14.6-25.3-35.3-25.3-58.3   c0-44.1,35.8-79.9,79.9-79.9s79.9,35.8,79.9,79.9c0,23-9.8,43.7-25.3,58.3c-13.7-9.3-29.5-15-46.1-16.4 M153.5,189.8   c15.7,1.4,30.7,6.7,43.7,15.5c-14,12.1-32.3,19.5-52.2,19.5c-20,0-38.2-7.4-52.2-19.5c12.7-8.5,27.3-13.8,42.6-15.4 M209.5,210.9   c-2.4-2.1-4.8-4.1-7.4-6c15.9-15.1,25.9-36.5,25.9-60.1c0-45.8-37.2-83-83-83s-83,37.2-83,83c0,23.6,9.9,45,25.8,60.1   c-2.5,1.9-5,3.8-7.4,6c-17.9-17.5-27.8-40.9-27.8-66.1c0-50.9,41.4-92.4,92.4-92.4s92.4,41.4,92.4,92.4   C237.4,170,227.5,193.4,209.5,210.9z"/>
    <path class="st12" d="M243.8,110.8H37.9v49.9c0,4.6,3.8,8.4,8.4,8.4h205.9v-49.9C252.1,114.5,248.4,110.8,243.8,110.8z"/>
    <g class="st2">
      <path class="st18" d="M170.7,198.8l-10.9-2c-0.1,0-0.2,0-0.3,0.1c0-0.1,0-0.1,0-0.2l-4-16l-6.7-2.1c-0.6-0.2-1.3-0.1-1.8,0.3    l-0.6,0.4c-0.7,0.6-1.7,0.6-2.4,0l-0.6-0.4c-0.5-0.4-1.2-0.5-1.8-0.3l-5.6,1.8c-0.7,0.2-1.2,0.7-1.3,1.4l-3.3,15.5    c-0.1-0.1-0.3-0.2-0.4-0.3c-0.1-0.1-0.3-0.2-0.5-0.1l-10.9,2c-0.5,0.1-0.6,0.7-0.1,1c0,0,11.5,12.5,25.7,12.5    c14.1,0,25.7-12.5,25.7-12.5C171.3,199.6,171.2,198.9,170.7,198.8z"/>
      <g>
        <path class="st18" d="M132.2,193.4c0,0,13.2,8.3,26,0"/>
        <path class="st11" d="M172.5,199.1c-0.1-0.8-0.7-1.4-1.5-1.6l-10.3-1.9l-4-15.9l-7.4-2.3c-1.1-0.3-2.2-0.1-3.1,0.6l-0.6,0.4     c-0.2,0.2-0.5,0.2-0.7,0l-0.6-0.4c-0.9-0.7-2-0.9-3.1-0.6l-5.6,1.8c-1.1,0.4-2,1.3-2.3,2.5l-3,13.9c0,0,0,0-0.1,0l-10.9,2     c-0.8,0.2-1.4,0.8-1.5,1.6c-0.1,0.7,0.2,1.4,0.7,1.8c1.3,1.4,12.6,12.8,26.6,12.8c14,0,25.3-11.4,26.6-12.8     C172.4,200.5,172.6,199.8,172.5,199.1z M136,182.1c0-0.2,0.2-0.4,0.4-0.4l5.6-1.8c0.1,0,0.1,0,0.2,0c0.1,0,0.3,0,0.4,0.1l0.6,0.4     c1.2,0.9,2.9,0.9,4.1,0l0.6-0.4c0.1-0.1,0.3-0.2,0.5-0.1l5.9,1.9l2.7,10.7c-10.1,6.3-20.3,1.8-23.2,0.2L136,182.1z M133.2,195.6     c2.4,1.2,7,3,12.6,3c3.7,0,7.8-0.8,12-3.2l0.3,1c-8.5,7.2-16.5,7.3-25,0.4L133.2,195.6z M145.2,210.9c-11,0-20.5-8.1-23.6-11     l8.8-1.6c9.8,8.4,19.8,8.4,29.7,0l0.7,0.1l0,0l8.1,1.5C165.7,202.8,156.2,210.9,145.2,210.9z"/>
      </g>
    </g>
    <path class="st4" d="M209.8,208.6c0,0-0.1,0-0.1,0c0,0,0.1,0.1,0.3,0.4l0,0c-0.1,0.1-0.2,0.1-0.3,0c-0.3-0.3-0.3-0.3-0.3-0.3h-0.3   v-0.1c0-0.1,0.1-0.2,0.2-0.2h0.1c0.1,0,0.2,0,0.2,0c0,0,0.1,0,0.1-0.1c0,0,0-0.1-0.3-0.1H209v0.8c0,0.1-0.1,0.2-0.2,0.2h-0.1v-1   c0-0.1,0.1-0.2,0.2-0.2l0.5,0c0.5,0,0.6,0.3,0.6,0.4C210,208.4,209.9,208.5,209.8,208.6 M209.4,207.6c-0.5,0-0.9,0.4-0.9,0.8   c0,0.5,0.4,0.8,0.9,0.8c0.5,0,1-0.4,1-0.8C210.3,208,209.9,207.6,209.4,207.6 M209.4,209.5c-0.7,0-1.2-0.5-1.2-1.1   c0-0.6,0.5-1.1,1.2-1.1c0.7,0,1.2,0.5,1.2,1.1C210.6,209,210,209.5,209.4,209.5"/>
    <g class="st2">
      <path class="st6" d="M70.2,125.3h10.6c6.3,0,10.3,3.6,10.3,9v0.1c0,6.1-4.9,9.2-10.8,9.2h-5.4v8.7h-4.7V125.3z M80.4,139.4    c3.6,0,5.8-2,5.8-4.8v-0.1c0-3.2-2.3-4.8-5.8-4.8h-5.5v9.7H80.4z"/>
      <path class="st6" d="M91.5,142.2L91.5,142.2c0-5.9,4.1-10.7,9.9-10.7c6.5,0,9.8,5.1,9.8,10.9c0,0.4,0,0.8-0.1,1.3h-15    c0.5,3.3,2.9,5.2,5.9,5.2c2.3,0,3.9-0.8,5.5-2.4l2.7,2.4c-1.9,2.3-4.6,3.8-8.3,3.8C96.1,152.8,91.5,148.5,91.5,142.2z     M106.6,140.7c-0.3-3-2.1-5.4-5.2-5.4c-2.9,0-4.9,2.2-5.3,5.4H106.6z"/>
      <path class="st6" d="M114.2,132h4.7v3.1c1.3-1.9,3.2-3.5,6.4-3.5c4.6,0,7.2,3.1,7.2,7.8v13h-4.7v-11.6c0-3.2-1.6-5-4.4-5    c-2.7,0-4.6,1.9-4.6,5v11.5h-4.7V132z"/>
      <path class="st6" d="M138.9,129.7h-8.6v-4.4h21.9v4.4h-8.6v22.6h-4.8V129.7z"/>
      <path class="st6" d="M149.5,142.2L149.5,142.2c0-5.9,4.1-10.7,9.9-10.7c6.5,0,9.8,5.1,9.8,10.9c0,0.4,0,0.8-0.1,1.3h-15    c0.5,3.3,2.9,5.2,5.9,5.2c2.3,0,3.9-0.8,5.5-2.4l2.7,2.4c-1.9,2.3-4.6,3.8-8.3,3.8C154,152.8,149.5,148.5,149.5,142.2z     M164.5,140.7c-0.3-3-2.1-5.4-5.2-5.4c-2.9,0-4.9,2.2-5.3,5.4H164.5z"/>
      <path class="st6" d="M169.7,149.6l2.1-3.2c2.2,1.7,4.6,2.5,6.7,2.5c2,0,3.2-0.8,3.2-2.2v-0.1c0-1.6-2.2-2.1-4.5-2.9    c-3-0.8-6.4-2.1-6.4-6v-0.1c0-3.9,3.2-6.2,7.2-6.2c2.5,0,5.3,0.9,7.5,2.3l-1.9,3.3c-2-1.2-4-1.9-5.7-1.9c-1.8,0-2.9,0.8-2.9,2v0.1    c0,1.5,2.2,2.1,4.6,2.9c3,0.9,6.3,2.3,6.3,5.9v0.1c0,4.3-3.3,6.4-7.6,6.4C175.5,152.7,172.3,151.7,169.7,149.6z"/>
      <path class="st6" d="M190.3,146.7V136h-2.6v-4h2.6v-5.6h4.7v5.6h5.5v4H195v10c0,1.8,0.9,2.5,2.5,2.5c1,0,2-0.2,2.9-0.7v3.8    c-1.2,0.7-2.4,1-4.2,1C192.7,152.7,190.3,151.2,190.3,146.7z"/>
      <path class="st6" d="M210.5,140.9h-7.4v-4.3h7.4v-7.3h4.4v7.3h7.4v4.3h-7.4v7.4h-4.4V140.9z"/>
    </g>
  </g>
  <g id="project_x2B_" class="st0">
    <g class="st2">
      <g>
        <path class="st6" d="M145,49.4c-52.6,0-95.4,42.8-95.4,95.4c0,26.5,10.6,51.1,29.8,69.3l1,1l1.1-1c2.8-2.6,5.7-4.9,8.7-7.1     c14.6,12.9,33.8,20.8,54.8,20.8c21,0,40.2-7.9,54.8-20.8c3,2.2,5.9,4.5,8.7,7.1l1.1,1l1-1c19.3-18.2,29.9-42.9,29.9-69.3     C240.5,92.3,197.7,49.4,145,49.4z"/>
        <path class="st11" d="M145,49.4c-52.6,0-95.4,42.8-95.4,95.4c0,26.5,10.6,51.1,29.8,69.3l1,1l1.1-1c2.8-2.6,5.7-4.9,8.7-7.1     c14.6,12.9,33.8,20.8,54.8,20.8c21,0,40.2-7.9,54.8-20.8c3,2.2,5.9,4.5,8.7,7.1l1.1,1l1-1c19.3-18.2,29.9-42.9,29.9-69.3     C240.5,92.3,197.7,49.4,145,49.4z M145,224.8c-20,0-38.2-7.4-52.2-19.5c10.7-7.2,22.7-12,35.4-14.3v14.8c0,4.9,4,8.9,8.9,8.9h23     v-21l2.5-2.5c12.4,2.3,24.1,7.2,34.6,14.2C183.2,217.4,165,224.8,145,224.8z M65.1,144.9C65.1,100.8,101,65,145,65     s79.9,35.8,79.9,79.9c0,23-9.8,43.7-25.3,58.3c-10.4-7.1-22.1-12.1-34.4-14.7l10.4-10.4c0.6-0.6,0.6-1.6,0-2.2s-1.6-0.6-2.2,0     l-16.3,16.3h-0.1v0.1l-8.1,8.1l-9.3-9.3c-0.6-0.6-1.6-0.6-2.2,0s-0.6,1.6,0,2.2l11.5,11.5l8.1-8.1v14.9h-20     c-3.2,0-5.8-2.6-5.8-5.8v-21.4h27.3v-3.1h-30.4v6.5c-13.6,2.4-26.4,7.6-37.8,15.4C74.9,188.6,65.1,167.8,65.1,144.9z      M209.5,210.9c-2.4-2.1-4.8-4.1-7.4-6c15.9-15.1,25.8-36.5,25.8-60.1c0-45.8-37.2-83-83-83c-45.8,0-83,37.2-83,83     c0,23.6,9.9,44.9,25.8,60.1c-2.5,1.9-5,3.9-7.4,6c-17.9-17.5-27.8-40.9-27.8-66.1c0-50.9,41.4-92.4,92.4-92.4     s92.4,41.4,92.4,92.4C237.4,170,227.5,193.4,209.5,210.9z"/>
        <g>
          <g>
            <path class="st10" d="M121.2,91.5c-2.2,0-4,1.5-4,3.4c0,1.9,1.8,3.4,4,3.4c2.2,0,4-1.5,4-3.4C125.2,93,123.4,91.5,121.2,91.5        M121.2,100.6c-3.5,0-6.3-2.5-6.3-5.7c0-3.2,2.8-5.7,6.3-5.7c3.5,0,6.3,2.5,6.3,5.7C127.5,98.1,124.7,100.6,121.2,100.6"/>
            <path class="st10" d="M143.6,100.6c-1.3,0-2.3-1-2.3-2.3v-4.7c0-1.1-1-2-2.2-2c-1.2,0-2.2,0.9-2.2,2l0,7c-1.3,0-2.3-1-2.3-2.3       l0-4.8c0-1.1-1-2-2.2-2c-1.2,0-2.2,0.9-2.2,2l0,4.7c0,1.3-1,2.3-2.3,2.3l0-7c0-2.4,2-4.3,4.5-4.3c1.3,0,2.5,0.5,3.3,1.4       c0.8-0.9,2-1.4,3.3-1.4c2.5,0,4.5,1.9,4.5,4.3L143.6,100.6z"/>
            <path class="st10" d="M151.1,100.5c-0.6,0-1.2,0-1.7-0.2c-1.2-0.3-1.9-1.6-1.6-2.8c0-0.1,0.1-0.3,0.1-0.4l0,0       c0.6,0.7,1.7,1.1,3.1,1.1c2.1,0,3.7-1.5,3.7-3.3c0-1.9-1.6-3.5-3.7-3.5c-2,0-4,1.1-4,3.5l0,7.4c0,1.2-1,2.2-2.3,2.2l0-9.6       c0-3.3,2.6-5.8,6.2-5.8c1.6,0,3.1,0.6,4.2,1.6c1.1,1.1,1.8,2.5,1.8,4.1C157.1,98.1,154.4,100.5,151.1,100.5"/>
            <path class="st10" d="M167.4,87l-4.9,0l0,13.5h-0.1c-1.2,0-2.2-1-2.2-2.3l0-11.2l-4.9,0c-1.2,0-2.2-1-2.2-2.3l16.6,0       C169.6,86,168.6,87,167.4,87"/>
            <path class="st10" d="M181.8,87.1l-3.2,7.1l6.1,0l-3.3-7.2L181.8,87.1z M186.9,99.1l-1.2-2.6l-8.1,0l-1.2,2.7       c-0.6,1.1-2.1,1.4-3.2,1.4l6.6-14.5c0.4-0.8,1-1.3,1.8-1.3c0.8,0,1.5,0.5,1.8,1.3l6.5,14.3C188.7,100.5,187.4,100.2,186.9,99.1       "/>
            <path class="st10" d="M112.3,89c-1.2-1.3-3-2.2-5-2.2c-3.5,0-6.4,2.6-6.4,5.7c0,3.2,2.9,5.8,6.4,5.8c1.7,0,3.3-0.6,4.5-1.7       c0.8-0.7,2.1-0.6,2.9,0c-0.6,1-1.5,1.8-2.5,2.4c-1.5,0.9-3.1,1.4-4.9,1.4c-4.8,0-8.7-3.6-8.7-8c0-4.4,3.9-8,8.7-8       c3.4,0,6.5,1.9,7.9,4.7C114.3,89.9,113.1,89.9,112.3,89"/>
            <path class="st10" d="M191.3,98.7c0,0-0.1,0-0.1,0c0,0,0.1,0.1,0.3,0.4l0,0c-0.1,0.1-0.2,0.1-0.3,0c-0.3-0.3-0.3-0.3-0.3-0.3       h-0.3v-0.1c0-0.1,0.1-0.2,0.2-0.2h0.1c0.1,0,0.2,0,0.2,0c0,0,0.1,0,0.1-0.1c0,0,0-0.1-0.3-0.1h-0.4V99c0,0.1-0.1,0.2-0.2,0.2       h-0.1v-1c0-0.1,0.1-0.2,0.2-0.2h0.5c0.5,0,0.6,0.3,0.6,0.4C191.5,98.5,191.4,98.6,191.3,98.7 M190.8,97.8       c-0.5,0-0.9,0.4-0.9,0.8c0,0.5,0.4,0.8,0.9,0.8c0.5,0,1-0.4,1-0.8C191.8,98.1,191.4,97.8,190.8,97.8 M190.8,99.7       c-0.7,0-1.2-0.5-1.2-1.1c0-0.6,0.5-1.1,1.2-1.1c0.7,0,1.2,0.5,1.2,1.1C192,99.2,191.5,99.7,190.8,99.7"/>
            <path class="st10" d="M170.3,84.8l0,13.6c0,1.2,1,2.2,2.3,2.2l0-13.6C172.6,85.8,171.6,84.8,170.3,84.8"/>
          </g>
          <path class="st10" d="M243.8,110.8H37.9v49.9c0,4.6,3.8,8.4,8.4,8.4h205.9v-49.9C252.1,114.5,248.4,110.8,243.8,110.8z"/>
          <g>
            <path class="st6" d="M86.2,143.8h-5.1v8.3h-4.5v-25.8h10.2c6,0,9.8,3.4,9.8,8.7C96.6,140.8,91.9,143.8,86.2,143.8z M86.4,130.4       h-5.3v9.3h5.3c3.4,0,5.6-1.9,5.6-4.7C92,132,89.8,130.4,86.4,130.4z"/>
            <path class="st6" d="M103.9,152.1h-4.5v-19.5h4.5v4.4c1.2-2.9,3.5-4.9,6.9-4.8v4.7h-0.3c-3.9,0-6.6,2.5-6.6,7.7V152.1z"/>
            <path class="st6" d="M122.5,152.5c-5.9,0-10.3-4.5-10.3-10.1c0-5.6,4.4-10.2,10.4-10.2s10.4,4.5,10.4,10.2       C133,147.9,128.5,152.5,122.5,152.5z M122.5,136.1c-3.6,0-5.9,2.8-5.9,6.2c0,3.5,2.5,6.3,5.9,6.3c3.6,0,5.9-2.8,5.9-6.2       C128.5,139,126,136.1,122.5,136.1z"/>
            <path class="st6" d="M140.9,132.6v19.8c0,4-2,5.8-5.7,5.8c-0.8,0-1.4-0.1-2.1-0.2v-3.6c0.4,0.1,0.8,0.1,1.3,0.1       c1.3,0,2.1-0.7,2.1-2.4v-19.5H140.9z M136.3,129.6v-4.2h4.8v4.2H136.3z"/>
            <path class="st6" d="M154.5,148.9c2.2,0,3.7-0.8,5.3-2.3l2.6,2.3c-1.8,2.2-4.4,3.7-8,3.7c-5.6,0-10-4.1-10-10.2       c0-5.6,4-10.2,9.5-10.2c6.2,0,9.3,4.9,9.3,10.5c0,0.4,0,0.8-0.1,1.2h-14.3C149.4,147.1,151.6,148.9,154.5,148.9z M158.9,141       c-0.3-2.9-2-5.1-4.9-5.1c-2.7,0-4.7,2.1-5.1,5.1H158.9z"/>
            <path class="st6" d="M175.7,152.5c-5.8,0-10.1-4.5-10.1-10.1c0-5.6,4.3-10.2,10.1-10.2c3.7,0,6,1.4,7.8,3.4l-2.8,3       c-1.4-1.4-2.8-2.4-5.1-2.4c-3.3,0-5.6,2.8-5.6,6.2c0,3.5,2.4,6.3,5.8,6.3c2.1,0,3.7-1,5.1-2.4l2.7,2.7       C181.8,151,179.5,152.5,175.7,152.5z"/>
            <path class="st6" d="M192.5,146c0,1.7,0.9,2.4,2.4,2.4c1,0,1.9-0.2,2.8-0.7v3.7c-1.1,0.6-2.4,1-4,1c-3.3,0-5.6-1.4-5.6-5.7       v-10.3h-2.5v-3.8h2.5v-5.4h4.5v5.4h5.2v3.8h-5.2V146z"/>
            <path class="st6" d="M207.6,130h4.2v7.1h7.1v4.1h-7.1v7.1h-4.2v-7.1h-7.1v-4.1h7.1V130z"/>
          </g>
        </g>
      </g>
    </g>
    <path class="st4" d="M209.8,208.7c0,0-0.1,0-0.1,0c0,0,0.1,0.1,0.3,0.4l0,0c-0.1,0.1-0.2,0.1-0.3,0c-0.3-0.3-0.3-0.3-0.3-0.3   l-0.3,0v-0.1c0-0.1,0.1-0.2,0.2-0.2h0.1c0.1,0,0.2,0,0.2,0c0,0,0.1,0,0.1-0.1c0,0,0-0.1-0.3-0.1h-0.4l0,0.8c0,0.1-0.1,0.2-0.2,0.2   h-0.1v-1c0-0.1,0.1-0.2,0.2-0.2h0.5c0.5,0,0.6,0.3,0.6,0.4C210,208.5,210,208.7,209.8,208.7 M209.4,207.8c-0.5,0-0.9,0.4-0.9,0.8   c0,0.5,0.4,0.8,0.9,0.8c0.5,0,1-0.4,1-0.8C210.4,208.2,209.9,207.8,209.4,207.8 M209.4,209.7c-0.7,0-1.2-0.5-1.2-1.1   c0-0.6,0.5-1.1,1.2-1.1c0.7,0,1.2,0.5,1.2,1.1C210.6,209.2,210.1,209.7,209.4,209.7"/>
  </g>
  <g id="security_x2B_" class="st0">
    <g class="st2">
      <g>
        <path class="st6" d="M145,49.4c-52.6,0-95.4,42.8-95.4,95.4c0,26.5,10.6,51.1,29.8,69.3l1,1l1.1-1c2.8-2.6,5.7-4.9,8.7-7.1     c14.6,12.9,33.8,20.8,54.8,20.8c21,0,40.2-7.9,54.8-20.8c3,2.2,5.9,4.5,8.7,7.1l1.1,1l1-1c19.3-18.2,29.9-42.9,29.9-69.3     C240.5,92.3,197.7,49.4,145,49.4z"/>
        <g>
          <path class="st11" d="M145,49.4c-52.6,0-95.4,42.8-95.4,95.4c0,26.5,10.6,51.1,29.8,69.3l1,1l1.1-1c2.8-2.6,5.7-4.9,8.7-7.1      c14.6,12.9,33.8,20.8,54.8,20.8c21,0,40.2-7.9,54.8-20.8c3,2.2,5.9,4.5,8.7,7.1l1.1,1l1-1c19.3-18.2,29.9-42.9,29.9-69.3      C240.5,92.3,197.7,49.4,145,49.4z M145,224.8c-20,0-38.2-7.4-52.2-19.5c11.2-7.5,23.8-12.5,37.1-14.6v24.3h22.7      c4.1,0,7.4-3.3,7.4-7.4v-16.9c13.3,2.1,26,7.1,37.2,14.7C183.2,217.4,165,224.8,145,224.8z M65.1,144.9      C65.1,100.8,101,65,145,65s79.9,35.8,79.9,79.9c0,23-9.8,43.7-25.3,58.3c-11.9-8.1-25.3-13.4-39.5-15.6h-6.5v-4.4      c0-5.3-3.8-9.4-8.8-9.4c-5,0-8.6,3.9-8.6,9.4v4.4h-6.2c-14.2,2.2-27.7,7.5-39.5,15.6C74.9,188.6,65.1,167.8,65.1,144.9z       M150.5,187.5h-11.3v-4.4c0-3.7,2.3-6.3,5.5-6.3c3.3,0,5.7,2.6,5.7,6.3V187.5z M157,190.6v16.9c0,2.4-2,4.4-4.4,4.4H133v-21.2      H157z M209.5,210.9c-2.4-2.1-4.8-4.1-7.4-6c15.9-15.1,25.9-36.5,25.9-60.1c0-45.8-37.2-83-83-83c-45.8,0-83,37.2-83,83      c0,23.6,9.9,44.9,25.8,60.1c-2.5,1.9-5,3.9-7.4,6c-17.9-17.5-27.8-40.9-27.8-66.1c0-50.9,41.4-92.4,92.4-92.4      s92.4,41.4,92.4,92.4C237.4,170,227.5,193.4,209.5,210.9z"/>
          <path class="st11" d="M145,203.1c1.4,0,2.5-1.1,2.5-2.5c0-1.4-1.1-2.5-2.5-2.5c-1.4,0-2.5,1.1-2.5,2.5      C142.5,202,143.6,203.1,145,203.1z"/>
        </g>
        <g>
          <g>
            <path class="st10" d="M121.2,91.5c-2.2,0-4,1.5-4,3.4c0,1.9,1.8,3.4,4,3.4c2.2,0,4-1.5,4-3.4C125.2,93,123.4,91.5,121.2,91.5        M121.2,100.6c-3.5,0-6.3-2.5-6.3-5.7c0-3.2,2.8-5.7,6.3-5.7c3.5,0,6.3,2.5,6.3,5.7C127.5,98.1,124.7,100.6,121.2,100.6"/>
            <path class="st10" d="M143.6,100.6c-1.3,0-2.3-1-2.3-2.3l0-4.7c0-1.1-1-2-2.2-2c-1.2,0-2.2,0.9-2.2,2l0,7c-1.3,0-2.3-1-2.3-2.3       v-4.8c0-1.1-1-2-2.2-2c-1.2,0-2.2,0.9-2.2,2l0,4.7c0,1.3-1,2.3-2.3,2.3l0-7c0-2.4,2-4.3,4.5-4.3c1.3,0,2.5,0.5,3.3,1.4       c0.8-0.9,2-1.4,3.3-1.4c2.5,0,4.5,1.9,4.5,4.3L143.6,100.6z"/>
            <path class="st10" d="M151.1,100.5c-0.6,0-1.2,0-1.7-0.2c-1.2-0.3-1.9-1.6-1.6-2.8c0-0.1,0.1-0.3,0.1-0.4l0,0       c0.6,0.7,1.7,1.1,3.1,1.1c2.1,0,3.7-1.5,3.7-3.3c0-1.9-1.6-3.5-3.7-3.5c-2,0-4,1.1-4,3.5l0,7.4c0,1.2-1,2.2-2.3,2.2l0-9.6       c0-3.3,2.6-5.8,6.2-5.8c1.6,0,3.1,0.6,4.2,1.6c1.1,1.1,1.8,2.5,1.8,4.1C157.1,98.1,154.4,100.5,151.1,100.5"/>
            <path class="st10" d="M167.4,87l-4.9,0l0,13.5h-0.1c-1.2,0-2.2-1-2.2-2.3l0-11.2l-4.9,0c-1.2,0-2.2-1-2.2-2.3l16.6,0       C169.6,86,168.6,87,167.4,87"/>
            <path class="st10" d="M181.8,87.1l-3.2,7.1l6.1,0l-3.3-7.2L181.8,87.1z M186.9,99.1l-1.2-2.6l-8.1,0l-1.2,2.7       c-0.6,1.1-2.1,1.4-3.2,1.4l6.6-14.5c0.4-0.8,1-1.3,1.8-1.3c0.8,0,1.5,0.5,1.8,1.3l6.5,14.3C188.7,100.5,187.4,100.2,186.9,99.1       "/>
            <path class="st10" d="M112.3,89c-1.2-1.3-3-2.2-5-2.2c-3.5,0-6.4,2.6-6.4,5.7c0,3.2,2.9,5.8,6.4,5.8c1.7,0,3.3-0.6,4.5-1.7       c0.8-0.7,2.1-0.6,2.9,0c-0.6,1-1.5,1.8-2.5,2.4c-1.5,0.9-3.1,1.4-4.9,1.4c-4.8,0-8.7-3.6-8.7-8c0-4.4,3.9-8,8.7-8       c3.4,0,6.5,1.9,7.9,4.7C114.3,89.9,113.1,89.9,112.3,89"/>
            <path class="st10" d="M191.3,98.7c0,0-0.1,0-0.1,0c0,0,0.1,0.1,0.3,0.4l0,0c-0.1,0.1-0.2,0.1-0.3,0c-0.3-0.3-0.3-0.3-0.3-0.3       h-0.3v-0.1c0-0.1,0.1-0.2,0.2-0.2h0.1c0.1,0,0.2,0,0.2,0c0,0,0.1,0,0.1-0.1c0,0,0-0.1-0.3-0.1h-0.4V99c0,0.1-0.1,0.2-0.2,0.2       h-0.1v-1c0-0.1,0.1-0.2,0.2-0.2h0.5c0.5,0,0.6,0.3,0.6,0.4C191.5,98.5,191.4,98.6,191.3,98.7 M190.8,97.8       c-0.5,0-0.9,0.4-0.9,0.8c0,0.5,0.4,0.8,0.9,0.8c0.5,0,1-0.4,1-0.8C191.8,98.1,191.4,97.8,190.8,97.8 M190.8,99.7       c-0.7,0-1.2-0.5-1.2-1.1c0-0.6,0.5-1.1,1.2-1.1c0.7,0,1.2,0.5,1.2,1.1C192,99.2,191.5,99.7,190.8,99.7"/>
            <path class="st10" d="M170.3,84.8l0,13.6c0,1.2,1,2.2,2.3,2.2l0-13.6C172.6,85.8,171.6,84.8,170.3,84.8"/>
          </g>
          <path class="st10" d="M243.8,110.8H37.9v49.9c0,4.6,3.8,8.4,8.4,8.4h205.9v-49.9C252.1,114.5,248.4,110.8,243.8,110.8z"/>
          <g>
            <path class="st6" d="M80.1,138.5c5.5,1.3,8.3,3.3,8.3,7.6c0,4.9-3.8,7.8-9.2,7.8c-4,0-7.7-1.4-10.8-4.1l2.7-3.2       c2.5,2.1,4.9,3.4,8.2,3.4c2.8,0,4.6-1.3,4.6-3.3c0-1.9-1-2.9-5.8-4c-5.5-1.3-8.6-3-8.6-7.8c0-4.5,3.7-7.5,8.8-7.5       c3.8,0,6.8,1.1,9.4,3.3l-2.4,3.4c-2.3-1.7-4.7-2.7-7-2.7c-2.7,0-4.2,1.4-4.2,3.1C74,136.4,75.2,137.3,80.1,138.5z"/>
            <path class="st6" d="M101.2,150.3c2.2,0,3.7-0.8,5.3-2.3l2.6,2.3c-1.8,2.2-4.4,3.7-8,3.7c-5.6,0-10-4.1-10-10.2       c0-5.6,4-10.2,9.5-10.2c6.2,0,9.3,4.9,9.3,10.5c0,0.4,0,0.8-0.1,1.2H95.6C96.1,148.5,98.3,150.3,101.2,150.3z M105.6,142.4       c-0.3-2.9-2-5.1-4.9-5.1c-2.7,0-4.7,2.1-5.1,5.1H105.6z"/>
            <path class="st6" d="M122.4,153.9c-5.8,0-10.1-4.5-10.1-10.1c0-5.6,4.3-10.2,10.1-10.2c3.7,0,6,1.4,7.8,3.4l-2.8,3       c-1.4-1.4-2.8-2.4-5.1-2.4c-3.2,0-5.6,2.8-5.6,6.2c0,3.5,2.4,6.3,5.8,6.3c2.1,0,3.7-1,5.1-2.4l2.7,2.7       C128.5,152.4,126.2,153.9,122.4,153.9z"/>
            <path class="st6" d="M145.9,134h4.5v19.5h-4.5v-3c-1.3,1.8-3.1,3.4-6.1,3.4c-4.4,0-6.9-3-6.9-7.5V134h4.5V145       c0,3,1.5,4.8,4.2,4.8c2.6,0,4.4-1.8,4.4-4.8V134z"/>
            <path class="st6" d="M159.4,153.5h-4.5V134h4.5v4.4c1.2-2.9,3.5-4.9,6.9-4.8v4.7H166c-3.9,0-6.6,2.5-6.6,7.7V153.5z"/>
            <path class="st6" d="M168.8,131v-4.2h4.8v4.2H168.8z M169,153.5V134h4.5v19.5H169z"/>
            <path class="st6" d="M183.3,147.4c0,1.7,0.9,2.4,2.4,2.4c1,0,1.9-0.2,2.8-0.7v3.7c-1.1,0.6-2.4,1-4,1c-3.3,0-5.6-1.4-5.6-5.7       v-10.3h-2.5V134h2.5v-5.4h4.5v5.4h5.2v3.8h-5.2V147.4z"/>
            <path class="st6" d="M202.8,154c-1.6,4-3.3,5.5-6.4,5.5c-1.9,0-3.2-0.4-4.6-1.2l1.5-3.3c0.8,0.4,1.7,0.7,2.6,0.7       c1.3,0,2-0.6,2.8-2.3l-8.1-19.5h4.8l5.5,14.5l5.1-14.5h4.7L202.8,154z"/>
            <path class="st6" d="M219.4,131.4h4.2v7.1h7.1v4.1h-7.1v7.1h-4.2v-7.1h-7.1v-4.1h7.1V131.4z"/>
          </g>
        </g>
      </g>
    </g>
    <path class="st4" d="M209.9,208.8c0,0-0.1,0-0.1,0c0,0,0.1,0.1,0.3,0.4l0,0c-0.1,0.1-0.2,0.1-0.3,0c-0.3-0.3-0.3-0.3-0.3-0.3h-0.3   v-0.1c0-0.1,0.1-0.2,0.2-0.2h0.1c0.1,0,0.2,0,0.2,0c0,0,0.1,0,0.1-0.1c0,0,0-0.1-0.3-0.1h-0.4v0.8c0,0.1-0.1,0.2-0.2,0.2h-0.1v-1   c0-0.1,0.1-0.2,0.2-0.2h0.5c0.5,0,0.6,0.3,0.6,0.4C210.1,208.6,210,208.7,209.9,208.8 M209.5,207.8c-0.5,0-0.9,0.4-0.9,0.8   c0,0.5,0.4,0.8,0.9,0.8c0.5,0,1-0.4,1-0.8C210.4,208.2,210,207.8,209.5,207.8 M209.5,209.7c-0.7,0-1.2-0.5-1.2-1.1   c0-0.6,0.5-1.1,1.2-1.1c0.7,0,1.2,0.5,1.2,1.1C210.7,209.2,210.1,209.7,209.5,209.7"/>
  </g>
  <g id="server_x2B_" class="st0">
    <g class="st2">
      <g>
        <path class="st6" d="M145.5,49.4C92.8,49.4,50,92.3,50,144.9c0,26.5,10.6,51.1,29.8,69.3l1,1l1.1-1c2.8-2.6,5.7-4.9,8.7-7.1     c14.6,12.9,33.8,20.8,54.8,20.8c21,0,40.2-7.9,54.8-20.8c3,2.2,5.9,4.5,8.7,7.1l1.1,1l1-1c19.3-18.3,29.9-42.9,29.9-69.3     C240.9,92.3,198.1,49.4,145.5,49.4z"/>
        <g>
          <circle class="st11" cx="132.4" cy="189.8" r="1.9"/>
          <circle class="st11" cx="132.4" cy="209" r="1.9"/>
          <path class="st11" d="M145.5,49.4C92.8,49.4,50,92.3,50,144.9c0,26.5,10.6,51.1,29.8,69.3l1,1l1.1-1c2.8-2.6,5.7-4.9,8.7-7.1      c14.6,12.9,33.8,20.8,54.8,20.8c21,0,40.2-7.9,54.8-20.8c3,2.2,5.9,4.5,8.7,7.1l1.1,1l1-1c19.3-18.3,29.9-42.9,29.9-69.3      C240.9,92.3,198.1,49.4,145.5,49.4z M65.6,144.9c0-44.1,35.8-79.9,79.9-79.9s79.9,35.8,79.9,79.9c0,23-9.8,43.7-25.3,58.3      c-10.3-7.1-21.9-12-34.1-14.6v-1.3c0-2.8-2.3-5-5-5H125v6.3c-12.2,2.6-23.8,7.6-34.1,14.6C75.3,188.5,65.6,167.8,65.6,144.9z       M128.1,194.4v-9.1h32.8c1.1,0,2,0.9,2,2v7.2H128.1z M125,191.7v5.8h18.9v3.9H125v15.3h18.9v8.1c-19.4-0.4-37-7.6-50.7-19.5      C102.9,198.8,113.6,194.2,125,191.7z M143.9,213.6h-15.9v-9.1h15.9V213.6z M147,204.5h13.9c1.1,0,2,0.9,2,2v7.2H147V204.5z       M147,224.7v-8.1h18.9v-10.3c0-2.8-2.3-5-5-5H147v-3.9h18.9v-5.8c11.3,2.5,22.1,7.1,31.7,13.6C184,217.1,166.3,224.4,147,224.7z       M209.9,210.9c-2.4-2.1-4.8-4.1-7.3-6c15.9-15.1,25.8-36.5,25.8-60.1c0-45.8-37.2-83-83-83c-45.8,0-83,37.2-83,83      c0,23.6,9.9,44.9,25.8,60.1c-2.5,1.9-5,3.9-7.4,6C63,193.4,53.1,170,53.1,144.9c0-50.9,41.4-92.4,92.4-92.4s92.4,41.4,92.4,92.4      C237.8,170,227.9,193.4,209.9,210.9z"/>
        </g>
        <g>
          <g>
            <path class="st10" d="M121.6,91.5c-2.2,0-4,1.5-4,3.4c0,1.9,1.8,3.4,4,3.4c2.2,0,4-1.5,4-3.4C125.6,93,123.8,91.5,121.6,91.5        M121.6,100.6c-3.5,0-6.3-2.5-6.3-5.7c0-3.2,2.8-5.7,6.3-5.7c3.5,0,6.3,2.5,6.3,5.7C127.9,98.1,125.1,100.6,121.6,100.6"/>
            <path class="st10" d="M144.1,100.6c-1.3,0-2.3-1-2.3-2.3l0-4.7c0-1.1-1-2-2.2-2c-1.2,0-2.2,0.9-2.2,2l0,7c-1.3,0-2.3-1-2.3-2.3       v-4.8c0-1.1-1-2-2.2-2c-1.2,0-2.2,0.9-2.2,2l0,4.7c0,1.3-1,2.3-2.3,2.3l0-7c0-2.4,2-4.3,4.5-4.3c1.3,0,2.5,0.5,3.3,1.4       c0.8-0.9,2-1.4,3.3-1.4c2.5,0,4.5,1.9,4.5,4.3L144.1,100.6z"/>
            <path class="st10" d="M151.5,100.5c-0.6,0-1.2,0-1.7-0.2c-1.2-0.3-1.9-1.6-1.6-2.8c0-0.1,0.1-0.3,0.1-0.4l0,0       c0.6,0.7,1.7,1.1,3.1,1.1c2.1,0,3.7-1.5,3.7-3.3c0-1.9-1.6-3.5-3.7-3.5c-2,0-4,1.1-4,3.5l0,7.4c0,1.2-1,2.2-2.3,2.2l0-9.6       c0-3.3,2.6-5.8,6.2-5.8c1.6,0,3.1,0.6,4.2,1.6c1.1,1.1,1.8,2.5,1.8,4.1C157.5,98.1,154.9,100.5,151.5,100.5"/>
            <path class="st10" d="M167.8,87l-4.9,0l0,13.5l-0.1,0c-1.2,0-2.2-1-2.2-2.3l0-11.2l-4.9,0c-1.2,0-2.2-1-2.2-2.3l16.6,0       C170,86,169,87,167.8,87"/>
            <path class="st10" d="M182.3,87.1l-3.2,7.1l6.1,0l-3.3-7.2L182.3,87.1z M187.3,99.1l-1.2-2.6l-8.1,0l-1.2,2.7       c-0.6,1.1-2.1,1.4-3.2,1.4l6.6-14.5c0.4-0.8,1-1.3,1.8-1.3c0.8,0,1.5,0.5,1.8,1.3l6.5,14.3C189.2,100.5,187.8,100.2,187.3,99.1       "/>
            <path class="st10" d="M112.7,89c-1.2-1.3-3-2.2-5-2.2c-3.5,0-6.4,2.6-6.4,5.7c0,3.2,2.9,5.8,6.4,5.8c1.7,0,3.3-0.6,4.5-1.7       c0.8-0.7,2.1-0.6,2.9,0c-0.6,1-1.5,1.8-2.5,2.4c-1.5,0.9-3.1,1.4-4.9,1.4c-4.8,0-8.7-3.6-8.7-8c0-4.4,3.9-8,8.7-8       c3.4,0,6.5,1.9,7.9,4.7C114.7,89.9,113.5,89.8,112.7,89"/>
            <path class="st10" d="M191.7,98.7c0,0-0.1,0-0.1,0c0,0,0.1,0.1,0.3,0.4l0,0c-0.1,0.1-0.2,0.1-0.3,0c-0.3-0.3-0.3-0.3-0.3-0.3       H191v-0.1c0-0.1,0.1-0.2,0.2-0.2h0.1c0.1,0,0.2,0,0.2,0c0,0,0.1,0,0.1-0.1c0,0,0-0.1-0.3-0.1h-0.4V99c0,0.1-0.1,0.2-0.2,0.2       h-0.1v-1c0-0.1,0.1-0.2,0.2-0.2h0.5c0.5,0,0.6,0.3,0.6,0.4C191.9,98.5,191.8,98.6,191.7,98.7 M191.3,97.8       c-0.5,0-0.9,0.4-0.9,0.8c0,0.5,0.4,0.8,0.9,0.8c0.5,0,1-0.4,1-0.8C192.2,98.1,191.8,97.8,191.3,97.8 M191.3,99.7       c-0.7,0-1.2-0.5-1.2-1.1c0-0.6,0.5-1.1,1.2-1.1c0.7,0,1.2,0.5,1.2,1.1C192.5,99.2,191.9,99.7,191.3,99.7"/>
            <path class="st10" d="M170.8,84.8l0,13.6c0,1.2,1,2.2,2.3,2.2l0-13.6C173,85.8,172,84.8,170.8,84.8"/>
          </g>
          <path class="st10" d="M243.8,110.8H37.9v49.9c0,4.6,3.8,8.4,8.4,8.4h205.9v-49.9C252.1,114.5,248.4,110.8,243.8,110.8z"/>
          <g>
            <path class="st6" d="M95.6,137.8c5.5,1.3,8.3,3.3,8.3,7.6c0,4.9-3.8,7.8-9.2,7.8c-4,0-7.7-1.4-10.8-4.1l2.7-3.2       c2.5,2.1,4.9,3.4,8.2,3.4c2.8,0,4.6-1.3,4.6-3.3c0-1.9-1-2.9-5.8-4c-5.5-1.3-8.6-3-8.6-7.8c0-4.5,3.7-7.5,8.8-7.5       c3.8,0,6.8,1.1,9.4,3.2l-2.4,3.4c-2.3-1.7-4.7-2.7-7-2.7c-2.7,0-4.2,1.4-4.2,3.1C89.5,135.7,90.6,136.6,95.6,137.8z"/>
            <path class="st6" d="M116.7,149.6c2.2,0,3.7-0.8,5.3-2.3l2.6,2.3c-1.8,2.2-4.4,3.7-8,3.7c-5.6,0-10-4.1-10-10.2       c0-5.6,4-10.2,9.5-10.2c6.2,0,9.3,4.9,9.3,10.5c0,0.4,0,0.8-0.1,1.2H111C111.6,147.8,113.8,149.6,116.7,149.6z M121,141.7       c-0.3-2.9-2-5.1-4.9-5.1c-2.7,0-4.7,2.1-5.1,5.1H121z"/>
            <path class="st6" d="M133.4,152.8h-4.5v-19.5h4.5v4.4c1.2-2.9,3.5-4.9,6.9-4.8v4.7h-0.3c-3.9,0-6.6,2.5-6.6,7.7V152.8z"/>
            <path class="st6" d="M157.3,133.3h4.7l-8,19.6h-4l-8-19.6h4.8l5.2,14.3L157.3,133.3z"/>
            <path class="st6" d="M172.6,149.6c2.2,0,3.7-0.8,5.3-2.3l2.6,2.3c-1.8,2.2-4.4,3.7-8,3.7c-5.6,0-10-4.1-10-10.2       c0-5.6,4-10.2,9.5-10.2c6.2,0,9.3,4.9,9.3,10.5c0,0.4,0,0.8-0.1,1.2H167C167.5,147.8,169.7,149.6,172.6,149.6z M177,141.7       c-0.3-2.9-2-5.1-4.9-5.1c-2.7,0-4.7,2.1-5.1,5.1H177z"/>
            <path class="st6" d="M189.4,152.8h-4.5v-19.5h4.5v4.4c1.2-2.9,3.5-4.9,6.9-4.8v4.7H196c-3.9,0-6.6,2.5-6.6,7.7V152.8z"/>
            <path class="st6" d="M206,130.7h4.2v7.1h7.1v4.1h-7.1v7.1H206v-7.1h-7.1v-4.1h7.1V130.7z"/>
          </g>
        </g>
      </g>
    </g>
    <path class="st4" d="M210.3,208.8c0,0-0.1,0-0.1,0c0,0,0.1,0.1,0.3,0.4l0,0c-0.1,0.1-0.2,0.1-0.3,0c-0.3-0.3-0.3-0.3-0.3-0.3   l-0.3,0v-0.1c0-0.1,0.1-0.2,0.2-0.2h0.1c0.1,0,0.2,0,0.2,0c0,0,0.1,0,0.1-0.1c0,0,0-0.1-0.3-0.1h-0.4v0.8c0,0.1-0.1,0.2-0.2,0.2   h-0.1v-1c0-0.1,0.1-0.2,0.2-0.2h0.5c0.5,0,0.6,0.3,0.6,0.4C210.5,208.6,210.4,208.8,210.3,208.8 M209.9,207.9   c-0.5,0-0.9,0.4-0.9,0.8c0,0.5,0.4,0.8,0.9,0.8c0.5,0,1-0.4,1-0.8C210.8,208.3,210.4,207.9,209.9,207.9 M209.9,209.8   c-0.7,0-1.2-0.5-1.2-1.1c0-0.6,0.5-1.1,1.2-1.1c0.7,0,1.2,0.5,1.2,1.1C211.1,209.3,210.5,209.8,209.9,209.8"/>
  </g>
</svg>