<svg xmlns:xlink="http://www.w3.org/1999/xlink" xmlns="http://www.w3.org/2000/svg" width="81" height="81" viewBox="-11.5 -11.5 81 81" fill="none">
  <g>
    <g clip-path="url(#clip0_1_3)">
    <path d="M50.75 0H7.25C3.248 0 0 3.248 0 7.25V50.75C0 54.752 3.248 58 7.25 58H50.75C54.752 58 58 54.752 58 50.75V7.25C58 3.248 54.752 0 50.75 0ZM30.45 2.9H41.325V13.775H30.45V2.9ZM2.9 7.25C2.9 4.85355 4.85355 2.9 7.25 2.9H27.55V13.775H2.9V7.25ZM2.9 16.675H41.325V27.55H2.9V16.675ZM27.55 30.45V41.325H16.675V30.45H27.55ZM13.775 55.1H7.25C4.85355 55.1 2.9 53.1465 2.9 50.75V44.225H13.775V55.1ZM13.775 41.325H2.9V30.45H13.775V41.325ZM55.1 50.75C55.1 53.1465 53.1465 55.1 50.75 55.1H16.675V44.225H55.1V50.75ZM55.1 41.325H30.45V30.45H55.1V41.325ZM55.1 27.55H44.225V16.675H55.1V27.55ZM55.1 13.775H44.225V2.9H50.75C53.1465 2.9 55.1 4.85355 55.1 7.25V13.775Z" fill="black"/>
    <path d="M13.775 44.225V55.1H7.24999C4.85354 55.1 2.89999 53.1464 2.89999 50.75V44.225H13.775Z" fill="white"/>
    <path d="M27.55 30.45H16.675V41.325H27.55V30.45Z" fill="white"/>
    <path d="M55.1 16.675H44.225V27.55H55.1V16.675Z" fill="white"/>
    <path d="M41.325 2.90002H30.45V13.775H41.325V2.90002Z" fill="white"/>
    <path d="M55.1 7.25002V13.775H44.225V2.90002H50.75C53.1464 2.90002 55.1 4.85357 55.1 7.25002Z" fill="#BC70C4"/>
    <path d="M13.775 30.45H2.89999V41.325H13.775V30.45Z" fill="#BC70C4"/>
    <path d="M55.1 44.225V50.75C55.1 53.1464 53.1464 55.1 50.75 55.1H16.675V44.225H55.1Z" fill="#BC70C4"/>
    <path d="M55.1 30.45H30.45V41.325H55.1V30.45Z" fill="#BC70C4"/>
    <path d="M41.325 16.675H2.89999V27.55H41.325V16.675Z" fill="#BC70C4"/>
    <path d="M27.55 2.90002V13.775H2.89999V7.25002C2.89999 4.85357 4.85354 2.90002 7.24999 2.90002H27.55Z" fill="#BC70C4"/>
    </g>
    <defs>
    <clipPath id="clip0_1_3">
    <rect width="58" height="58" fill="white"/>
    </clipPath>
    </defs>
  </g>
</svg>