<!DOCTYPE svg PUBLIC "-//W3C//DTD SVG 1.1//EN" "http://www.w3.org/Graphics/SVG/1.1/DTD/svg11.dtd">
<!-- Uploaded to: SVG Repo, www.svgrepo.com, Transformed by: SVG Repo Mixer Tools -->
<svg width="800px" height="800px" viewBox="0 0 24 24" fill="none" xmlns="http://www.w3.org/2000/svg">
<g id="SVGRepo_bgCarrier" stroke-width="0"/>
<g id="SVGRepo_tracerCarrier" stroke-linecap="round" stroke-linejoin="round"/>
<g id="SVGRepo_iconCarrier"> <path d="M13.2748 8.96174C13.6935 8.84235 14 8.45696 14 7.99997C14 7.44768 13.5523 6.99997 13 6.99997C12.4477 6.99997 12 7.44768 12 7.99997C12 8.27611 12.1119 8.52611 12.2929 8.70708M13.2748 8.96174C13.1875 8.98664 13.0953 8.99997 13 8.99997C12.7239 8.99997 12.4739 8.88804 12.2929 8.70708M13.2748 8.96174L14.7252 14.0382M12.2929 8.70708L8.70711 12.2929M14.7252 14.0382C14.8125 14.0133 14.9047 14 15 14C15.5523 14 16 14.4477 16 15C16 15.5523 15.5523 16 15 16C14.4477 16 14 15.5523 14 15C14 14.9047 14.0133 14.8125 14.0382 14.7252M14.7252 14.0382C14.3938 14.1327 14.1327 14.3938 14.0382 14.7252M14.0382 14.7252L8.96177 13.2748M8.96177 13.2748C8.98667 13.1875 9 13.0953 9 13C9 12.7238 8.88807 12.4738 8.70711 12.2929M8.96177 13.2748C8.84238 13.6934 8.45699 14 8 14C7.44772 14 7 13.5523 7 13C7 12.4477 7.44772 12 8 12C8.27614 12 8.52614 12.1119 8.70711 12.2929M8.84769 20.6602H15.1526C15.8257 20.6602 16.1622 20.6602 16.4635 20.5623C16.7301 20.4757 16.9754 20.3341 17.1837 20.1465C17.4191 19.9346 17.5874 19.6431 17.9239 19.0602L21.0764 13.6C21.4129 13.0171 21.5812 12.7256 21.6471 12.4158C21.7053 12.1416 21.7053 11.8583 21.6471 11.5842C21.5812 11.2743 21.4129 10.9829 21.0764 10.4L17.9239 4.93972C17.5874 4.35684 17.4191 4.06539 17.1837 3.85343C16.9754 3.66589 16.7301 3.52422 16.4635 3.43761C16.1622 3.33972 15.8257 3.33972 15.1526 3.33972H8.84769C8.17463 3.33972 7.8381 3.33972 7.53684 3.43761C7.27028 3.52422 7.0249 3.66589 6.81661 3.85343C6.5812 4.06539 6.41294 4.35684 6.07641 4.93972L2.92393 10.4C2.5874 10.9829 2.41914 11.2743 2.35328 11.5842C2.295 11.8583 2.295 12.1416 2.35328 12.4158C2.41914 12.7256 2.5874 13.0171 2.92393 13.6L6.07641 19.0602C6.41294 19.6431 6.5812 19.9346 6.81661 20.1465C7.0249 20.3341 7.27028 20.4757 7.53684 20.5623C7.8381 20.6602 8.17463 20.6602 8.84769 20.6602Z" stroke="#fff" stroke-width="2" stroke-linecap="round" stroke-linejoin="round"/> </g>
</svg>