<!DOCTYPE svg PUBLIC "-//W3C//DTD SVG 1.1//EN" "http://www.w3.org/Graphics/SVG/1.1/DTD/svg11.dtd">
<!-- Uploaded to: SVG Repo, www.svgrepo.com, Transformed by: SVG Repo Mixer Tools -->
<svg fill="#fff" width="800px" height="800px" viewBox="0 0 1920 1920" xmlns="http://www.w3.org/2000/svg" stroke="#fff">
<g id="SVGRepo_bgCarrier" stroke-width="0"/>
<g id="SVGRepo_tracerCarrier" stroke-linecap="round" stroke-linejoin="round"/>
<g id="SVGRepo_iconCarrier"> <path d="M600 1440c132.36 0 240 107.64 240 240s-107.64 240-240 240-240-107.64-240-240 107.64-240 240-240Zm720 0c132.36 0 240 107.64 240 240s-107.64 240-240 240-240-107.64-240-240 107.64-240 240-240ZM600 720c132.36 0 240 107.64 240 240s-107.64 240-240 240-240-107.64-240-240 107.64-240 240-240Zm720 0c132.36 0 240 107.64 240 240s-107.64 240-240 240-240-107.64-240-240 107.64-240 240-240ZM600 0c132.36 0 240 107.64 240 240S732.36 480 600 480 360 372.36 360 240 467.64 0 600 0Zm720 0c132.36 0 240 107.64 240 240s-107.64 240-240 240-240-107.64-240-240S1187.64 0 1320 0Z" fill-rule="evenodd"/> </g>
</svg>