<!DOCTYPE svg PUBLIC "-//W3C//DTD SVG 1.1//EN" "http://www.w3.org/Graphics/SVG/1.1/DTD/svg11.dtd">
<!-- Uploaded to: SVG Repo, www.svgrepo.com, Transformed by: SVG Repo Mixer Tools -->
<svg height="800px" width="800px" version="1.1" id="_x32_" xmlns="http://www.w3.org/2000/svg" xmlns:xlink="http://www.w3.org/1999/xlink" viewBox="0 0 512 512" xml:space="preserve" fill="#82732A" stroke="#82732A">
<g id="SVGRepo_bgCarrier" stroke-width="0"/>
<g id="SVGRepo_tracerCarrier" stroke-linecap="round" stroke-linejoin="round"/>
<g id="SVGRepo_iconCarrier"> <style type="text/css"> .st0{fill:.notification.red::before {     background-image: url(../icon/exit_red.svg); };} </style> <g> <path class="st0" d="M505.095,407.125L300.77,53.208c-9.206-15.944-26.361-25.849-44.774-25.849 c-18.412,0-35.552,9.905-44.751,25.849L6.905,407.109c-9.206,15.944-9.206,35.746,0,51.69 c9.206,15.944,26.354,25.842,44.758,25.842h408.674c18.405,0,35.568-9.897,44.759-25.842 C514.302,442.855,514.302,423.053,505.095,407.125z M256.004,426.437c-17.668,0-32.013-14.33-32.013-32.004 c0-17.668,14.345-31.997,32.013-31.997c17.667,0,31.997,14.329,31.997,31.997C288.001,412.108,273.671,426.437,256.004,426.437z M275.72,324.011c0,10.89-8.834,19.709-19.716,19.709c-10.898,0-19.717-8.818-19.717-19.709l-12.296-144.724 c0-17.676,14.345-32.005,32.013-32.005c17.667,0,31.997,14.33,31.997,32.005L275.72,324.011z"/> </g> </g>
</svg>