<!DOCTYPE svg PUBLIC "-//W3C//DTD SVG 1.1//EN" "http://www.w3.org/Graphics/SVG/1.1/DTD/svg11.dtd">
<!-- Uploaded to: SVG Repo, www.svgrepo.com, Transformed by: SVG Repo Mixer Tools -->
<svg width="800px" height="800px" viewBox="0 0 48.00 48.00" id="b" xmlns="http://www.w3.org/2000/svg" fill="#ffffff" stroke="#ffffff" stroke-width="2.256">
<g id="SVGRepo_bgCarrier" stroke-width="0"/>
<g id="SVGRepo_tracerCarrier" stroke-linecap="round" stroke-linejoin="round"/>
<g id="SVGRepo_iconCarrier"> <defs> <style>.c{fill:none;stroke:#fff;stroke-linecap:round;stroke-linejoin:round;}</style> </defs> <path class="c" d="m12.73,4.5h-2.33c-1.1046,0-2,.8954-2,2v35c0,1.1046.8954,2,2,2h2.33"/> <path class="c" d="m12.73,4.5v39h24.87c1.1046,0,2-.8954,2-2V6.5c0-1.1046-.8954-2-2-2H12.73Z"/> <g> <g> <polyline class="c" points="30.965 25.5088 28.565 33.5088 26.165 25.5088 23.765 33.5088 21.365 25.5088"/> <line class="c" x1="20.365" y1="25.521" x2="22.365" y2="25.521"/> <line class="c" x1="25.165" y1="25.521" x2="27.165" y2="25.521"/> <line class="c" x1="29.965" y1="25.521" x2="31.965" y2="25.521"/> </g> <g> <polyline class="c" points="21.165 22.4824 22.165 14.4912 26.165 22.4912 30.165 14.5034 31.165 22.4912"/> <line class="c" x1="20.165" y1="22.4824" x2="22.165" y2="22.4824"/> <line class="c" x1="30.165" y1="22.4824" x2="32.165" y2="22.4824"/> <line class="c" x1="30.165" y1="14.5034" x2="31.165" y2="14.5034"/> <line class="c" x1="21.165" y1="14.5034" x2="22.165" y2="14.5034"/> </g> </g> </g>
</svg>