<!DOCTYPE svg PUBLIC "-//W3C//DTD SVG 1.1//EN" "http://www.w3.org/Graphics/SVG/1.1/DTD/svg11.dtd">
<!-- Uploaded to: SVG Repo, www.svgrepo.com, Transformed by: SVG Repo Mixer Tools -->
<svg fill="#007AC2" width="800px" height="800px" viewBox="0 0 32 32" version="1.1" xmlns="http://www.w3.org/2000/svg">
<g id="SVGRepo_bgCarrier" stroke-width="0"/>
<g id="SVGRepo_tracerCarrier" stroke-linecap="round" stroke-linejoin="round"/>
<g id="SVGRepo_iconCarrier"> <title>kubuntu</title> <path d="M21.025 1.873c-1.496-0.549-3.223-0.867-5.025-0.867-8.28 0-14.992 6.712-14.992 14.992s6.712 14.992 14.992 14.992c8.28 0 14.992-6.712 14.992-14.992 0-1.888-0.349-3.695-0.986-5.359l0.035 0.103c-1.583-4.148-4.834-7.351-8.911-8.835l-0.104-0.033zM21.036 5.057l0.039 0.018 1.923 1.057c0.078 0.045 0.13 0.129 0.13 0.224 0 0.028-0.004 0.054-0.012 0.079l0-0.002-0.849 2.747c-0.008 0.026-0.013 0.057-0.013 0.088 0 0.078 0.029 0.15 0.076 0.205l-0-0 1.307 1.614c0.052 0.060 0.128 0.098 0.213 0.098 0.005 0 0.010-0 0.015-0l-0.001 0 2.874-0.254c0.119 0.002 0.218 0.084 0.246 0.194l0 0.002 0.642 2.045c0.005 0.019 0.008 0.040 0.008 0.062 0 0.087-0.043 0.164-0.109 0.211l-0.001 0.001c-0.027 0.019-0.058 0.033-0.092 0.040l-0.002 0-4.054 1.118c-0.017 0.004-0.036 0.006-0.056 0.006-0.134 0-0.245-0.094-0.271-0.22l-0-0.002-0.003-0.003c-0.753-3.281-3.648-5.691-7.106-5.691-0.762 0-1.497 0.117-2.187 0.334l0.001 0.001c-0.017 0.003-0.037 0.005-0.057 0.005-0.141 0-0.261-0.094-0.299-0.224l-0.001-0.002s-0.779-3.696-0.935-4.222c-0.007-0.022-0.011-0.047-0.011-0.073 0-0.117 0.077-0.215 0.184-0.247l0.002-0 2.011-0.357c0.022-0.007 0.047-0.010 0.072-0.010 0.095 0 0.178 0.052 0.223 0.128l0.001 0.001 1.241 2.65c0.059 0.12 0.174 0.204 0.31 0.218l0.002 0c0.034 0.006 1.479 0.207 1.896 0.296 0.032 0.010 0.069 0.016 0.107 0.016 0.098 0 0.186-0.038 0.251-0.101l-0 0 2.013-1.989c0.047-0.047 0.112-0.076 0.183-0.076 0.032 0 0.062 0.006 0.090 0.016l-0.002-0.001zM7.926 7.24l0 0c0.032 0.015 0.060 0.036 0.082 0.061l0 0 2.989 2.945c0.044 0.049 0.070 0.114 0.070 0.184 0 0.082-0.036 0.157-0.093 0.207l-0 0-0.001 0.004c-1.447 1.335-2.351 3.241-2.351 5.358 0 2.103 0.891 3.997 2.316 5.326l0.004 0.004 0.044 0.049c0.045 0.051 0.072 0.119 0.072 0.193 0 0.083-0.035 0.159-0.090 0.212l-0 0s-2.806 2.53-3.183 2.927c-0.047 0.049-0.113 0.080-0.187 0.080-0.069 0-0.132-0.027-0.178-0.072l0 0-1.315-1.563c-0.049-0.047-0.080-0.113-0.080-0.186 0-0.048 0.013-0.093 0.036-0.131l-0.001 0.001 1.668-2.406c0.042-0.061 0.067-0.137 0.067-0.219 0-0.058-0.013-0.113-0.035-0.163l0.001 0.002c-0.011-0.032-0.56-1.385-0.692-1.789-0.030-0.129-0.126-0.23-0.25-0.267l-0.003-0.001-2.723-0.742c-0.111-0.030-0.192-0.13-0.192-0.248v-0l-0.046-2.193c0-0 0-0.001 0-0.001 0-0.123 0.086-0.225 0.2-0.252l0.002-0 2.797-0.645c0.104-0.026 0.186-0.101 0.221-0.199l0.001-0.002 0.745-1.939c0.010-0.028 0.016-0.060 0.016-0.094 0-0.057-0.017-0.109-0.046-0.153l0.001 0.001-1.651-2.356c-0.020-0.036-0.032-0.079-0.032-0.125 0-0.073 0.030-0.139 0.079-0.186l0-0 1.45-1.578c0.046-0.045 0.109-0.072 0.179-0.072 0.040 0 0.077 0.009 0.11 0.025l-0.002-0.001zM27.568 18.864c0.087 0.043 0.145 0.131 0.145 0.232 0 0.023-0.003 0.045-0.009 0.066l0-0.002-0.72 1.911c-0.029 0.112-0.13 0.194-0.25 0.194-0.002 0-0.003 0-0.005-0h0l-2.92-0.285c-0.010-0.001-0.021-0.001-0.033-0.001-0.128 0-0.242 0.062-0.314 0.157l-0.001 0.001c-0.022 0.026-0.934 1.166-1.223 1.479-0.073 0.067-0.119 0.162-0.119 0.269 0 0.029 0.003 0.058 0.010 0.085l-0-0.002 0.69 2.744c0.005 0.019 0.008 0.042 0.008 0.065 0 0.096-0.052 0.179-0.13 0.224l-0.001 0.001-1.891 1.113c-0.037 0.021-0.081 0.034-0.127 0.034-0.076 0-0.145-0.033-0.192-0.086l-0-0-1.936-2.131c-0.057-0.061-0.139-0.1-0.229-0.1-0.019 0-0.038 0.002-0.057 0.005l0.002-0-2.056 0.299c-0.087 0.015-0.16 0.070-0.2 0.144l-0.001 0.002-1.242 2.598c-0.046 0.074-0.127 0.122-0.219 0.122-0.027 0-0.052-0.004-0.077-0.012l0.002 0-2.085-0.493c-0.101-0.031-0.175-0.12-0.183-0.227l-0-0.001c-0-0.005-0.001-0.012-0.001-0.018 0-0.030 0.005-0.059 0.014-0.086l-0.001 0.002 1.101-4.054c0.039-0.11 0.141-0.187 0.262-0.187 0.033 0 0.064 0.006 0.093 0.016l-0.002-0.001 0.004-0.001c0.676 0.229 1.454 0.36 2.263 0.36 3.411 0 6.274-2.345 7.065-5.511l0.011-0.050 0.014-0.051c0.044-0.12 0.158-0.204 0.291-0.204 0.028 0 0.055 0.004 0.081 0.011l-0.002-0s3.584 1.217 4.116 1.352c0.019 0.005 0.035 0.011 0.051 0.019l-0.002-0.001z"/> </g>
</svg>