<svg xmlns:xlink="http://www.w3.org/1999/xlink" xmlns="http://www.w3.org/2000/svg" width="81" height="81" viewBox="0 0 81 81" fill="none">
<g clip-path="url(#clip0)">
<path d="M13.8882 12.9054V23.4054L27.9882 12.9054H13.8882Z" fill="white"/>
<path d="M27.9882 12.9054L13.8882 23.4054V53.6054L30.8882 12.9054H27.9882Z" fill="#FF3833"/>
<path d="M68.1882 67.2054V36.7054L41.3882 67.2054H68.1882Z" fill="#FF3833"/>
<path d="M68.188 35.4054V12.9054H57.188L46.988 43.7054L68.188 35.4054Z" fill="#E87E7E"/>
<path d="M13.8882 58.8054V67.2054H39.1882L46.9882 43.6054L13.8882 58.8054Z" fill="#E87E7E"/>
<path d="M46.9882 43.7054L39.1882 67.3054H41.4882L68.2882 36.7054V35.4054L46.9882 43.7054Z" fill="white"/>
<path d="M57.1882 12.9054H30.8882L13.8882 53.6054V58.8054L46.9882 43.7054L57.1882 12.9054Z" fill="#E20736"/>
<path d="M71.5881 35.1054C71.0881 34.6054 70.3881 34.4054 69.6881 34.6054V11.4054H59.1881C59.2881 10.6054 58.6881 9.80538 57.8881 9.70538C57.1881 9.60538 56.4881 10.0054 56.2881 10.7054L56.0881 11.4054H32.9881C32.9881 10.8054 32.6881 10.2054 32.2881 9.90538C31.5881 9.30538 30.4881 9.30538 29.7881 9.90538L27.5881 11.4054H12.3881V22.6054L9.2881 24.9054C8.5881 25.4054 8.3881 26.3054 8.7881 27.0054C9.1881 27.7054 10.1881 27.9054 10.8881 27.4054L10.9881 27.3054L12.2881 26.3054V53.3054L10.2881 58.1054C9.8881 58.9054 10.0881 59.8054 10.5881 60.4054C10.9881 60.9054 11.5881 61.1054 12.1881 61.0054V68.7054H36.8881L36.7881 68.9054V69.1054C36.6881 70.2054 37.4881 71.2054 38.5881 71.3054C39.3881 71.4054 40.0881 71.0054 40.4881 70.3054L41.9881 68.8054H69.4881V39.9054L71.6881 37.6054L71.7881 37.3054C72.2881 36.5054 72.1881 35.6054 71.5881 35.1054ZM66.6881 35.7054L48.7881 43.0054L58.2881 14.4054H66.6881V35.7054ZM66.2881 39.1054L41.3881 65.2054L47.5881 46.8054L66.2881 39.1054ZM45.0881 44.5054L15.3881 56.7054V54.0054L31.8881 14.4054H55.0881L45.0881 44.5054ZM15.3881 14.4054H23.4881L15.3881 20.4054V14.4054ZM15.3881 24.2054L28.4881 14.4054H28.5881L15.3881 46.2054V24.2054ZM15.3881 65.7054V59.9054L43.8881 48.3054L38.0881 65.7054H15.3881ZM66.6881 65.7054H45.0881L66.6881 43.0054V65.7054Z" fill="black"/>
</g>
<defs>
<clipPath id="clip0">
<rect x="8.58813" y="9.4054" width="63.6" height="61.9" fill="white"/>
</clipPath>
</defs>
</svg>